<mxfile host="app.diagrams.net" modified="2023-10-25T09:12:43.463Z" agent="Mozilla/5.0 (X11; Linux x86_64) AppleWebKit/537.36 (KHTML, like Gecko) Chrome/118.0.0.0 Safari/537.36" etag="IC4MTGM-5V52VjW-qFnB" version="22.0.7" type="device">
  <diagram name="Page-1" id="GnfyEgh0220JSVj6RvX8">
    <mxGraphModel dx="1709" dy="948" grid="1" gridSize="10" guides="1" tooltips="1" connect="1" arrows="1" fold="1" page="1" pageScale="1" pageWidth="827" pageHeight="1169" math="0" shadow="0">
      <root>
        <mxCell id="0" />
        <mxCell id="1" parent="0" />
        <mxCell id="S2vyZTGgJgDLt4Bkh_SA-1" value="" style="shape=image;verticalLabelPosition=bottom;labelBackgroundColor=default;verticalAlign=top;aspect=fixed;imageAspect=0;image=data:image/png,iVBORw0KGgoAAAANSUhEUgAAAR4AAAErCAYAAAAIfuzIAAAABHNCSVQICAgIfAhkiAAAIABJREFUeF7tnQlclNX+/z8wyAwgmzoCicuIC0ukmFmoFVJmYlpplqnpP9H6qdmi1e+aWt42u5V6y9TfTclbKi0kpd4w84pWKu5YqOCKCwYKOsMgMIMM8/8+w+KAs8IMzAzfp9e8kuc5y/e8z5nPnPM95zzHTaut0oIvJsAEmEAzEnBvxrw4KybABJiAjgALj5mGkPu1G0Y85IYHxgPZlWYC82PrCRxdjgkPPYgHEmYh+Zz10ZsU42IVXpyhwUP0+eGy6ZQKftZg1PP0WViFHI3psPzUPAEWHjOMVPRlSN9GnwNuUJgJa4vHihwgjfJrjrxsYW+T01CcQ8aOdKTv2IPc601OzfIEKrRYNL8KK/eSp+FudzweZDpq8FB3DLmhxZZNVZi2UguV6eD81AwBDzPPW/3jkHuAOa8RhkAtgpuBVvrbbhjzO7A9V4v4ZsivxSs4dAgSia8c3RAb3HzWHEmqwvtZQEBfd3w60c18xiI3vPKmO7ZMrMKOLynu/SK8HW0+GocwTMCtUc5lVRnySishlvhA6iMynDLftZ4ADeXmx7jhPerutBrhsZ5S02Ocq8JD40hANG54e50Ic3tbnmTOKg3uoh4PIt1x4Et3hHPztxyeXkjrh1ql57FwxRrEfbwWY9MLG5Vpa4pEIwlk0/BJYckwogjIPN0CdFQK5J7OhULfhyXcy8lFgQV2qwpyqYzZyD2naPYhiKpIyJvsLLJ88LOFejs7KoDgh90w3QrREWomfJw7nm4PqI5Tr4eGxHw1joAVwqNB3qmDmLlyC9a5st7Ql39MiBsCpQ0+1BPJMOVcro3X0w3pFC5zFTmkZZQGfSIjqtMaOIXuG/oi73VDPyE/CpcmfH8KgBENbaC/k/IaV8m3xLqeigkh7RDyZBKyty3AQFk7dO8ZhpCIiUilvBU76F5nuhdB9zrfiRc2082GV2Uu0hZNpLje8AoJozJGoTul4yWNwojZycg2VE5dGrlY/NBtxLdd/U/Ig1hMAm38ysbieCHeILx3kGzctRgT7hL+FvImOym97vHkoM4xI0CXya8jCAYNnZ592h0BxjM0/MTXDTMerR6a/fBdFc4ZDsV3zRAw40VQYudv2cgouobjp88jQ07ufN9QDOuSj60XXNS1T0RkMUC/WpGRA3uooavMtVCBJA2RhJ5NxlI3fPw2EPE4MI/ERnUKSE2h+2vIfwMtDn9BvgX9immrRQQJW2BtXpRWBNkQqB+G7gWaqS0zdX3zsZDOdQUUF7dg/ouZCBw7D4mZSUjalYz5H0Zg4OZkeD0+BzPPpSJpWyaWv5mExOHzEFOXfwFSn3sQY9bkUrchBqNnJaBfZypRfiZ++joZaUsn4vC5cuxJTYTsFqO8ENKjH/rV9Y3kOL4jEwUecqhMCTskwA2yWVGAXBLLhPcXQxE7ATMXdINEkYm0lFRk7liOxMclkGV+hFgKbugq+E2r6+2ghxtGW9nbqU2vL/WU+n6pxZEsLX64CLzS2VBOfM8kAcHHY/Rz47T2lfnLtGF/o88767SJP/6hPay8od3x9ee6e/dv+st4XFPpOtOz37VamYdWix5a7Z4bJliVVGlHt6Vw0GolwVrtuxn1w+Z/odUGC+lQmNX5RtLJ0GojhDChWu12U3k1lV/599rxbUkBPSTaiFn/1ZYL6eV+pI2X1NybXnOvcB2Vie5JEurbnPWOlkSI7sdo52WW1W8D2R9pY3VpR2jnHTBSTn37b5AtAdVpvZtlKvwZ7cdDJMRXopW0lWkTVhyrtrs2rSyyX5dvgDZxUwOb9PJLnl2h9Yip0Pb4h6bxbbdSo10wqjqdkRtM2czPjGmL6aGWRzCeGfcI1s58Bofnj8fqR6MR42tSx/ghEYiYocU8mg3Tv4KfplkqoZtDI4HslvDj6BtT13MJQfzj8UJfAgiNgUzXDQu4eS8gAhHd6FZlPvlQ9BIIiMerny/Dx0s+wgt9G3QtwkdjjHCPhmKZmQaGaPp2NOrfBDB2NpKmR1TbXZvG7YkYf6+QrwqHj1JPzNCl0SLzRPWDmDssmMkylIZwj4ZpMeHVD7NP8MJ/Y5hM3TfTefdGTFRXU/H5WUMCRDRheMOb9DfdlwXT/+kLrCgx8LwlbnnIENGzNmMvBLSlfytk5NepuechgVdbQVhUKNd3nYTGYvyzsUYsDkRAzRhRrig3EqYptyWIGZ4AAWX9KwAhoYJyFkBVQmNeQ1eZFudqBLRbJ0MBLL8n6ywIlxYFf2lphO1mva/I8qxcMqQZ4XHJMtu3UEQ0sIN9s7BZ6h4BCBTEpt5FAtSgE9MwhO7vSgUyf0jC+i0ZyDyVC7lCpfPRqKjHUV4gqJQliRhM2ezNkA4hBsNIaluzMV8RCb5CcE1SjyXEnM/OYA43bwZTHetKSH45QeaamJyZ3FzvMQuPHerUfl85OxjbmBagSMf8kU/gvV30lSPxkvXth4iIYJ1geVF6uTssm4ZvdGkaY7OQGTmVa/tgEs9G566LWBtfRWmamUdrWkYuGruxVeiiOLhY5gmokP72tGrR6TYan/2wGjP76v/eK5A0KhXp58yn1Owh9Bf7NXFSVlUTv6kC1uwMHCRD085lBzGSzXAgApU0db1FcN5KED/7swaiI9hJjuh8B7JX3xSaGKldotBUP1tdfB8eZjWmtll4GkPN3nGM+Sjsna9F6ctpLY0QUILgbre6eHEkGRuOOujggxb/dRNmZWl2K9fMbnRzKPLJqazzZHV0M+DoNhebn7PwOFIboBFLgDD4pS92Ro4jGaZvS0j17BwZmZmRWd+/UZCGV6clQxFcPROmKCxwrELQUKt2Fq9p0+C0eLCmfmqn1R2roI5vDft49OvooBsmvF/fWaii7SH5Qg+EvkNzRtNsiB4x2TNafEyrk2129aC1PrSiNuMobRYd6oY9Q2kKnmadaNsUcml0kxuhxXFa9dyizmsPWqn8ZCzePZKB7KVPYMT1KRjdUwLFqQxs+DoNqrHfY3XnBRjxRiayf1iM96LHI/be0YjvRpSup+O9KStwWL9HR2uEqreR5GL97EdwWDd9X3PdNQPr59asM7IJZDfERtM0+AESjkyaCqdpcAN9NvM5KbTIENZi0ezYPbTinC/rCbDw6DMjkUn7oXp69BaUwlaIzfXvxt57S6im3aDamP81fSGmuWH9XrJl7c3kAnoAA2nNTYuKTo05Ea+tQ9LFiZizJgPpyxYgXbjfVoaEWd8j6W1aY0MbNhOTp2L50VTMn5KO0V/Fk/BQd66yAHs2p1bvR7uFlIL2jaUhW+++BKOrhzO3hG38jb7xNdsdDtO7da4Cz9KGT2svRe22C1rLk9DIbRfW5ulq4c28FkOOlG9+w6bi+k6HYupCHy8FxP5S9Au8OVUgvi0GS0Z2h5+rUWqB8qhooVsufSSkNMK6IN3iPke7FLQz/DQt2KMV7rJw2S3rfxQF1E0MqJ5mdxzTtVg5RYMXjwD3TBfhdxJ56y4tlk7U4PXjFP8Fij/F2vjW5eaqoU0LT1UBFn28AUm0SMqiq8sgZEzvC6lFgTkQE2gZAqrdGkTPolXM7d3wXYoIj+uvBjBjkmIHvY9nTnXcTakiDOctRGaIGX5sWngMx+G7TMDJCWjx9csaTPqN3q8zQYQDc9wsG8LSlovXqbez9BwwfK4Im8Zyb6exDYFntRpLjuM5MQE3PP06vWeZejo531ThTRp2WXLtXUnv8iHRCbiHXpfKomMJMqNhWHiMouEHLk3gNhKPBbSuhzZ6Lp2v0TmaTV3CEGvaN7R2h4Znn77lTvH4agoBHmo1hR7HdXoCKto4Kmx/kJCvRmLq/cllNNspvEDMm3o8Tdzn5fTQbFAAFh4bQOQkmAATsI4AD7Ws48WhmQATsAEBFh4bQOQkmAATsI4AC491vDg0E2ACNiDAwmMDiJwEE2AC1hHgvVo1vHKKa17Gax0/Ds0EmEAjCHCPpxHQOAoTYAJNI8DC0zR+HJsJMIFGEGDhaQQ0jsIEmEDTCLCPxwJ+JafF+HqjB45cckdFzRtCPO9QYenUGxBbEJ+DMAEmUJ8AC4+ZFqHO9ELi38TIFpbLe2rRwas6gjiEdyabQcePmYBRAiw8RtEID0RIXVMtOt0fLUPSrAp0MLWfx2Ra/JAJMIFaAlYJj7pEjuMXCnGxjMYbEh907ihFZJC36w43NCLk6N6tq8GIR1l0+GvDBGxFwDLhKS1A0sZ0LD8mh7KqftZ+0u6Y+dj9SOxO23Zd8Ko9uM3XEV896oK8uUitg4B54aEXdK/4949Ykie8OyAQw/r3Qmx7cqmWyZFx5CS2Fp7FojVyXEl8CnO78TikdTQbLiUTaBoBs8KTt3c3lgui49MVi6Y/grF6b+WfeF80kpK+xaJzcqxLP4GpUyL5fctNqw+OzQRaBQEz63jKsDO7AGpCERbTv57o6Oh4BGLigFCdj0ddcBmnGwzDWgVBLiQTYAJWEzDT4/HGxGeeRVwJnWXjbeTsCI+a4ZUZCbPaMkeIcN0NJdTZA70eU8yjSEeoEbbBRQiYER4qpcQbofQxfKmRUdMj8gvthCiXEh83XNreBkcE4emkQYS/YQJ8lwkwAesJmBceE2kqs/dg4R/0Mlp3GnLdF+YaB/mVi5CdI8KRXZ74klYrl3hWYfIsNSK4x2OiJfAjJmAdgUYLj/LsbiR+cxx5VSLEDB2KmV1c5Jv5pwQz/tYGwksyfLvcwN8XlGE0nWnOFxNgArYj0IjBkQZ5f+zA2C+PILNChMjBw5EUL3WdRYShN/D0ozdwd7AWJRfa4OP3vfDfAt4eYbsmxykxAcDKUybIp7PtP5i5swBKOudj2PBHsGSwa4jOLS8Co1XLaYt88L/b3eEbo0LKEhU6cYthAkzAJgQs7/FUKrHpm+8wNZ1ExysYM/7fU1juIqJjkCRtk0h4tgJ30wiy5JgH9hUbDMU3mQATaAQBy3w8lXKkrPsRc0+UQdy+F5Y8G49R7V3Ep2MKmrQKumJq3KAWdqfzxQSYgE0IWCA8Zdj6fY3ohPTF6sRBiPWxSd6On0gr0FbHrwS20BUJmB1q5e3ZhrnClLmwZWJyKxIdV6xtLhMTcBACpns8leexPD2PHMnCpcTa5A1Ya8xwd288+thwTAwyFoDvMwEmwASqCZgRnlIUltegKpUjk3ZOGL/80K82rPFATvukgn08Tlt3bLjjETAtPJJIrH4v0vGsbjaLqhAaTJldcMeRP90xuRPvgm029JyRSxOwch2P67K4ZR1PTVEvpfpi7DKRbuvE3QM16O5fvYrZs0cFXn2k5s3vrouFS8YE7EKAhacGqzHhoY1o+GO9F95LaYNsvbU84nvLsfttteus2LZL8+JEmYBhAiw8ZoWnFhyt5aHXZFToXpNBF5044evFe7gMNyu+ywRMEzDt4zEdt5U9pXfytKVPKys1F5cJ2IOA2XU89siU02QCTKB1E2Dhad31z6VnAi1CgIWnRbBzpkygdRNg4Wnd9c+lZwItQoCFp0Wwc6ZMoHUT4Fmtmvr3UZ6BRCKBVNqhdbcILj0TaAYC3ONpBsicBRNgAvUJsPBwi2ACTKDZCbDwNDtyzpAJMAEWHkdsA5USvDcqCA881BGvbubXIDpiFbFNTSPAzuWm8bNTbBGO/94G6Qo6yHVsMxytUyRGWoY7ZLTxNSLATkVq5ckWXz2PvZevQUHvdZJ4+6J3SDeE+7ber59VJVeXyHH8QiEuquh1EJ4+6NxRisggb96/ZPMv1Q2MmFWKEJUWEdH2fwdQQYo/xrzojjkHVHi3L298tWV1qi7vx9wtP+PL/BKo6iXsgXDZ/Vg0/GEMa4XHY1smPCV5SNr8G5Yfk0PZ4Hvg174rpo6Mx4zexs5Xt2U1tpK0PCow/m36NEtx3XA404O+FPYXuGYpjiNlcnUPnk7+AVtJcfwDw/F8dAR6ewHF8nP4MSsT+3K34+m1Jfg6cSyG0f3WdJkXHtV5LFy1BesK6X0QvlKMiumOfoG0R7tMjow/T2Lr5fNY8tUGXPl/47GwJ/sjHKHxqIo8kFvkhsAOlQjuYK4H0waZmYKrryWERw3FuSvIV6khCegMWbAr7f0vx8YdP1eLTqeHsWP8Awiv+7YNxEv9I/DsmmR8W7IfHxy+H8MGdXSEptNsNph1Lh/fsbtadNpHYu1LT2LJ8P6YeE80Jsbfh+UvjsHcbiQ2VUqk7DyOwmYz29UyckPGG8EIlHZq8LkNY9aY+m1og8Xxt1GcILx30A2KXX6YcJfwdzAiI4IQQul1j2+H5BwDfqJKb0yVCflJ8e4R4lnpgcVDhLj6NtyGCSlmm4j1lVFwCIufG4fugT0QKBtItg5B9xD6d89xeGHlUZBry/aX8LJISz62yrniNH48L7yE3BfjYu/XE52aDPxjMLmnr+6PP/IvNRiGNTBiy3x0l0ZR3fTDAx+dtpWFLZqOqVZNglKIn0/IyUAR4u6/+9bztNwDMXFAKJacOw91YRFO04+m1A7ttEUJNVPmAZ0r0S/mZu8kP5PeeEi9FsGdZvK64Q4FfVNztwUg4X1vKGJVmLlAA4miDdJSxMjc4Y3Ex7WQZcoRK9FPqQqyaMpT5YbjOzxQAC1Cwishq/4u1ASkeLZeyH19N14dPhmLj6gRcHs8Zk7vD1kgkJ+9G6lf78byGU8hW7UR21/pYbLYFj889yUeiJiP9PoOFqPRJYMXkGP/OciMhrDwgWc0Vv7Pm3jrejm82hv+mnnV3Ba7GX5el1NlMeRFSp0gyy0sh4VWtlgw0yV2l2L2C1MxtVRN52oZ8eHUCo2nJ1qhj8xGFUdO5OlF2D69NjkPJCUEY+oWc8mTULWhMJXuWP++F+I/LET69ArU6su7z/nhgVg/pJ/2RtK2YsSO1BtOeagwbxN9hJ5PSDskKTQYv/KK3Z3LBWuXYTmJDnpMxoaMdxHftraMs/DqvZMR8Vw60j/8F9Kmf4SEekJpjoWR55KOiLh3UHVvx0iQerfDO8JW7haJjy+60cfgRUdH/ZxbQo88ENO5W12dGQzrgjdNC49QYA8x/PyNjL3paON1e/NAzQhhEWGI5N5OyzWR2OtI0hMdnSG3l2H8vSQ8W8iBfJSqemTLn9EjuWsyPlsRD0VwvJ7oVGMLfnw4Bs5IR5riKDJpRJFwuw1wBg/HZ78Mt0FCtkyiEvt+/wGfCIMJ33546Q4j4lSbZedBmPAs9XZofZfsdtf4eTcvPPq8K9XIk5dBrS7FRRqXbsrIwqZ8Dfy6342lQ4VzYPhqKQIxw8txaw1oEBIq9HLcoSox4OdpAWMD+g9HYn8jGbftiBChl3NdDfl1I2Gc/nYl/tibhHF7ya/j0REvjXgEw8z17PqOw2dfjHP6kusXwDrhKTyCxM8O4kxNj13sG4yJjw7C7HuC4edSWJyvMCEdat9CX992SW0NVzqG8OisU5xG2tpUpP5+DMcvXoGKhEZVqdJ98l1WcISCl2Dn9i/x7P7zuOzRDs+P+B8sktlqYOdcbdY64fH0Rb+wUHRUq3FFfg1nSgqw7qctOFM4iBZC9UKodak5FylHt9ZJ2KuOfI4xI99BWh4BbStFzF3RkMn8IPGQwMvjCvbkpSPbnEPd0evCkH2qS/jXpiTMPUMLCb164K3HJ+F/u7ZO0RHwWNdcaUp90ZSbJ4sWXsjCktTdSNmzDWPpzKlNE3tBagg632MCAoHK01g87UOd6AQPfR2pybMQqz9rVpmOqZtJeGw5n573DcYM+RSZlopZzIvYnjqu6bNa+jVekoO5336JTwor4R80EF+PebxVrlbWR9Ikd7C0SzQWTb4HsSRfhdn7sPoCf7+YgAkC59Lx01GaivC4HYkfNhAdIVoRLSZ0taFWcSZmrK0WnW49H8eOiSw6QlWb7vGoCrE16xLySjwROzgSkZ4GGpU/LVYjR3vGVSUNuahRdTEyA2YgKt9yMAKW9goaazYtOFIIeZBTVRZ6ayK5KT9Wr7cx3SpvjWjqTug4bDjVQo7Z8tPU0/kO/6bRQPjtk7BlRDSCGvNTrziE5W//oBuCSiS3Y8Lb4xBjziFtiokDPDONQVOIlE27sWjbHqw9Y9h5iQolCZNQEhH86jyZDlAyNsFCAlUIEHakV4po64Sdt7wE02pqQVQqTyHjgLAI4+al2LsMUz+9gBDd0IsESl7/eb3ATvFHCTb+nIxPrtLwKvRhJDdWdKisqoxv8O6yL7GcPusL/CFzctERqs/0b4tPGEb13oOdx9RI+SkdccFDMYxWmdZdVWXYmXYQW4XlIZJQxAnbJ/iykoAHUl8PxHpat3LzckNuZvVfh1e0w5gtevut2qox/wslYkzXnOU20IbU+CFVWHzaHWkvdsTALWr0o3l5FR3XnF8gQq68Ap9lyBFvi/xCEzB+6IdI33wRSVOeAmY8jpi2SuQe2I71my9g4IpVmPP1U3hhSyF+WvoJLWochIEjByGibpGh5cVq8ZD5v+KDk7pfZEhKszB7XZZxkzwj8NaTD+BuI92AzN8PoUDoKVJvJ3H2cLjCm0vMNCcxRo24Dzv/2oZNV09i5pI8xPQMRZSwoFCtxLGzecgsFnpCYsQNG4RRPsbZ8hNjBEhkMsRI3WX4ecERT6QKe6lqr+AqJNK/YwwHb8TdKiR8eA0fXw/AuykeyPjBCxk1qUiCNYgZQmuBGpGq4ShSJK5YhlzVfCzedghJbx7SBZN0G4TEzzfi46c7QxX6HNYfWIaMbdQDyjiMz7KcVHiuK1FQs+zkspymz4XFgsYuz3Z4qXq5lYEQF7Hn92rnaQBtNXmhr4EgTnjLTautMrd9mZYf5GHdVnIeZxUgr97iVxFCu4ThmXhqOE7+WoyLF/fxKRPXaVd7Hi029Kiine1VCA6w3451Vd5pZBfQxqO2QYgIl9bfMkALVRVFtGO9gzDN7oTfKluaXPQNRsheQ5qqJ+b8sgUfD3ENH6plwlMHUoPCwmsoLKdeThsxpO0DITXkcLYl+GZKi4WnmUBzNlYRUG1+DbLR30Bx77s4nj7ZttP8Vlli28BW/p6I6NwpKa/VsW0dcGpMwCiBTHotTQF94xJfedxlREcorBF3llEO/IAJMIFmI3Aa6RlXIOn7LOYMd61NSVb2eJqNOGfEBJgAvWgm/vVlNKFDDnYX+6Za6eNx3bbAPh7XrVsumeMR4KGW49UJW8QEXJ4AC4/LVzEXkAk4HgEWHserE7aICbg8ARYel69iLiATcDwCLDyOVydsERNweQIuNknX+Pq6XEDL8yUSVGlca71E44lwTCZgPwLc47EfW06ZCTABIwRYeIyA4dtMgAnYjwALj/3YcspMgAkYIcDCYwRMi96mc8z/OdkHT4zzwd9/caBjaWwA5dT6WVSukfT+nT9tkBon4awE2LnskDXnhpP7RNhF7+oVjxSEx/wrk5pUjGse2H7QDV3uuYGedvatqy7sw65fT6BjN1seJdGk0jdLZGXxWRy9WgQ6aAJisR86tw9DVFvh/OnWebHwOGS9V+HBKTcQpNaiZ7idRYfKf2WzGFPmu2H6zzfwtyiHBOK0RimLdmJxxkZ8W0Qn8NYrRRt0DonDGwMfxcN+rU+AmiA8GijlpVDSS+rEPn6QusALqB2mdXtoMPr1coxuJoOystzpS2F/gWum4jhMNurCNEzfuhF7bgDSwBg81i0cYfQ9USrP4Ocz+3E4fxumpxVj5aOJeLiVne3XaOHJO7AFo1LPQ0nVHDPsGaTE2bmP7jDNyfENUV9zx4VrbvBvp0HHdubsFSHraDMM50yYob52HheuqCBu1xVdOrrKL1gRvt2XphOdzl0TsSFuAKR1HtU4TIuKxst0sujG8v1YlZOAh2Ns92ZrE6gd5lHjnMt0hvrctGrRcZiSOLkhBxe1Re8ovwYfXyR+Y6qKRFj5hC/FaYt//gEU7xdjxsO+6EV/33uvD+6g9AY84YXUeidY1ICqbIPZA4T8fLD0GN2rdMfKMbfmP2Oz/ZzbxadT8Pdxd6BXnztw75ABGNCnK+54eCrWHCLnlq0v4ZQGSz62yrf0KLZeJdVx74xn7tQXnZoMfAbgyc7euj+OyQsaDMMaGJH+KgZEdaG66oUnVpywlYUtmo71PZ7KQqz4bi+dREDnXksLkVnYova7TOb+t1UhOvrmcOdylginqNeiMnKcWV3Bb7ihmLqdF371woRP26C4fyWmvFIFsdId2zd7IGt3G7zyLJ2z+N9y9K/3nnAtukRoEK0mR/Zud1yhBIN6aNClwVEyXcz2mBpZBcpNmDt+LXa1G4kpsybRK68KkPXLd/jpjxTMnXQZ2LgZz/ZoZNr60S6uwhP3vopdFh7TJR7wLn7fOAtdmpq1TxzWjx+AQnUl/Iwdz+NW/fXz82hD57SYuCoVKL5WDN1/FpbDRGoO8chK4dHg+LZtWJ7ngWGj6Yyt7GQWHhtVY8/JZfh+cm1i7kie0Baz080lTkIl+CUr3bDhUw8MXlCKDZM1dY34bxPFeOIRMXada4PkX1Xo/5CeH8ejEi9/SR+h59PHC8nkrBv9j9Jmcy5fSVuLgyNX479LR6JjbSt8aRL++eRQfLD/Nyz9ZDPGLxtp+gtpDo/wXByMnvfcV93bsSR8j+D6J15YEsdYmDbekBrzG1/fje8uCI4KPwyX9TaWgsvet0p41Kd245Vdcvj1GYqFd/khI9tluThfwfpXYKme6OgKEH4Do+8m4SEBy8qhIdtD5rpPzVhsjwGY/rqe6AhZi+/A9P8ZiZWHU3Dlt1+olzISD5jsClhgb8eRWPTNSAsC2jkInbh7sZwmY1RXcTr/ML7L2Y09qjboF5WIOZ2NqVONTZ3uw2g6hbm40gtdwl3hOD9zJ4nq10XpeSz8IQtn/COx+rFeNNByoEZs5zbjDMlHx1ei4y2GViEoROjl0JCt1H6+mluyteCGOPx+DO58a0Bx37sRLUqhNUxHkHUReMAWw61bs2n2O4WnVmLo/rN1vhz5g74cAAAgAElEQVRpuwH4+31jMek2CyZloiZh0dJJzW6zPTM05bnUy7cMWzemI6U4EIlP3oc4V5l4sCfZZk47qJ3hw/fEtX1awbHqSFeX3ob9KNKu0E1saYpxmVw9rnKJ24ZhSEg4BnYIgdDBKby2H+//thJv5Vw07Vh2FQANymHRUKvwUDrmZqkRM/QRzObz0R2zKTjZsfX+3mIj/hsJJMLwqlQFtYs4UoUG49f1CazsWtN0qspwOncj3tq7E19lLMFFzev4Iqp1TaebF56rRzD7P+cBOt/6gzipkcbimN9FtspxCaiNjtRVUOkER0JbC2xgf/5XSBzzMbIs7fHd/iq+/2KS4d6YDczRJeHujR5hT2MlzVI9+FsmdvyZhh3hiRjiZD8eTcFheqhVVYgkYepc1BVzn+yLMNOhm2IHx21lBFRXCnRT+Ldc1+g+HakOURCCgm556jQ31MVHsfHYNlocmKNbZGvo8pOGoafwnarIx+lSQyFc957JHk/ent+w5IIGfl3EuLh3N5Y04HCmpuXknTqEJeV0iHrHXph5J/eKnLa5WNorsEEB1Ud+w4HSSRjhUz8x9ZEDOCn0htqFI9qA89nqrEMmIWlPCzhmFfvw3v79KGxzOzp2DcejBrZEqK/n46LgmnP3gR99fYxeyv1Ys/g7HRcJzfyNfn0Som3RGzSaof0fmBQeZYla5/hSXziJFReMG1N49jhWnKXZ0N6BmMrCYxyUQz7Rwt+fDKNtFllH6ee3j2Entc1Nv7YZK5P+xIMv3nFz+F55HslfbMQVEsCOQ0disBN/ucShgzDcZz++ohXMi3fvRtT9g9BDf9ZclYPPDu0HTdxB3P52DDQxYaM+uBZLv/iqmssT6/CyE3OpbUcmhSds8HBs6mvsZ1CDnZs2YMk5IGzgcCzt7wuxxI+WQ/FlHQF3/PSOBKm5+rHccOFo9d9Za7yQuF1v4Z+PBi8vVSPaZM1ZYQFtSB08UIuVuW7YPs8Hj2yn1cw0L6+mrv/lQtrzpdBg0X/KMdhW+dWY1uWhkZD86xE8cnQSRt/fC/6VV5C1+XMk76btEh0fwt9mPuTc/kRROObExuHQjp04dvErPLJhB81qdUFnzzZQl1/Anr/O4jTtqECb7phzTxxMde6y9u3TiY6wzmk8rXMSfiec/TLZnMS+gYj0NVZEDU7XdB/9fDsgMoQlxxgp0/dJZA564Kf9hkNdOSbCT8JeqtqLRGG84aCNvKvFA2+W460yCf652R0Ht3jgYE1K4o5aRA+itUCNTNlQNLVKcOAA/lEvYsXMPlj4xkf4++bavVkSdOwzFq/8YzHGywzFdq57fp2fRnJCF+rZbMOPBRfx81mhf1NzifzQr+tgvNA/AUNMvhbjPA7spckduvzjp2GKi7y2pAlnp2uw6av/w2xavewKu9MPHsjWnTIhlXZwrtZtS2tLqYeT7wa1iIZf7bXo6KfX07JlPg3SKr54gnbTqyGh3ek9O7vC77kBWJoyXCy+CqXgv/LwQmf/DvCzZLLm2leYMGAWtqt7Y/o3v+GtQSbGZAayddRbJns8jmo022UnAj5V6NLDTmmbSNa/c2/bOJJN5NHij0Te6Nyueje6NbaoDx4ALaGD+O5peNZFREcofxOER4RRk2ZilDUUOSwTYAJWEcja/SstOwjC+OeetO/aIqusanpgSzp7Tc+FU2ACTKARBE5g16HLEEc9h+nxrjUEbUKPpxEcOQoTYAJWEAjA4JmrES27Dz1d7JvqYsWxok45KBNweAJB6D/cAV7pYQdOPNSyA1ROkgkwAdMEWHhM8+GnTIAJ2IEAC48doHKSTIAJmCbAwmOaDz9lAkzADgRYeOwAlZNkAkzANAGe1arhI/Gqgo+PG4KCjW5OM02SnzIBJmAxAe7xWIyKAzIBJmArAiw8tiLJ6TABJmAxARYei1FxQCbABGxFgIXHViQ5HSbABCwmwMJjMSoOyASYgK0IsPDYiiSnwwSYgMUEzE+nV6lRKK9+6bupVMW+fpCaelO+qcj8jAkwgVZFwLzwXNiHsf/KQp4ZLLEjnsXawda/Yc1MsvyYCTABFyRgXnjK1dUHkvlIMSxcavQUiR63taJjEF2wIXCRmEBzEjArPOqKmmGWtBcWPtEX0ua0jvNiAkzAJQmYdS4rS6uFR+zlbbS345JkuFBMgAnYjYB54VEJ53HQW+4lYuc+YM1uCDlhJsAErCVgfqhFPh7h8vMSzk1VI+9CAY5dLaV/VZ9B1S/UjwXJWuocngm0cgJmhae4RnjUfx3EMx/kIaO4ugdUy00cGIrEkUMwO4JPEm3lbYmLzwQsJmBGeDRQqqrPTi88dx5qaVdMjA9FVIAIakURdmadwM7CPKxYtwF5Tz6FJX14Ot1i8hyQCbRiAmaEB+jYPRITvTUQd+yJqYND681qTRxyJ1K+2YC5x8qw6ad9GBUxBHG8iLAVNycuOhOwjIAZ4REhZuB9iDGWlocfxo7sj00nfkNGyRlszSXh6W0sMN9nAkyACVQTMDurZRaUrxSRukMOaWuFstoRbTYOB2ACTKBVE2i68KAS6gqBoQhiTzMdqFaNmgvPBJhALQHTwlN8HLOXrEG/t77DistGoOWdR0YpPXNvh368bcIIJL7NBJiAPgHTwuMfgigx7dWqKMTqH/fhuKoBvOLzWJiahTNVtM4nLAKjeD8Fty4mwAQsIOCm1VZpTYVT5x3ExKR9yBRExycQcb1CEeZDHp3iQuw8UYA8YZjl3x1Lnh+OUYGmUnLsZ0ePHqNTJnwgk3VzbEPZOibgAgTMCo9QRnXhSSzfchDrTsihpN5N3eXph9g+fTF7aDRinPxUGBYeF2jNXASnIWCR8NSVppK2TFxVolBN63q8/BDW3hti04M1pwHBwuM0VcWGugAB66ahPMQIDZIi1AUKzkVgAkyg5Qi4SH+l5QByzkyACVhPgIXHemYcgwkwgSYSYOFpIkCOzgSYgPUEWHisZ8YxmAATaCIBFp4mAuToTIAJWE+Ahcd6ZhyDCTCBJhJg4WkiQI7OBJiA9QSsW8djffpOE8PvYi4kEgm0pQqnsZkNZQLOSoB7PM5ac2w3E3BiAiw8Tlx5bDoTcFYCLDzOWnNsNxNwYgIsPE5ceWy6ixJQH8CC6c/jwelLkVrkmmVk4XHNerWuVHJfpO0MQHaJddE4tJ0IaIqQffgA0g/kIF/3WmHXu1h4XK9OrS5RwS8heOLlTki+xM3BangcoVEErJ5OV9IBfocLlPQ6VA/4tZeiX5dA+HF7bRR8x4jkjsM5EqhQ/4RYx7DNtaxQlVxFPvUqA9u3R4BwIngrviwWHvXVk1jy/W6sO1dGB9ncvMT+dITx40MxuzefImqPdqSSS5CvcAN8KxESeAMSkalc3KG4LEZ+GSAJqIAs0BIx8UJmtpCoJWFN5d3UZ7W2axEYcAPBFtkOCHxyiU9ggJri6L8es6n2GIpfAcVfhcinY1Ukvp0g62Dd6ZWZq57DoK+AOV9twEd3GErfxD1NBQouXYJc44mQ2zo5vXBZJjxyOm3iXzuwldRaGtoLY6OD0dlDjWM52Ug5JRxh/B9Inh+DGaEmvxUmqPKj7DXheGCNGCFjcnHoJSVUOR3x2kfBSNovot5IzeWtxPd7zmB0Q8xlPkheFYLFP/oiU88ZGSArxYRJ+XjniRIENESsCcS0hC7YUE5fXiU9pAa9eEo0ltdrEVokzD+GdQ81EKX93RD1qj/ksiL89MUlxDS053IwHhkXhD24js82ncH4eq/F9UTSy+F47XAVJryfjWWDtcj9JRSzPglE2oWbXWdJbD7Ofl6A4Dq7vbA4sSfeO3UDc1aewEx1EF74UIrUYzf5yAbI8c78Cxgvs7EAFf2JxcuXY8XWA8jV84MFdLmL+L6Cd54Kv5VvQ96N/vsq0tcswWtrtiBTXtsOOiHhqVew7KV4yBqyb5BPxifjMWLDJbrbAYn/JMHr12hDbBrRAuFRIuWH33SiE9pnKFKe7AVpTfsYOzAacd8lY2omnUKRfgITJ0XCz6bmtZ7EZDI1/Xp7kVPRB7kXJHhteifdjIakww3EBNH7+NVu1PMxwKPEDwtekOG9w+6Q3FaOxKnF6EunfSjOkxht9sXyv3fHntwL2P6avMGXQ4NuvdTopxbh+H5PFKAKIWSDjF7kf/OqguwWxaKnGjfIle4oUFJPzNBFz1Ul1IOBoeeViOxSBcX2Nkg/5IOCyvZ48PUA5JK2BXShXhqJlKpEBLmhoUilCAoSyXMZoRixKhCKPkrMfJ56gSUSpP1Cors/EFNfIptTLiDWUHxDtpq7V3aA6mIWFudUIKDHYMx8qg+6USMvOLsfqVsOYPm7zyNb/W/8d5LMXEqNep7z5Rws2FyCfsOewTud/Kheq/NNW/MGcss+xu75g02LXkUJFHL68or8oKpslAl2iWReePKysPoMtQqf7pg78qboVFsjRtzw4VgeVYkeoSEsOk2oIknXCkTQlyUj1wdLlnsjFeWY98/zmPdAOSRG0xUh4/86V4vOHYXY/n95iNXrXcwZG4JHpgQjfX0nLLhfiWUD9HouIiXmLaOP0PMZ0g1JykqMX3AS74TbuLdwi+1ViCCBkaANcnPaY8H2AMij5Fi34BLGh9+4JfTNGyS+QmvViLB+VQDiZ5/G9qdK69i8Q2V9cAKV9UIgvsi4hNg42wwdCzavxnISHXR5Et+v/xvi6zwKiZhz54uIXLiLeiRrkfbUm0iwldjVFpqm1ZO23IF5q77GvKjaYR3lGzcPg+ZsQfaPZNuEwZhnH80zURdNf2TWLXzm2HnduVnSXpGIq/drWJO5bzCGRdGRN/5m+nxNt9W1U+hQgRChhDS1vXznDcz75BTeMSk6FLYsAMs3U4MU3UDiS/n1REdIStLjMt4ZQ18aTRus3xBwc8jWwiQDgqmXQjaodgUgSaPAus/OmRGdBgb3uYLVeqKje9rjKp4WhhEacpafNi7V1hZdcvtTWDb/FXw0+yk90alOJfiBeAwUxLAkB5kXDaQsaF/dR29evFKoE71nBqLW3goZPhNz6kSnNt+pmBJO9a7OoWUQwjDK+BUcFY/EkcMxfmQ8Yh3o3DszPR41Dl+qHlhGyYIhJlqFF85g51k5LpJvwN8/EP0iwhATyKJjvOotfOJdVec4Dn6oAPPusOAXO8cHGYJ/xq8Uw/sYCl+F2AGlCF5DQ6mjPsjUXEWsI1SVNzmQyQ6FpgoJ0y4hwcrz2GIGF+v5fmr5kvM9WGBAPp9Ss7+nFlYKDf+EL26UkeDeHRAidETK1FCQQ1//Sn93KB789qrBiIsn34PF9Z74InHlr1g1uGFwX8TG9jHQ45XRsVKkIscuIfvUCfpB6WQgTHVasoRXsCqhYbot/7dp4alS4qLOryCG1LMQK1Ztw5KzDQj/tBux9w3FkmGhcCBBbXmyjbFAJwpViI9TGm1I+smqCjyRL3zX1N5Y8kYYkg3UpkopTJXTVeRJPgHc0itqjJlNj1MznBOX4/HB1q+QCwk0HKduxo98TDa9SnKRtjkNPxw6geMFRVCR0KholkmlUelmEA1dgd0HICGu/opMOfmFMi4Asn4DEFHPGeqLcEPiK+qEiFDDM2ch0vbURi5BVVREvjQYEGJDVjnOPQNNVd84Or5Y12orkbH1Z2yqkiLx0Xg8KvODWK3E4T8OYsneAmTs/A9miMcgJY6lp8lVK6qELNjk4a51Wagqan7ZyzyRvt1wA71pjzvKhXUQjnTwou8NWiLQCGLN2GtT5azFEy8sRdplstO7PWJuj4As1Jd6p2J4iYqw5/IuZBtw2saMfw//GV+/bBlLxuim00fP+dSy6XQPT0iMrFKReNc4lDRq8gY632VGeDRQ636cNMir7IolM+mYYv/aQgYirEtX9PPfgFFbCpD560FsvWc4htlueO18NG1kscRCJ6XEs6bnILuK3T/QTE4zfiFtUlRPrUU9O5vk1ZhENLlYvHC5TnSCY2diwz8SEasvlJpdmPYrCY8w3LXXpb9oTi8PlbrmgacvvOyVtx3TNTMYFsGvRprC7uyvJzo3LQq7h6bUhR9bFfV8DDnY7Gh8a09aEkrTz4LYCMMoIw20RRgpRcg30AtoEVuakumlXUg7TcM6UTgSZzcQHSFdeZHRoVZTsq2LW3kV5woNp5RfcFU3hJYEdjA9nW44eovfNS087n7oWNM17+hj5GfYg3o+ul5QGQqvG3JwtngZXdeAHiUYKPwCl3kjLaON4XLKyamca24YVhPV0uoTa6p/ZRVtkG8g19zDbXXrcpz+KlFCIQioRwd0C7q1NLm/bEG6PQVfU4jDf+bemjFykXlUUCRPRITLTPcac36khagfYNaipXgt+YDOH+QIl2nhgQ8ig6oHmRflRrxotIFCqfP1iSC2sH07QsFdwgbvYkx5jNbE0NqW1M86Ia3hKxQ0EiR/IMOdo6Jw52fGnDsaBAiPNB60dcLCCuxEPS2hJ0yituVQg/HdX1IsWG/kR8rZoHeQIkQoZ2Uu9h6r79BW/JmEaev/qvFRkUBVfwlMllAS2AkxPTsh2ELMQAUyUlbf8moMRca3+EKwxzsco+M6mcwzc+taLP7qOyxP/hHZnt0dpndkxscjounyUPgdOom87GxkDAtGbENohZdwWHDeu7dDVLCzORlM1pkTPKTp8mkXMe+wDAsOB+KJCRJMGFmMe8g5rSjwwo5f/JCWSyuae9BWggn1Z1jqCicqxRBaWLj4gghpH/TCoF20SrYDjZzL3JEvDOGUpVi2/gLi9as2SIGnY4OQvrMNlr/aC/LHlIgJroLqEi18TGuLwAlFSFjVEam0pqbcmYdcQQ9QOZdTOS8hacFzwLgE9PUqwbljv2M93Rs4fzFmpz2HWbuu4qevVtEizAEYGHcXIow4hGOe/RSHnrWgWdWu8RHfgfG3/4mJE55H4ugH0DfIE4qzu/DF9+nIpi0uEU/MxMwuptK7hPTDNet8ugzH7IT2pgI36zMzwkMT6RF9MTHoJFZcPo6F/+mKdY91r9sygYpCJG3KwnHycYq7R2CY45SrWSG2aGa0f2veytOQ/V8I3qO9Wkn/8kJSrUG0qTR+PC0i/J+C+k7RegZrkDD7HD4qoxXQWz2RQSuJM2qe67ZrDKhZ2FgvjgqJtCfqXGUnLN5Fvao19BGe+1Zg9LRcrB4vwmvr6W/SOpXhme8WRWZ55u2pnO/hnPofWJzxJ5I++1MXVXLbXUh869/4KKETVEHPIPlYEjIyqAf0x59Y1te48FicLzmOdZPJog60V+49jF79Nl774gMsrx10eNNeran/i2Uv3GV6mCU/gB3CqmsaksU+9cwtCyAttscOAd202iqzc7fq/IOY+vk+ZBANv6CuGNaTXoUhTKefPI/MYpJnn1AsnPYoCZQdLGymJC9soY2udMqEVEo/98560ZCr4BLtZqd9UvC+QVsTVGZ2szcoKE3L515uA5VIg0ASrWBf844aVRHtL7tMv1/CMgBZudPvmjZW9arLucguIoeOtxQRMmENjd5Fa3oUcjU5eoVpdmMpNPG++iqycwtJkGgjcRcZgo30qvRzUe18G91f/hEFgcPx/SYSMGOj7Saa1pjoFgmPkLD6Mr0W46d9SDlD7+Kp3c7jLkZYzwjMHnkP9XbsRbwxxbI+jksIj/XF5hguTEC3bmhNLmKeT8ahF8IdqqRmh1q11oqDemHuFPrQOxTOFNE7eWgBlbR9IK1odqjysDFMgAnoCOTS7n/y7/gOxoxxjiU6gnUWC09dbUr8EBbKL7/g1s0EHJpA0R/IoDVIsseewQQH9B5YLzwOTZuNYwJMQEeAFj3OeOdThNxlxgHdQrhYeFoIPGfLBOxKIDAcCQ/ZNYcmJW5mAWGT0ubITIAJMAGDBFh4DGLhm0yACdiTAAuPPely2kyACRgkwMJjEAvfZAJMwJ4EWHjsSZfTZgJMwCABFh6DWPgmE2AC9iTA0+k1dJWdZdD4+KCjrJs9eXPaTIAJEAHu8XAzYAJMoNkJsPA0O3LOkAkwARYebgNMgAk0OwEWnmZHzhkyASbAwsNtgAkwgWYnYGZWSwOlvPTmi79MmudB7+fxpvej8cUEmAATME3AtPBUFWJ10gasMHwEdP2U3enAvwWPYBQf6GeaOD9lAkzAzIvA3L0RFR2JsUYOKNDxK8vH1mw5lF7iusP/mCsTYAJMwBQB0z0e+GHYsCEYZjSFMmz6KhkpNMCKG3Y34sykZjQZfsAEmECrItAk53LhoXQszFbDr+fdWHgXvw61VbUcLiwTaAKBxgtPyUks2nIeSg8pZo6IRmgTjOCoTIAJtC4CjRQeDTK27camUiBswECnPk+rdVU3l5YJOAaBxgnP5UwsyqRjDSVdMTMulKfQHaMu2Qom4DQEGiE8amzdcQTH6UzssP79McqBTid0GupsKBNo5QSsF56r2Vh9jI5y9QjGMwODWzk+Lj4TYAKNIWC18Bw/eByZ1Nvxo6OLRwU2JkuOwwSYQGsnYJ3wVBVg4x9yYiZCbJ8wWuXDFxNgAkzAegLWCc9fZ7CzmDLxCMWw3rwry3rcHIMJMAGBgFXCk3f2Es5UUazbQtGP92RxC2ICTKCRBKwQHg2O5V3TZSMN6sALBhsJnKMxASZgVY+nFHlyjY5ZaDv27nDjYQJMoPEELO/xVJWhuLw6I38f9u80HjnHZAJMwE2rrdIyBuDo0WPwoeNtZLJujIMJMAE7E7C8x2NnQzh5JsAEWg8BFp7WU9dcUibgMARYeBymKtgQJtB6CLDwtJ665pIyAYchwMLjMFXBhjCB1kOAhaf11DWXlAk4DAEWHoepCjaECbQeAiw8raeuuaRMwGEIsPA4TFWwIUyg9RDglcs1dX30kvC+D76YABNoDgLc42kOypwHE2AC9Qiw8HCDYAJMoNkJsPA0O3LOkAkwAT7tXL8NaERYvdATByroJpHxbKNFp54aPPbYDYT7cGNhAkzAVgRYeOqRdENRnhvOCMIDN5QogYpDIvywyx3LPlZjAIuPrdodp9PKCfCsVk0DMDirJffAkgVirD0PDHi2HP8aLbxwmi8mwASaSsCqHo+6uBCH8+QoLKODtSQ+6BwcjBipC7+NMLAST8W3wbdr3JF9yh0VqIJnU4lzfCbABARPhgXX1bNYsnE3kk4pQWeI1rv8Qnph9mP3YWIX1xQgv5rhlVrjZgEoDsIEmIAlBMwLT8lJzF61DZtofZ20WySmDuiOyEARUCJHRuYRJGWfxMIkOZTTxmBGKN3niwkwASZghoBZ4Tn+2z6d6IhD78a6af0RVjcBH4rY6DD0WJeM2ccKsTz9BCZOiuTTRc0A58dMgAmYPd6mDIf/oqkdusIiwvREpxadN4ZFBUMYZKn/Kqo+7I+pMgEmwATMEDCzgFAMP3H18El9gxzKBi51paba7+Mp1gmQy12imkM46GifEpcrHBeICbQMATPCI0Jcn6664dOZrKPIUDU0UomtWfm6m5FR5Psxk1rD2M7wt2/PKnQn7a3I8cB/85zBYraRCTg+AQvW8ZRhZ+qPmHlADrTvionkXI4KJNdQKTmX/ziOlHNlkPYchKRJfRFp1mPkuEAMruPRmeuG/WskeDXVHerAKjw+5gbio6vQtztPrTtubbJljk7AAuERiqBGxrafMXtnHgrrraETISxmEFY8Fo0wJ1/gYlx4qsUn97+eeONfHsgRen2SSiz7Ro3BPInn6O2b7XNQAub7KKoCrFi7BUvOlsEvtBdm9OmEKH8J1KXXcDgnGymZv2HUuTwsnPwQxga55jfx6n5PLFxdLTqdemswOEYDmWsW1UGbKZvlagTM9HjU2PldMqZm0nAqaghSxkcitJ4fR4Pj2zZgbHoh1NK+2PTyIKf18xjt8cjb4NXpntheqsXwF1RYOIyHWK72JeDyND8B0+5g1RmkZJXRpHsgxsY1FB3BWBEi7+2LOGGYVXgSGy80fwHsnWNFlgi/l9JO9Z6VmMaiY2/cnH4rIWBaeErKcFHn0xGjo68RIjSN7tdGeKZGXonGSCDnva0ur9kq0YFekeG8xWDLmYBDETAtPBISHMHcKiVOXzVid6kSebTGRRAnqQ87PoxQ4ttMgAnoETAtPL5dEddFEJMybNp+BGduWUOoRubOLGQIvSL/bhgWymyZABNgAuYJmJnV8sPYUf2x9fN9yDi7G6P+eR5jo7uihz+JkUqJYydOYhOt44E7hRt5N2KdfErdPC4OwQSYgC0ImBEeGkCF9MfqF6VI2rIPa7PzsI7W8tRd7iKEdo/EzGEDMdZFX4tRUee2qtk6YQvqnAYTaOUEzAqPwEcc2BUzxtOnSo3Cq0oUltO3sY03pO39IHXpXo4bjmS50QvAAFlHLb8ErJV/Wbj4tiNgkfDUZedODmSpFFLb5e9YKdHL3n9MooWCNb0cZZ4I2/+kWS0JbZV42PVm7BwLPlvTmghYJzwuT4b2ZW31wBbdy96rr/ZdNRg3VY1n2HHu8rXPBWw+AmZWLjefIS2dU+3K5Qql283Xu3pq4Stpacs4fybgegS4x9OgTj392Jfjes2cS+RoBEyv43E0a9keJsAEXIIAC49LVCMXggk4FwEWHueqL7aWCbgEARYel6hGLgQTcC4CPKtVU19ubjc1+Nq1a85Vi2wtE3AyAtzjcbIKY3OZgCsQYOFxhVrkMjABJyPAQ62aCtMfamm19d5o72RVyuYyAccnwD0ex68jtpAJuBwBFh6Xq1IuEBNwfAIsPI5fR2whE3A5Albt1VIVXsYff17CeTlt3/Ztjz79ZOgttSoJlwPIBWICTMB6ApaphvwUPl2wAf9Iu4xi/TxEXrj78QSsWDgYvb2tz5xjMAEm0DoJmJ/VUmbjjTGf49Mz9D4saTc8Na4PBoR4oPh0Nr785jhO0CuXg+LGYPsXg9HNiRnyrJYTVx6b7nQEzArPHx+8i0Gf09k2wf2QnPoMRmGQuw4AAAMVSURBVAXfLKPq+DaMeTINv5Z54cnPFuCLBC+nA1BrMAuP01YdG+6EBEw7lzXnsHGrcKCWB4bNfKye6AhllUQOxfuTg+hf5dj0/R/1h2FOCINNZgJMoHkImBYedQFyCsgQUXvcHWP4KNE+D/ZEbwqiOnwKe9XNYzTnwgSYgHMTMC08wgF+tYf4GXNDS9sjWDjzr/QyTggixRcTYAJMwAwB08Lj44/gdpSCRomc07ccI1qddOFVFAgHMGhUKOBN3WZw82MmwAQEAqaFR9QTw+4RHMbl2PrvHThxywkvV/Hd54dwQseS1vaoGCoTYAJMwDwB08KjcyoPwf20Rqf4YBrGTEvDdwcv43LBVfyxay/envIJZhz2Rm8/ISM62a+N+Qw5BBNgAkzAmOfmJpleQ/HFZ0qMf3kX9u3chin0qb0kwZF4c/mdODF1LU6IJAgIZKBMgAkwAfMEzAsPpaFbIPjbYGzdfAj7TpdAJfZFt6hIPPpQNwQV7sSIUgokbo/wEPMZcggmwASYgEXCo8PkF4RhExIwrAGz4gOncIR8P5LeMtzB2ya4RTEBJmABATM+HuBy5mF8+XkaPs8oN5DcVXz79UndwsG7R0Q79ZYJA4XjW0yACdiJgNkeT/mfv2POB+eAriXonfoU7q/z45Rj37J1+PtBmman7RQvPtHeTiZyskyACbgaAbN7tVB2Cm88uqJmk2gnjHqoJ7r5qHAu4xg2ZZG/xzsIr696CW/GOu8+LaFSea+WqzVtLo8jEzAvPIL1Bdn48O8b8cl/6bUYdWt5PNA7tj9enDcKkyOdW3RYeBy5ibJtrkjAMuGpLXlZCU6cu0rrBL3gH9Ie3QLNjtSchhn3eJymqthQFyBgnfC4QIGNFYGFxxgZvs8EbE/A7KyW7bPkFJkAE2jtBFh4WnsL4PIzgRYgwMLTAtA5SybQ2gmw8LT2FsDlZwItQMB1pqVsCE8uV9gwNU6KCTCBhgS4x9OQCP/NBJiA3Qmw8NgdMWfABJhAQwI81KohotVWNWTDfzMBJmAnAtzjsRNYTpYJMAHjBP4/uUam+yKlsiwAAAAASUVORK5CYII=;" vertex="1" parent="1">
          <mxGeometry x="90" y="205.25" width="286" height="299" as="geometry" />
        </mxCell>
        <mxCell id="S2vyZTGgJgDLt4Bkh_SA-2" value="" style="shape=image;verticalLabelPosition=bottom;labelBackgroundColor=default;verticalAlign=top;aspect=fixed;imageAspect=0;image=data:image/png,iVBORw0KGgoAAAANSUhEUgAAApIAAAFxCAYAAADAsEjXAAAABHNCSVQICAgIfAhkiAAAIABJREFUeF7snQl8U1Xa/3+kaZbue0tboKW00gpCWQsCAk5FKiCKKIo7jqLMqo6jM/4dX2dG3/FVZ5gRR8dB3NhEHASEwQ7LAEKh0LLZQktpS3fadEm3JE3T/3OTdEly082mTctzP0aae8/ynO+5ufnlOec5Z1hLi6EFfDABJsAEmAATYAJMgAkwgR4SkPQwPSdnAkyACTABJsAEmAATYAJGAiwk+UZgAkyACTABJsAEmAAT6BUBaa9ycSbnJmDIxR8/O4gDeiD+5gfw1liFc9vL1jEBJsAEmAATYAKDkgALyUHZbV0YbdAgo7DQKCQVavofH0yACTABJsAEmAATcAABFpIOgDrgRUp8cce0qRiulyI2hL2RA94fbAATYAJMgAkwgSFKYFi/R21rGlBYr4dc4Y5Ad5chipWbxQSYABNgAkyACTCBoU+gf4Nt6vPx6nsbMPetz7D8QPnQpmvQo7SyAqWajs2kcxUVyK3rxnCzpg651yqQWVGN6m4k70uYmrpqZFLdpQ39XHFfNoLLYgJMgAkwASbABBxOoJ+GtptRmJ2ON74+hX0qh7dpgCqoxrpP/oGXK8Zg42Mx2LN5J9ZVkBCTBuC5+x7HW0GX8ZPPzOegwIyZy3EgMZL+6njokXnuIF4+ko49FRq0aVCJAvGj4/GHhfOQ5CfeZcf3vYektGqrtksxf8Ez2D7Jww6TCry9/iP8ocIDz698Emv0x7Fm73F8da297shQqvfOhXggSLzetoIvfoXR/7qIKkgx6ebHsX9OgJ06+TQTYAJMgAkwASYwVAh0oQ5+SDPVOHQ4E8crKpFxOR/Hq5oBz3AsGFmCfVfp76F46DWobqjG+r3fItMnHs8F5GL9xQqsO3gEvm4kDt3G47lxJdh4oRTHUw5i/dRIrPFpB5F7cjPm781FKQnHGWOn4o4gEoD6aqRlncdXl4/jjk9q8c1TdyPJzRaej3cgJgW1ylI9SipKkanRg/7r5KDup8Ccao0UudnJSDqWjurQaKyZ6QOFpgJ7MrKRXpyOVZuliHx6IWbIOinK0IwqnR7V0KOqqdNKOymELzEBJsAEmAATYAKDiYDjhKS+AjuTT2GnoCncfTE3YTzWzI9DzTcbhqiQJJTCRAFDIfaoZyPtqXmIRSEU6z7CH4uP4w8BM3DsqUTES6sxvPKveL64FMcK9SQkzV2gz8XbR0hEkkdv/q1PYj+JubbjlnF4/oPP8HblBfwhbQ6SZtl6+2ITlmN/QmuOOqz/5B08kdfdW7EOG49lUr2P40BCSJuX9A9Tj+DW9bSMUPV5rL+ciBlxjrtdumspp2MCTIAJMAEmwASch4DjlIE0BA+tWITl3r64MdwLXsY2N+OQ87TdYZbExsQi1jj7NARxfvRPJRA5JpZEpHDOB7EB5Dks1qC0Thi8bh129sTdty5EbB0waWIHESlkkUVi2RgfvH2yGulFpTTkHWA1JC4k+oFH6Ays7yAijaWFxOOBcBKSeRqkldGweZytgG2r1ScCK+NAQ9suiAzmSPEf2BucnQkwASbABJjAoCDgOCEJN8TfOGpQQOhbI2nJncB2weUjExDrEenfLg59jeeE0x2GgGku5fyJ9LJjjI+7wiQedU3GuZN9LdXio2NJ9lofHhjuIdREcyY1FlFD1gmB0Kl4d/lU2/N8hgkwASbABJgAExiyBBwoJIcssy4aJoVSYYtVIbWVfo02JVFUdx4NI5+/jGPXqlBC4s04x5EiwKsoitskIB0z/9AkGG0MgqJ/4/ptDeAzTIAJMAEmwASYgNMSsFU8TmvqUDesDnu+/hQrz1RQwAoNgPuEYJJfIELIe6mUuqCq4jK+slxLqI+B8K3Qx0C5OCbABJgAE2ACQ54Aqwcn6eLqC3uxShCREh+sWvwA3qVh7o4+zNzD/8Ce0lInsZbNYAJMgAkwASbABJiAKc6YOQw4AT2OZWZTxDZ5IsfMx1tWIlIwr7TGNLQ94KayAUyACTABJsAEmAATMBNgj6RT3Aq0/iKtwSgcvl7uFNdtdeiysfEyhXM781GajudTC2keJ605ecNsPBdjbxF0Z24E28YEmAATYAJMgAn0hACHUvSElsPSKhDiYRJeJcWFyO1YDy1IvunrvTjQukwQBeBUOcyOH1Bw5WWsT0vHurRUbCxwctH7A5rJWZkAE2ACTIAJMIF2AuyRdJK7YeYEWnvyXCoyi4/gjs/qsCqK/JK1JThw8SIOyKbim4UaPLE1Hbnk+Xv5qAeWjYzG3SMF8VmHr/buwkZhO8YOR655OmVa6hdYdsm1/YpsDF5ePgPx/BPCSXqezWACTIAJMAEmMHgJsJB0kr5TRCRiYyIJyIOZSL+SiuevCIbRmpRjZuPAXbMxQ1GB38Zk4ydZ5KHcvwsHbrqfhGQ0pdEg92o2RXSLN6S0ohBfVXS4pnDHKnobL56czzIBJsAEmAATYAJMoNsEhrW0GFq6nbpHCauwbcth7Kyx9JTVlJciox6QC3tD+7q0lSgPjcc7i0ebd8DpUUVDKzHt1517jaK3DVL4+AUg0s1S62saKOiG9uL2EVmrcmiB4NYwASbABJgAE2ACzk7AcR5JgxaXrxbiuJ0Jfdqachyv6YDHoIbW2Wn1h320cHlkaLjdmhRuHn2+q43dyvgCE2ACTIAJMAEmwAQ6IeBAj2QntfIlJsAEmAATYAJMgAkwgUFPgEMuBn0XcgOYABNgAkyACTABJjAwBFhIDgx3rpUJMAEmwASYABNgAoOeAAvJQd+F3AAmwASYABNgAkyACQwMARaSA8Oda2UCTIAJMAEmwASYwKAnwEJy0HchN4AJMAEmwASYABNgAgNDgIXkwHDnWpkAE2ACTIAJMAEmMOgJsJAc9F3IDWACTIAJMAEmwASYwMAQYCE5MNy5VibABJgAE2ACTIAJDHoCjtvZZtCj6VkDLtZ03NC6Z3k5NRNgAkyACTABJsAEBiMB9kgOxl5jm5kAE2ACTIAJMAEm4AQEWEg6QSewCUyACTABJsAEmAATGIwEWEgOxl5jm5kAE2ACTIAJMAEm4AQEWEg6QSewCUygTwlo5Fi73BePLfdCclmflsyFGQnokLYtDWv/loY9Fw3MhAkwASZwXRPgYJvruvu58UOSQLMEOcekSGkG5tQPyRYOcKMMUJeqkZcPuDHfAe4Lrp4JMIGBJsAeyYHuAa6fCTABJsAEmAATYAKDlEC/eSS1tVXIuFqOggY9oHDHiKBAxAW7QT5IwbHZTIAJMAEmwASYABO43gk4XkjWl2L91wew7vsqqK2mE3kFjsaapbdg1Wi3670fuP2DjYBegoorLqiBAUEjm+GpcHQDhkFbI0GtMJTqbkCAd0sPKxyG2qsuuKZvQVBof9jbQ/OcILm+XoOaWj30Mhn8/WTo2cPRgMZKDSp1gJe3GzyVPWiQQQ/VNQ30VKNXgALKnlXcg4o4KRNgAkyg7wk49pGlL8V7H+/AO4U0WUvhiwVTYjDDn3yQDVU4fiYL+8qv4I0NVbi26j68FOHS963jEplAXxAoU+Jnc9yR4tKEP6bWInC9F15+2xU5NebCSdglPNKA37/SiHALQTkMmW/64skPJPC+rxa7X9faWKPd4Y0fPecKTGrA5m0NCLdOUe+K3X9yx0dfSpFZPKztqudoPW55sAE/f0ZrVadlAXKpBJmfeOC1P8lxprjV3hYkrKjHy39sRJTDBbB1g5ztvR55x3Kw53A5sitotKT1UCoQN3kUliwcjuBOh00MUF3IxdadRciuNP9SlkjgHxOGu5dHIc7bqr21RfjwrRxkwR/3v3gD/I5n4vP9Kqhabw2pDBHTIrFiCdXr2Kezs3UE28MEmMAgJeDQR1VhyndYJ4hI91F44+lFWO7fTunBOeOxfv1WvJFXhc8PXMITj8chcJBCZLOHOAFBbNWQRw8SpK/1wpcfuCB+qQaLRrVAm09Cj0ReynseeKzegK/WauHZEYcGqFCRALTVkKZUeipXuF7bLhLbsutdsWGFN948MgwBU5vwwAo9wn2oqAqy498y7H7NCylpddj8OQlY0S5oQeHn3vjLOhdELdZi9WgDtFdckbyD7F3vgdXkTf3qbSt7RcsZqid1yNiahg2p5A2UKhA9dTjihsvQpK5Ddno5Mo5eQla+BmtWRyLCjphsupKDv6dSaPyYQMydrIBrfR0yzqpQdLEAGz4E1vwiChEdn7Ik7NFoIO+jFrn7z2HzUR0iJ4RhUoAUTdeqcPosBfEcu4R1jVK8tDIQPXFsDtVe4nYxASbg3AQcKCQbcCiz1Pj9GRU/xUJEGpFIffHgtHC8Q6GP2tIyXDaQkOTQH+e+W65X64RPieAwr5di03o9Vu+oxOr49qHlxxd54f775cjZ6o6Nq3VYHdvTYWdxsNr/uOGj48PgeXs9/rWlAQEdk/3GFWsX+uD9f7thU4oGLySI1KlxxaZPzPZObZ9X8vhsH9z1c1cUblHiv7/RYlGHH3jilgzNs41ns7FFEJFKL9z59ETMDW1/ACXeGoKv153HoYJ8bNnvjxeTvEQhZKeWI3rJFDw5y61tKDxpTgHeW5uD7NIi7DkZhmdmirh9DWocPeGBxKenIWlUa72RuG1CJt7+uAyqs7k4OC8QSaGi1fJJJsAEmIDTEHCgdHPDgw89hkPP3ov1c0PEGyw1D2c70ArxivksE+gdgcClDXisg4gUSvFMbMCyKfSHxgX/3dt3v83KaQ4mTdmDNw1jW4hIoVJFE1ZvqcSRnEpxEWlu3uhVdVjdQUQKpwOWaZAgDLlqXZCRLeIJNecd2v/ocPq4irzMQPCMGAsRaWy30hd33G7yCJalliC7w6i3BZeA4bhzZruINF4LCENivIz+MCD3gqkOizzmN57jSDi2iUjTSeW4UZguiEdDAzLON4hl43NMgAkwAaci4FgJp3BDeGAgwt3F2qzFcbPH0is8DDc61hIxA/gcE+ghgRZMnKcTWWmgGbGTTB6/nCwXu6PYPawM3kEGCHKkcLsb3k+W2pQrD27uPOhG2oxbEkUUEJ0PD6KCaVhdLSip6/HQVyG7QOgzGaJjPUQJSKN9ECn8LqivQV6FaBJ4jvFDmM2zS4LISE+jh1JfVodS0TXLKc1YX5GAHjdEjBB6HSgrqaUhcD6YABNgAs5NoO/cJz1spzrzGF49S7+4JTTEPScK4gNHPSyUkzMBRxKQGhA+SqyCFgSGtBgFpq6MIqvpXztT6sQy2z3nuagej8/2xtojNIxNO9W8T8IxfrYe02frSCBqERsqMpzdsTRpC7z8u0hjt/YhfqFaA3WT0EYDsvedxwaTdrNqdBOMGwMZdCitpH9FBlb8A8RnMUo9Zcb5jbX1OmFKJD3nrIqWyBDsZ33SlMbLR3gs66AX8tJfFnNurYrht0yACTCBgSYwIEJSfeU7rNqSgUIDBS0kJmLNSI7YHugbgevvBgH6tHi5iwszudx8nrx8FF/TN4cwfL2tCnEf0dzLbTKcSHdBypfCi7ZAlHogah4F0LxWh0WdzMnsC0HbN41xslL0Bhh1JPn8yi6rTILRnokSCo7RiqlB2tnG3lo9rlLIBJ1oMKBBqMjmSSuFq53OkbqaBSbZSKsJ8cEEmAATcGoCNo83x1rbjMKzh7Hqqwzk6FwQN2sh1s8P7BPvjWPt5tKZgImA1k70tVZrnmuoaIFIaEXv8SmaMecZNb1oSmOxK04clCHliAyHaS5mTrICv0pzgXpvDR6IERe4va94iOeUkZATmijxQNLzU5AoDPX34mhqEh23NgpIcnaSgJTAzViR9WG+bn2a3utby6S8oo5SkTx8igkwASYwUATEx1YcYg3NiUzegSVfkIjUu2HBHcuw7Y5RPKTtENZcqEMI0CLk5RViwSnDUF5KC4ZTpTJ/g/hQpJ3JbuXC0j/dPOShTZizsh4vvF+F3Wk1+PlsEo8qWiLoY5Yb3UTYnsxLAT/BI2igRcSFYeteHupacZ+hnobOjcuMuivgJfaUpeHySrV4pepq080i9TINj4un4rNMgAkwAecgIPaI63vL9Grs3PIFnjhQCrUyBM88eh/WzWJPZN+D5hIdSoCGrdNTxZz4LshMM32UouL0HTzsLZBRHIegV2pVprmTlvZJcOZ4J8E5NVRuqqtxzqXN4a/DypWmusqvmUSsTRo+YZ+A1BvRI4Q+0yM7o8pOUIsORfkNpjmOdkpS5daI9k9hvilQRjrcA8GiT1k9cnPrREptQF6xSZwGh5kCdkQS8SkmwASYgNMQEH3E9al1FB257fPteJYW2qXtHvDO00vxbDRvidinjLmwfiOQ+bEbko0RGO2H9ogbtp+i9zQMfcvtlq7H8NHNxuFJbaoM/1VZ5qtI9qBobDseSVqM/P1Ffrh7oRf+clDsYyrB96kmETo6rpmnh1ii7cY7GSbMDDR6j1Uns/FNrrXL2ICiQxew7m8n8cq6fFh1nWnYmvLqrxTg2yyrvDUlSE4XxKAEMeP97S4qXpaSD3IsWxyNWQU4USRkdcOEOH5OdqMjOQkTYAIDTEDMvdKHJjVg35c78NKlBsiHT8Q/V92MGaJLAfVhlVwUE3AUARKKiTdJ8atEXyx7UIu4MNrZJkeGL9fLaLoGLbz/SD1WxlhWLqeAmNtCZdheLMNri3yQflcTorxpKDyddsTZOwyJz2mhfV2OctoAyuKQNuGe53TY/oQMmx71QeEKitQmwehF7k0teSozaK7krn9LIB+txS8eMYWNOKrZQ7Vc5bgorJheiw0naPOED06iKJ52tgkj2d/YgIKL5TiXT5HTcjfMXRhGGxp2PFrnRUoQEafE6U9OoWxiMG4S8tLONudSaN1J2hNdGjoCSZPtTDsgoRg3vAab/5KG7KmBGOUvgaasEiknaLtEKt5/aiRmiUSJD9W+4HYxASYweAk4VEgWHkvGS8ISP8IWiY+wiBy8twlbbiLQgvjfqrH4M0+8udYdm0gsGA+K5E54pp722hbZbtBbg19/JIX6ZwokZ9JOM/QSDvnoJjz2sRqrfZQ4/DqJQxo21wqOrQ6fyIClamyQuuPNtxU4/AGlM9Vm+r+wv/fKBjz1SgMSrtOdaTri6N3fMsQtn4Q1w3Pw9cEyZKfm08tckkSKYNove+6iSCSEWj8mzZHY5HEMSbgR98RkY/O+fGw/0WoF7bU9dgTuuy8SYdZZ2wyV0I44EzH52EXsOJSDlDZtKkXEdBK4d/H2iL3rU87FBJhAfxMY1tJicEy4pz4fL/3vbmwTvmzdfRHvb2etC6HF9Ov8zqUL8WBwfze/7+q7WGNnxeK+q4JLGigC9Ur8LMYDyc16vHCsCo+NJkPqXZBzRULLs9AaksLOM1162mlP7atSFApjpN4GjKYh704+ETYtFbyQhVdpniWtLSSn/MKQuaddkWKTnU90g0BjZQMqha2EaOkeL383ePakgwx61F5rgEorgWeAG/zdxaYjkBGNJfjwd5eQAQ/c+cIUzBW2LNLqUHZNQ2tGSuEf1MN6u9EuTsIEmAATcCQBx30V6etRLqymKxz1VUhv9d6ItsYLk1rTil7nk0zAyQi4NyNqvPV4dGc2tsBzZBNiR3aWxv41uXdP67NfFl8RJ6D0c0OYn/i1Ls+SB9MzxEs8Yr+rzHJanNy8m01XSfk6E2ACTMDZCDhOSCri8M8/xjlbe9keJsAEmAATYAJMgAkwgT4iYGf8pY9K52KYABNgAkyACTABJsAEhiwBFpJDtmu5YUyACTABJsAEmAATcCwBxwXbONZupyudg22crkv60CCKqK4ZZgyskXm39ChIpg+N4KKGCAF9vd64z7eru9R2C+4h0kZuBhNgAtcPAcfNkbx+GHJLhzwBEo8sIId8L/dXA6UsIPsLNdfDBJhAPxDgoe1+gMxVMAEmwASYABNgAkxgKBJgITkUe5XbxASYABNgAkyACTCBfiDAQrIfIHMVTIAJMAEmwASYABMYigRYSA7FXuU2MQEmwASYABNgAkygHwiwkOwHyFwFE2ACTIAJMAEmwASGIgEWkkOxV7lNTIAJMAEmwASYABPoBwIsJPsBMlfBBJgAE2ACTIAJMIGhSICF5FDsVW4TE2ACTIAJMAEmwAT6gQALyX6AzFUwASbABJgAE2ACTGAoEuCdbYZir3KbmAATcCABHdK2XcCRUiA6cSKSxvLvcQfC5qKZABNwcgIsJJ28g9g8JsAEnI2AAepSNfLyAbd6Z7ON7WECTIAJ9C+BfhOS2toqZFwtR4FGD8jcMSIoEHHBbpD3b3u5NibABJgAE2ACTIAJMIE+IuB4IVlbiPW7DmPd91VQGyyt9vIfhScWz8czN7j1UXO4GCbABJgAE2ACTIAJMIH+IuBYIanJx6sf7sXn5c2AZyCWxI/GJF/yQTZU4fi5LOwry8c7n27HtUcfwKvRLv3VZq6HCfSegMYFhcWA98hmeLZ+eoRzV4dBEaZHgHtnRQ+DViVBOb20CgPCqQz2yHfGq3+v6es1qKnVQy+Twd9Php49HA1orNSgUgd4ebvBU9kD2w16qK5poKcavQIUUPas4h5U1AdJ9XrUqnVooHa69bSdQt56PXSQwNuT+PZwaqm+tgGqWgOk7gr4ezszpD7gzEUwgUFEwKGfxoyD35lEpH8cPnt6HmZ0+JJ9cO54rP9wK97IU2PboQysiR6PwEEEjk29TgjUK/CrSR5ImVGPjx9xwcurlThTBshH6/B/e2uQkOWBJx+lcyri4d2MBz6owf+7nX44WRwuOPOJO/6+ToYTWSQmW6/5G5CwtBE//00DJvp3yFAvx+/neWIXlZnwWhX+utK6vNa0Ltj9qC9eO0JVL6rDV2s18LxOuqXvmqlH3rEc7DlcjuwKmnbTeigViJs8CksWDkdwp2rfANWFXGzdWYTsSvOQi0QC/5gw3L08CnHeVpbWFuHDt3KQBX/c/+IN8Dueic/3q6BqvSmkMkRMi8SKJVSvQ5/OPSOoryjHt7vzkXKxDqS1zYcEniP8MX9hNObGyOwWWHsxHzuSi3CuQAd966iURIrgMYGYtSAKs0bZNjRvZwr+cUIPvzkT8YvJ9fh6YzaOFrT3j5KmRs27OxqJY+zXa9cgvsAEmECfEnB59dXfvdqnJbYWZijHZ3tOI7XeBXMX3oE1Ea6W1QxT4kaXUqz/vgZavTvm3hyJEcMcYkm/FFqhbeiXeriSfiZgkCL5LTkyFcNQutsV0oVaTHF1wfnzUmQZJMh5V4HGRC3m+EmQdZEE4yXg1od1CGzztrggeY031rzpiiv0LXrzo1rcd68ON09qQfMVKVIOyLA7WYq4u7QY1TrDQ2aA/LISXxyRoKi2BYseaIKXWLOvuuGN38hwpZ7SvFKHxEixRHzOPgEdMraexj/2V6NCJ0P05OGYPSUQUcNJnJTX4lJ2BVKyWxAT7wsfC61D4vNkIS7VAD7uTTiytwSN4YGYPikA0SFS8jo3oKxEjXNZzYiZ5gefjp43Qz3SkitQpifvo6EM/zqoQehNwZh8kx9GerVAVdqAa1dVOKtyR8JN7rB6atpvigOv6Ivz8Y/3spBapINLCIm/mcGYEOuNQJkORVdqcCGtDCV+gYgPtRWEtWcz8X+fFiK/zhVRQjsnBGDsaE/4K3W4eqkK505XQBsxHGP9LB/+1ZcKcfQKuT29XVBxIAfpw3yRMCUI40a7wZU8xyXX6pB9vgousaGI4l9PDux9LpoJdE3A9pPfdZ7upZAE4tmfPIEn6umntrudOZCtD1gaSrL+4d69SjgVE+gfAtp0EoKr1Nj+Jy3kVw0omuaGlH/Q+OUjdO5tOqdSovwmDyRnS5FBnsTYYJNdFV964rWtLtD6N+GF3TV4LLalzeDH1sjw5lJvbEgnD+SbcuwWyjZebUHCCi2i1iuRc5zOZ9ZjdaxtO3O2yJEiRA2P1+Ke2e3l2qbkM2IEGs9mY0sqDSkrvXDn0xMxN7Rd8SXeGoKv153HoYJ8bNnvjxeTRKU8slPLEb1kCp6c5dY2FJ40pwDvrc1BdmkR9pwMwzMzFbbVG9Q4esIDiU9PQ9Ko1nojcduETLz9cRlUZ3NxcF4gkkJts/brGUMdDm7JRTbdZ/6Tb8TP7w/s4PWOxNwT57F2mwrndmQjLWY8JlmIugak7C9DLRSY9fg0LIvpqKijkJR6Hm9sVeHof0owf0yYhTe9VUDXni3A9+Nj8dLKYHi2Zr8tDIf+noav88m2b8sw69Fg9GQmQb/y48qYwHVAoIezVHpIRCqn+UJe8BKTq/oqfJ5SaBzmi4qlISDHWtJDwzk5EzATaLt3DZi+SGcSeqF6hBl/+bS0n/PWI2okndLTHMjKVu+KC779xBXCiGnUI/UWItJYurcOT/9cZ/wCLfxSgcMdl5KJ12DZFKE8Gr7eLDJ8p5dh+5emecUJ92sQK/YZM1bChzgBHU4fV5HIAYJnxFiISGN6pS/uuD3QKFDKUkuQ3WHU26K8gOG4c2a7iDReCwhDYrzQZwbkXjDVYZHH/MZzHAnHNhFpOqkcNwrTBfFoaEDGeScY5bhShCM0JxhKfyQt7SgiTfb6T4/C7BH0d6MKKWc1ls3U16O0SjilRNhw2we852QSiL+ZiTeetBSRloV4Yf4dHUSkcFHqgVnz/I1905hTgey2uSKWOfkdE2AC/UPA9tPtqHr1WhSWVyGnsBCHUk/g2fe24428ZniNno4/J4Y4qlYulwn0DQGpAVFRrV6/FngJ833pXGCY+RwJObmHqSpt6/dpvQwpaUI6EpzzxJWI52wd4gWHVY0U6Rkdh/f0WHx/k1G45uxQIMXqO1p7UIHkK3SRPJ3L7hMvu28aPkRLoR+y2QXChD0a0o41d5xVU6XRPogUBHp9DfIqxDl4jvFDmM1TVILISE+jh1JfVodSq9UqTCVRmrG+IgE9bogYYfrhUFZSSwE4A3uU5dQYxTZG+CFW1O3nhrgok8c1N7fG0l6JHP7C58RQhf+fvHlXAAAgAElEQVTQHNI8Y0EdDpon6SkENdnw65AmyBexflb56K10lBfChXzaehQK85P5YAJMYMAI9J8fo/wMVr17Cjnmh6rcMwQP3nkznk0IEZ//NWBIuGImIELAxSweLS7RubZRS5Gh5SIXCAsWQNqMqFEi14WyvCl6W/Bulg1DOQXxdDwClmqQ+LordhfTPMpDw5Bwe2sZEhzeKkMhqYyARY1I7BioY1kEv7NHoFoDdZNw0YDsfeexQcTpCzTB2CUGHUor6V+R37v+AaLqClKKShau1Nbr0Cg886zFkkSGYJpXK3Z4GSdkUmCKkJf+GsgpgCohDF04ykrw+UeVIsKXxHKlSe7qKWqdpo1SGJH5kHhh9oJApG0uhyo9G2vP5sAzxBvRY3xw49hAxI5xg1IcQWsJkPpRhHbbuw5/UDCUpzD+raVI8DqxBHyOCTCB/iLQf0JS5olJUeEI0mpxraoSObWl+PybvcgpvxlvLIxBeP9Z0l9suZ6hRqCn9ygNudH3nNEjKbcb+UvXjKsZUDS39ReitxbLFrlj93oJvt2iwK9vbzSJijI5vkwm7yUJ1MUPmofbhxprR7eHAp+MOpJ8aGWXVSbBaK9OiQF6rZgapCVw7K3V4yqFTBBJBgMahIps7h0pXO3cE1JXs7oiG80yzp5lDj5P7W4Ns66pQwa9Oj2aDNBYYfKMvxHP+ZXg28NFOE8R36riKqQJr8O5xrnzN90ShXvm+rfPf7SuQC61RSekoch4I1/6IaAbaLettc38nglcZwRsHm8Oaz8tAfTG43FtxZdfPY93vvoO244lYzn9jN35YAwv/+Mw+FzwgBAgoUDfg3SQSLQ7j4uuGYetSVDajLBS0M2DFHTzCQXdJMvxbXEjltH8ucLtCpygz4x8KgnNqXY8nQPS4EFUqYyEnGCuxANJz09BYlDvbG8i8SR6kIAkjUMCUgI30dBr83WRzPrWMimvqKNUJI9jTkkgNalhSEkQ/t/K3i3QphxF80gfohetlymI9uzLlcikiLQsilA/t+c8ilTj8dxy05xHm3YQR+NvMesLdF5nRE98bS5aJ+b3TIAJOJJAFwMLjqs6cOR4vPFIAmbQQ6A88wT+edVxdXHJTGBACIQ1I1CIh6EAnMJ8O2tb1dA1YdiU5luGh4lY2Rp0U09D3Dvow6Knf7fREjNCoM+jGkSJZOFT3SBAcxL8BI+ggRYRF/j38lDXivsM9TR0LgzzghbP9hJ7ytJweaVavFJ1tcnFJvUyDY+Lp+qfs/40tCwcwrC19RTHHlsgrB0ZE4xZSbH48fMz8eJ9gfAnNqrUfJw2wrI99LT4uTC8b3PQEkC1gqeXyvQSD6i3ycInmAATcAwBsUdc39SkKce+1DNYfyADGeLPWpofFmJasJeWwsgpt+uy6Rt7uBQm0N8E3HVImESVkpBMOSLuNqk9IkO64JH01yO+w9JA7aa2B92kJ9O8yEzyTJ6nq8FNuGeRvYXK+7uhg7A+Kc3VGyE8/vTIzqiyE9RC6yTmN5jmONppoooCTMQEVmG+KVBGOtwDwaJPWT1yc8WGihuQV2x6YAaHmQJ2bKvWIvOTV/Hmr1/E73/zKjalOO7ZGTzG2zRHsagcZ+2JvQo1imrEPLMG1JbStQqxa7Ro++QRGO8jtE4PdccVCzo2mPLniihJfUEdCoViaV5IcIAtIT7DBJhA/xEQfcT1SfXN5di28zu8kXwMn+XY+cLTqVFofAq7UNCC+Bdtn9jChTCBASHQjNtWNhm3UsyknW22X7HySlJU90drZUYhErVSg+kiyw0KZhuDbmhdSu1JGTbRUkBXyGEVvqwRc3jx1R/QqzJMmGlazkZ1Mhvf5FpPtKO1Qg9dwLq/ncQr6/JhExhs1kb6KwX4Nssqb00JktMFMShBzHg7Q7Z0tSwlH2lW4qwxqwAnioSsbpgQZ2f9Xf157Fr7HjZ88BE2bc2HV6SdyZY/gE5b1sgwTBcEt16Nb7eXQGWtCWvLsf2faXjr9ynYmmF5sfH093jtrTT8ZWuRbT6hgkqKhhe8siQGw33tGEvLCn17WG0p9MmLnHK03OipVI4NQjR/ddiBx6eZQP8QcNxH0D0KS244hkPfa7HtmwOYG5KIBR0fFrRO2qE9p7BPeN4qwjE3gvfa7p8u51r6k0DAilq8csgHL29xxcsLfZHyiBYJowzQlrniv1tkOJxFUbkJjfjDc50EzbQF3bhi00ckKBXNWPaQaWmg/mzLUKtLOS4KK6bXYsMJehZ9cBJF8cMRF0azEhsbUHCxHOfyKXJa7kY7c4VZRQ63CiYJIuKUOP3JKZRNDMZNQt76OpxLoXUnycMmDR2BpMl2ZjmSUIwbXoPNf0lD9tRAjKIxXk1ZJVJO0HaJVLz/1EjMEokSN/ZB9hGkCGs70hF13xrjjwzHHW6Yd18ksv9OC6xnXMLb71TQDj4+8Kfdl9TC7j3nKFCJFJ1nXCR+ZLUYsHLCKMz7bxWSc3Pw9t/UmB7nhWDjosIUaV2mxtnT5Sgib33EbaNwk3jwO5SR3nA9egZvFQ3H5Bjaw5zCj/LTS5CST5DkXrjtVtNan45rP5fMBJhAVwQcJyRpBbwld8zBoeJk7FRlYc07hYiPDseN3vTrWavG91cKkV4jeCrlmLvgZizpsA93V0bzdSYweAg0Y9G71QiI88Da92kZnzfdsNtsvNy/GXN+1ogXft2IqE7v/w5BNzQMLp+nwT2iw+CDh4pzWCpD3PJJWDM8B18fLKNdavLpZbbMOJ8vDHMXRSLBZus/cyQ2eRxDEm7EPTHZ2LwvH9tPtLaKhm3HjsB9JMDC7D5hJbQjzkRMPnYROw7lIKVNm0oRQYt8r7jLvkCqOJmKK8J0CPfZeGD1FPNuSI4jKg0ZgSd/qqC9tnNxlIJkDu1p989KPT0wKSkSS4XIa2sTpF5Iemo83HZSvgvltEtQuUUKJa0ROXdJFO6YbBNl1p7OLxSPL/DBl1/mY08Hj6c0wB+33XMDOSisK+X3TIAJ9DeBYS0tBseGfdYW4vN9FExzvhSFFnMlXRA+MgoPzb8Zq26wM4TT3zR+QH0Xa+ysWPwDyuSsQ43AMFTQ/trlNJwpE9aPHNlsjuoeau0cnO1prGxAZS0NU9PSPV7+5P3qyYgxRSTXXmuASiuBZ4AbLcRtZ9ZQYwk+/N0lZMADd74wBXOF+X1aHcquaWioVgr/oK7q1SL5iXH42Zc1CH9kE3av/ZHDhaRFb5KtqioKdKFpmUpPN1oL065StrwJKMq6lviq62nZJVq6x9OHGLXteWh7vxTtTMFbhzVQUrT46+Zo8cbKOpTVGqCkZYOCA7pZr23RfIYJMIE+JuD4T6NnOB68R3g1o7y8EuWN5IWkBdQC/X0RaGfUp4/byMUxASch0IKA0U3g2AAn6Q4rM5R+bggT2UWlW9YKu7SEeNl65bqTWU6Lk5t3s+kyuf4kUk7SLxHFFCxb3c8iUjCObPUPoVeXhlolEMRjgAe9epqxPb3SzwMRve2f3lfLOZkAE+iCgOOFZJsBLggMDOS1IrvoEL7MBJgAE7BLIPMo0ml+ZMDSVVgZazcVX2ACTIAJ9BsBO+Mv/VY/V8QEmAATYALdJFB47BSuIAb3PLWsd97PbtbDyZgAE2AC3SXQjx7J7prE6ZgAE2ACTECMgGLa0/i/zcFImCp2lc8xASbABPqfgOODbfq/TQNSIwfbDAh2rpQJDDoC+nq9cZ9vV3c7+0gPuhY5wGC9Ho3COutSKZQ9CXpygClcJBNgAp0TYI9k53z4KhNgAkygTwlIWUB2zVMQkPzt1DUnTsEEnIAAz5F0gk5gE5gAE2ACTIAJMAEmMBgJsJAcjL3GNjMBJsAEmAATYAJMwAkIsJB0gk5gE5gAE2ACTIAJMAEmMBgJsJAcjL3GNjMBJsAEmAATYAJMwAkIsJB0gk5gE5gAE2ACTIAJMAEmMBgJsJAcjL3GNjMBJsAEmAATYAJMwAkIsJB0gk5gE5gAE2ACTIAJMAEmMBgJsJAcjL3GNjMBJsAEmAATYAJMwAkIsJB0gk5gE5iALQEXJP/aB4/d5YO1R4bZXuYzTIAJMAEmwAScgADvHeAEncAmMAExAoUZrkg5AniuFLvK55jAQBFoQm2NGmq4ItDbC7LumtFQhnOlBSjSAXK3ENwwPBxhrt3NzOmYABNwVgIsJJ21Z9guJsAEmIATEig6vx6PHsmAShKDPz76EyxUdGFkUyF2HN6EddmFUBk6pHX1x/zJD+N3kyLh2UURfJkJMAHnJTBAQrIZ6qp6qOmhInf3QmBXDyLn5ceWMQEmwASuDwKaQuxN3YZ3vs+Fqrstbi7DF3v+hv8taoTMIwb3jp2AsW6A6top7MjKxYGU96FzfQF/He/f3RI5HRNgAk5GYECEZGHqXiz5Kp+GRoD4BQ9h21wvJ8PC5jCBzggMQ22ZBNpm+iHk1wzPfvshRPUWu+BaDeAd2owA75bOjORrPSSgr9egplYPvUwGfz8ZevJw1Nfr0KilX8ZKGTyVPZx6btCTsNJATzV6BSig7EnFPWxjT5PXlpHgu5KLXFUujhQKHkVXjI2IQ+DVDFzsRmG56Z/gHUFE+s7G3+5ajqltn5XZWBryPlYcysDR098iNe5+THXpRoGchAkwAacj0P+PrPIzeGmPSUQ6HQ02iAl0QkB7RYENr7the7ILCknMGQ9pC8LH67FoTT1W39MEuUX+Ych80xdPfiCB93212P261qZ07Q5v/Og5mig2qQGbtzUg3CaFcGIYKv7tjt++osDhLHPgDdUbdbsGL79dh4Rg0Ux8slsE9Mg7loM9h8uRXaFvz6FUIG7yKCxZOBzBlp3anqaxDin7cnAovQZl9e1jtlJvD8RNo7y3BsLf+glbW4QP38pBFvxx/4s3wO94Jj7fr4Kq9daQyhAxLRIrllC91nm71Z6+TVSRfwDr0guho/mQYUFTsGbCAjwU8D2eJCHZ5dGcga0XhLz+eGjW0g4i0pTTf+xyvO1aBviHYyyLyC5xcgIm4KwE+vdRpS/He1+k4DgCER9YjvRyZ8XCdjEBKwJXlfjVQg8kq1oQe7sWq28ywIu8K+p8Kf67wxXvr/bGGXIVbnimyTKjBqhQkfiz1ZCmdHryMgrXa+1HZmtTPfDo5xTSME+H1SsMkFe44L/bZTizW4nVRcDHe+swsd+8okPpztAhY2saNqSSN1CqQPTU4YgbLkOTug7Z9HDKOHoJWfkarFkdiQhrMamvQ/I/07An3wBlqD8SJnvATwk0kVczL6Mc55K/R3ZBNJ57IoxkVIdDSt7KRgN5H7XI3X8Om4/qEDkhDJMCpGi6VoXTZ9UkbC9hXaMUL60MBBU5oEfYmKV4K4REZEA4It3MkTE133fPpuKz+K6BknpPwEKxqBqJP26K5iHt7sHkVEzAeQn0o5BsRkZyMtYVSrHg7kQsyNzEQtJ57wu2zILAMJx53w3J5DyZ+EoNNj9rKRZ/vsYNj81zR8paJQ4/0oQ57n2L7/AnMsz5YzX+ukrf5vFc/YQbnlrojsPpCvx9ayM+eITG2fnoEYHGs9nYIohIpRfufHoi5oa2D0kn3hqCr9edx6GCfGzZ748Xkyyn3+i/z8dBEpHSMVF4bvUIS7G4MAx7/paG5Iv5OJQbhmWRImYZ1Dh6wgOJT09D0qjWeiNx24RMvP1xGVRnc3FwXiCSQkXy9uMpmV8MZvn1rsKisgIIvgLPoEiMpibqarJwNC8PuQ1C2LY/bgi/EbOCeFpT7+hyLibgPAT6TUhqs7/DL49WwWtCIl6d6gUa0eGDCQwSAsNQeFX4sqdh7LgOw5+t1o9uxF+PkMvR3wDPPhaRxiqiNfjFI+0i0niO6nx6GQnX9yQ4sVeG2kcaOfK1tT+69a8Op4+rUEtpg2fEWIhIY3alL+64PRAnSNSVpZYg+zYvRHd4WtaoGtFIyfyDPCxFpJBX7oXbnkrAbAnNl+zkfvAcR8KxTUSajFaOG4XpoWXYU9yAjPMNJCQpMmWQHsVqFQ1r063q4YqTR/6M/xGCdDpGbdNweWTEHfjjrfMx1trjO0jbzGYzgeuRQA9nhfcSUX0+Xv3XeeR4x+GNpTE0sM0HExhMBFoQECwEtgzDf9+m4e1M649NCzxHUtCNu2OCX8Jn6xBr85OPhtinmcSlNkuKHBF9O5gI97ut+ioaehZUjQzRsR6i1UujfRApcK+vQV6FZRI3b7kxGEfwHO7JaKChastDShFYnu7W90nHNBJEjvUVCehxQ8QI08qMZSW1NuWKGuqUJ2mtSY2JSvnlbfjtRTWmTXwYH9zzW+y695f4680zcJO8Cbl5O/DT5OPdjwJ3yrayUUzg+iZg8/XU9zgasO/rA9hW44tVP56DuTyXq+8Rc4kOJtCCBAqmmbPXA4dTFfjZDBIJMXokzG6ilw5zEnUI78Tz9EONC48SH7aWhxgQSJ/gQoogLxe+s/vh0/xD2+I0+as1UBtnKBiQve88Noiuqt0Ems1ASXQoraR/Q9qtV04YhduOVdEcSTWSPzqJg+4KhEf6InqMH+Li/BHh15mIpHLIWxlsJ42Xj9CROhgjwemvwb7GoqoeeCjpBfxyZPuMz7CASEwLUuJR+m64ePVbfFo0A78Ma+fLfzEBJjB4CDj8q6f89AG8dF6L+MRFeDaCQ/MGz63BlloQoKHkDw42Y/s6N3y5Q4oz5AVMFl7r6cvR3YCEFY144ZUGxHr3PTe7nk55i3nO5DDjUkR89ICA3gDTTFc9yi6rTILRXnYJBccIS/uggziUehnnN4YdpnmQp8qRS8v35F0oMb6Sd0jgP2Y4kpZGYVKIPUEphaud4VypqzkP2SgMDQ/OwxUy8+NeFjgbD3cQka3tkQ2fj3uDD+C1EhVSCwqBMPE1CwZn+9lqJnD9EHCskFSdwbO784GIm/G/cwOtlka5fiBzS4cIgWAdlr0mvGg5nkwZUg7SFoaHZfjvIRekrHfH/eck2LyrDrF97HW3KxK1JCCNaElQ8m+0nt1kMhJyQg6JB5Ken4LEoJ5lN6amSO+4+TcYX/pKNbKyq5CZpUImDeOqLhfhs3W1UK+ZhLkdPJnttZAwtZgv2H5F32S+QBHeoo7SXpg6EFkCPIRAGlq6nIKZxL2qXgjzph9iJY0obxBWFeaDCTCBwUjA3s/lH94WQznWC0v9uIzCS/dORJTjavrhtnIJTKBHBGjOZKwWi56pwx+2VOI/yTTsTdG1Whr2/ug/dpbxsZ5EZ66vXFj6p4ujvExcJWpLJagRyg02DXF3UQxf7kiA1m7yEzyCBg0qhWHrH3hI/bwQN30Ulj00CS//ZgIShSCaRjUOHKkSL5mGy0l7ih7qatPNIvWSDfjyP6IGdvPkaFoyyCgg6yqN0du2RxO0Taa2KqQDvdCRrXV8hgkwge4RcJhHsvDYYbxztRleI+UoSPkO71jZk3PNdKIw+zTeaaTf3UExWDOZvZbd6zZO1b8EyPNXLEUmhZxOHG87hiwf34iV89xweCN5Kmm+ItCapoW2haMgXjpTq5IYI4QtPTMSnDnuYvQq2hnlNDbzynEpKmggNsCi0bTYeZrUWKacIsmjHPZJtqh06LyReiN6hARpWXpkZ1RBLxr4okNRvh5+I9xgs1lNowZFpXp4RXrYetvcfTFvmjeS86vQSPMcxaev6pGbWwfEWAf6NCCv2DSgHRzmaWfaqxaZn7yBXRkaaF0UiFryEh5I6OwOGphuk42Iw1TXszhQeQb/rrgNqyxvYPqYFCL1mjDBwBU3BIi6bQfGcK6VCTCBHhFwmJ9QXas1fkGqr2bhvcNnbF77zJu1ll/JMF5bf77c7prNPWoRJ2YCfU2gmBb+nuqD++/zwG5j9IXVoZEiPYM8i1IDYmMsxyvDRzcbhye1qTQEbrVBcUWyB95P7tojqT2ixEdHrD6qxeT93Cqca8GcRTpbMWNtI7+3IiDDhJmBRm6qk9n4JtfaZWxA0aELWPe3k3hlXb5lVLGhjtaJTMFb6y5gz0XrfEI1JBLzKMKEDv/h7nbEIFCWko+01h2SzNY1ZhXgBC0yD4kbJsTZWfpHfx671r6HDR98hE1b80nMOp+INDbHbQruExYcNxTi0wO7cY4W528/GnEuZRu2Cr+EFHFIGs0eyY50+G8mMJgIOMyPETVrIXZOFHvICniacWjndryTB0TNXIg/T/GEXOEFXpp2MN0615GtoRo89YgC6e/J8PJCH6TQVojxo2iHGRpxVpOnMmWXHMnpQMCiBjww23IJIPk8LW4LlWF7sQyvLfJB+l1NiPIehvJ0V+zeOwyJz9EPrtflKLdxdJLANEaDUMT4IgN2PeiLnJVa3HJjM+QqV3z7sRyHSdR6Jmjw9D02ma+jzul9U5XjorBiei02nGjAoQ9OoiiedrYJI9nf2ICCi7Q7TT55E+VumEsLjFvsv0LzKmcnBiJlYzlSPjsF1cRA2hFHAQXpOWG/7qKscpzKIq+idzCSZlp7HM32klCMG06L2/8lDdlTAzHKXwJNWSVSTtB2ifRbxH9qJGbZc9JlH0FKsamcqPvWINGBW2Tqru7G86fzLCE3q5Br/L1UgM++eRd7W3/jSJSYNWMV7m2bb+qKqTPux6prH2B9xbd4cksGbo2IQahLI4pLzmB/RSN0tLvNwpuXY34fzyvu/V3BOZkAE+gpAYcJSbmnL+LEZ1iTjc24bP4B6uUZQA9UlpA97ThO358EKCr7tRq8H+KBtf90xfY36dWhenloMxb9ph4//5nWdq9sbw1+/ZEU6p8paP1JV2yil3DIRzfhsY/VWO1Di4q/Th5L2ipRazEGSu8Flz59QkevVOOF2R547XUlfv+euWJhr+2ltNf2nyi4x2Gf4v5kPBB1yRC3fBLWDM/B1wfLkJ2aTy+zHRIpgmPCMHdRJBJCbQF7xsdijUSBncklyDpRgOyO5gv7ZcdHImnRKETbfQZKEL1kIiYfu4gdh3KQ0urIpnojppPAvcv+9ogVJ1NxRfDuuc/GA6undDot4odS1dYV4mRJlp3o8UZcLMvqUIUS9JvL8pDTlKU7f4mw77ZhfXYu9mYUmq+7wj9gAh5OWI6HRvLz/4f2E+dnAgNJYFhLi8Exqyh32qpm7Pz0fTxLu9vEL3gI2+YO/gfJxRqrFYs7bT9fHLwEaG/sYhdcK6N/qRGe/s0IH0neyS4bROmvSlEoDG97GzCahry7zmNVKInNiitSlNOoqedIPcL9B+Cj22U7B2+CxsoGVNaSmneVwsvfDZ7d7CDBC6mqpDUfSQy6ymXwC1LYzqlsxdJYgg9/dwkZ8MCdL0zBXGHeoFaHMlo+qJF+NfgHdVWvFslPjMPPvqxB+CObsHvtj3p+Hw1UFzU3oqiGdhMiT7unZzDCWvfuHih7uF4mwAT6hIDtT+0+KZYLYQJDlQDtYhOqp1dP2yfsftOE2JE9zdchPXkhA2Ksg25+QHmc1YKA0s8NYb3YV1pKi5EH06vXB4nPYPNuNl2WoT+JlJM0sVIxBctWDyIRKTTMRUl8w7tsIidgAkxgcBEYICHpgiUPr8GSwcWKrWUCTIAJDCyBzKNIp/mRAUtXYWXswJrCtTMBJsAEBAIOi9pmvEyACTABJtC3BAqPncIVxOCep5ZxpH7fouXSmAAT6CWBAfJI9tJazsYEmAATuI4JKKY9jf/bHIyEqdcxBG46E2ACTkVggIJtnIpBnxjDwTZ9gpELYQJDnoC+Xm9c2cnVXWp3jckhD4EbyASYwJAhwB7JIdOV3BAmwAQGAwEpC8jB0E1sIxNgAt0kwHMkuwmKkzEBJsAEmAATYAJMgAlYEmAhyXcEE2ACTIAJMAEmwASYQK8IsJDsFTbOxASYABNgAkyACTABJsBCku8BJsAEmAATYAJMgAkwgV4R4KjtXmETy1QkdpLPMQEmwASYABNgAkxgyBJgj+SQ7VpuGBNgAkyACTABJsAEHEuAhaRj+XLpTIAJMAEmwASYABMYsgRYSA7ZruWGMQEmwASYABNgAkzAsQR4QXLH8uXSmQATYAJM4LohUID1T/4Km/JsG6xI+Cm2v3YzFLaXendGW4V/vluEDCix7Iko3Ozdu2IGTa5T/8Cy3xxAtY3BXkh6/R94borNBT7RTwRYSPYTaK6GCTAB5yKgUddCo+9gk0QKhYcSCrtPxWbUVTZAyKLw8uwkXXuZ+oZa1GnovcwNPh4uVgCaUV1cjJJrjdDABQoff0SG+9gt18be1tKkcni4ySDtht1tBgh5PCiPA8ek2tpu3e1d1K2ppn4xWGfq7L0UHn5K03aTukZU13Xs1PZ8UoUbcbLug87K7cU1fQ1KU7/DgTN0jwQEwqeDalSGq3tRYCdZmptwNasWmTCgVLzJnWR2skuaWuQ1ChuHKhHiS59BMfM01cjNzEJJ2zUtqkvV9NkJRGSVWAYnOaerxdmiPOTV0udcokSwbxjih/vB24Gfvf5uud1HT38bwvUxASbABPqPQDWObdyOI9dsa5R6kaAbE4X4GXGIDeggPAxlOPzJXqSqXRB910N44KauREkzMndtx1cXm+ExcSGeuzO0rbK6rNPYufc8squbLQ1w88f4ebOxZIq/1T7c9u01FiBxgUdQKGInT8T8KUGWX8R1l/DVuuPItRZnQp6AYESOjcHMGVEIEf32tuXT3TMFB3fh01ON4smFukNCMX7yZMyZ5N9ur0GFwxt34HiFeDbRs5IRWPKr2xBP9usvH8O6bXlGsS96KDwRPobaO288Yv266j/RErp50gt3f5SGjYu7mfx6TqbLx/98+i7+pCIIinj86+cPYIGYyJr1AtIKXmgnpT+Nl8cvxR8vOyk8Qy0OHf0Cz6ZexEWdpY0KZRhWzFqON6aEYSg4kh0rJA1alFdpoe2in+WeXgiUdZGILzMBJsAEHEBASp7AEC8SFYZmaNTVqFCrkJ1Gr3OZiE68FfdOM4s6iS8CfYtJaI8AACAASURBVMgAdTNqyWsGCG86OxpQTWmFwyfYsy1h3cVDWL8tB9Uk7KReQYiOCYaPVIuKK3nIvqbC+W92oaphMR6ZYy0mTUVIA4IQ6SNvK0+va0BVhYq8MwVI/aYAmTmzseq+GBHrBPHmDx/hWavXkXe1GtXXinFeeKVlYf6yWzE7wgEPYjcfRIZ6moVxM1WtRRW1s7q4AMfpdf6S2V5BPEhkCAwNRbibpRTUV6tQKrAUhGCQsq3txj+kPvCw/iYjz0/I6AC0Uae+bayrQmlFLQovnMYXWXmYvXIx5o90pJi0NJPfiRFoxKH9m7BWEJFD6qB27XsXd5+pJC+kJ+bGTcOdYX6Q6ytxNi8dW3KL8HHyu8hr+iX2zAga9C23/vj1bYOunsDyD86jsItSZ9zxGD6b5dZFKr7MBJyAgEaKXLqhfSP09OVvtkc4lzcMyvAmhHh0ZuMwaCpcUFIhgUZhQCSV0cdOoM4q52t2CATEz8WqOe2iUFNBgiz5OA7TsGH23n34yuMu3BsniBclAgLo36s0fKrqhpAkj0SVcTRTBl8/s6TRFODbb0wiUjFyMh5ZOREhbdptCrJ37cGmtGoUHjmC42OXYrbId0zA+Nl4oIO9pmbpUHh0PzbuL0bdxRM4kBGBu+OsRaEbYhcuRtLIVhA0tH4lAwf2nTaKyQNb90Px44WY6mcHVG9Ph8Ti3pVxlve6gew9eQhbkwtQl3UMO08Nx8PTBEaeiL9rIeKt6irc+wXWnyTmIeNw3yNx6PRjJuSVBmPOfbci1uobTl+Zgz2bjyCdhPcR8gjf9NREBPS2XQ7JZ0B9VRMqGwxw9ZAjpKfjnwY9iXQt6pql8AuSw921B0Y2aFGgIgEvlyE4yJXuWscfNRf/hWdIbEUMD4OmpAh5jq+yf2oo+S9eOieISD88eudP8N7Y9h+SSPgRHj34LualFOHQif9g32TywPYHbAe23LFCslEL43PUPRALxgbCy05DxoTyr0I7aPj0QBOoc8fKaB8cmK3GgR+7YNXDHjheSo6RMRpsPFKB+Zk+SLqXzglDcT56rPm0Au8uth5Yk+L4h174wztKHLhIYrK1TQHNmL+8Hn94TY0ZHb/N6tzwk6m+2FjRgvlvXsP2x6zLay1Aik33BmHNwWHwvasaaf+oF/FCDTTAwVe/ImAEZt8fAI/NX2JnViMyk88gN2YGIulp6RsofCHQXCeaX1lHf3UqaHR1pvmR5JEINPdv3YULyBQySvwxc3FHESlwUiJ6wTTEX/4W6eQVPXmiGDMWh1oNcdvjKUP4rFmYmfkFDhTrkJtDN2Rc+1C6eC4X+Iwej7sf8YH0Q6qzmsTk/jyMXx7h+B845HkMT5iLpIKt+CKD7D2fh7pp4zvnKd6IHp2V+kUhKZG8tptzoLlWgFw1CUl7X0w9KvkHJtbW4+DXBdh8vAoFwv1hPmT+nph32yj8eL4n3O1WQa5cmi95dncO1iVT/gZzQldXTJgdgV/cE4AQK0GpS8/Go+sroYscgXef9kbqxmx8QtMQ6s3TH2Qe7rj5zkismdtZvXYN6t6F2nT84t/pKPW/BXtvAX7xxdDZ1ONi9nlcIpaK4TPxQkcRaSQjxYRJ8Ug4SUJSW4QzNL9zQXD3kDlrKocKSS0NYRiHtQNj8Oo9E2lKLB9MYJARED4hdcNQXaDAyz+TwpeE36p0JdYfpfdvemPmLjco76rHmjwF1idLse4VD6xaWI34tk+WFF89HoCVG6TQkNBM+qkG86PpCVPuSp4RBQ783Qvzj0ix/WAlklrFpIcGdycasO5vLtjzmRtyH1MjUgxbnhvW75WgWtOMlcsbWUSKMer1OSXiE8fj5OXTKK2+jPN502jeJAmvAAqywTUSknXGoWkP81wufR0JS5oHJfXwBMWwmA4Sm1XCF7PMxyxWSDBll5nm74VGYXzHHw+tdspGYHyMEun0pV6XV4hSAw3zis0XE20XBfQIQ/TFNESv0Rnr6dYD3m0E5t8cSkPqxdBczkJmQwTi+2WASIbhYeQJzqCJqnWWPEWb10cnpRQoJfSbBsTJau5aH1XRs2IaavDJny9iS54BMm8Sjom+iPIlJCU1OHSyBvs2ZyCjMAZ/ftjXjpg0oODfmfg0RYfY+BDcHOSCpmvVOHCqHmcPZOMlrQTvPupnkVdG7ddpyftZ3Yh9Hxfhqyty3Dw3FCOp30uvqHAwg4Ttxouoc7kJr81un0bRs4Z1lroSH3/zL2xtCsPvFt+O6fh3Z4kH3bWxM3+CzPH0+ScPe4SY9VJXtFHt9udbrCDnONet50xvTVXXm4SkXOlm1xvZ27I5HxPoTwKaU3JkPq1C2l8bochrRm6sFw78jbxTP65E2nsNUFR4oCTShwIrZEgjZxA9z41H6WZfrPmMRGSADm8dLMdz41razH7uWQWeTwzA26fIA/laIzKEso1XDZj/cCNi/+6BzCNKbLqgxm/HtWVr+yPzM/JwCt6LiY1YNc/sSrBNxmd6S4A8k9F+JCQrdCjIp0VHxvgDfj7woQd/qVkkGkWe4RoObNiF45UkLCdRUA15EY0HzaOsE7rFxweBwpPWUE3TGsxzJkNpXqQdu4aHBUB6qgDCvMAScl+Hd1fUdSyfhtJ78nD3iBmFkL3FKNRVoKCY7t8xdozr49OaRrOSk8mg6KcvVE0pzc80CnxPEt593KAeF2dA5r9yTCJyRAheez4SE9r6Owz3zyvCi3+6Ss+BHHw4aRJ+MU4EkqEe+066Y8Xzk/DI6NbrI7FswiWs+bASpcevYleiH1aEiRh37Rq+QhBeezUKE9rc6yOw4ItzeDa5Eam7CnE2ga71ZIhcpBrrUxdTNuGlXPLE3foAfj2c7tT2UGzrpIPzvVSIzqaXHevLsjORItyD7hGYTj8aBvshclf2XZPU5CkRDrlC3q6++654LokJOJ5A27cxDUPfpTEJvXA9BTsIVZPgu8ss/nyaEBtBp/QSEh7DzHaRp/FDuXFpjtgf11iISGMCHw1efkFjFBS5m92xp8OQFqaQ5zNBKM8VGz8VmUmpJw/oJtPTff7D9R08oOaq+Z8+IEAC0BzZW11Za/IketE5weNI8x+rSVsaj8pi5Jr/NnkRTafr1MKyPkIsCIlP4ZSBgm/MfezhbRUwYspi/L/Cq3X5kwbUdnfFGD0tA7PvCFKFKRbSIEyaQKK3J4cHtcsoYGj+Z3U/uel0xUjLMIHzGDncrrDuSTO6SqspzsBXB0mkU0KPuBjEDvTcNG0ltp8Uxu1cseCeUR1EpKklshFh+PEcwXfVhIOHK1Fvp4G+U0bg/jYRaUrkOy0cCwTxaGjE0XQ70fMGCSYkUb0WczQkiF0QYhKPVVX4LsdOpb08rSnZj6eP5EMRtQjvTxOZBNzLcgdNtpp0vHj4Imrop97cabdgbk9+8TlpIx3aBC3NkRQOL6XwQdCi8GopvlfV018KBNKkoUnhXiwwnfTGYLOsCEgNiI1u9SYaaE1Auk5LtwwfYT4nbYHS/DBubJ0EWUdD16mUjvLOTxT/cvaZp8VMhQJ7ql1x7MIw3J3QWkcTVj6sw8tHZcjc5oYDr9GQeAc9qUl2x1eXqewALVY9JKy/xkffE6C1HRXC/G0h0tjcfxQhbIzcLqVIaUED0fB03ZUCGoJWIjxcikJaFzKbPJMhwvkqISCHfi/QcLjxQUsBJnrzdFdXWSfDhXTNuL6jEEUucttUnD+CTQVWUdtCFLRw39F8zNg75lrOuTVa0dVBa2iaRVUjTUkSAoQcdhCH6quXcTj5NNKJFRShmDOju3NBu2mVnpZq2krzPluTC1HbaiFqu9G0DmjoRNy9YESPvLbdrLlnyXJrkCHMaXTzxIRocb9ObJwnfJMp0j2vBpcNAZhgk0yCieO8RXrMHRNHS7GlSI+ConroaA6uTa9K3DE1TkQG0BB7LGm8s0W0VmUxPV/G9pFLkpb6+dOu/+CEPB6b75hm12PXM4iDKHXtRfxy6xfYSr8IgiMX470hIqRF7qC+65Qas5DUFp/CQ/9biOM1lmumyX3DsWrxPDxLw4R8MAGnJkBi0NfiV7vJ2vYFh9uHrNvaUUgR2saJas2IjRS5LiSkeZNG72apBCVWwzshNB/z7ldk2FSowKZkCeYvbh2+FuZOKpBLZYfQ/My7xebaOTXMwWIcCUgSIMaD1j00HZ4IELyUpe2eu9wcWrtEFopJ05Wo2J6F3CuNmB0gI6EpKAQXCtAx+iONf7cfls/CDheMApKc3VQn3To2ooGc1BXXkC14HjseClpi5yaa23jzRIynOXK9OfTm20uszt6U15Yn7zje/uPJtrd6fYe2uwVhNi071OeR4uSFK71MAt/CcFr+KDQCsRNiMWdKaNv81h/Uth+YuV7VZPIyNtVj+wcXcVCkPJ22wZSmRotS+rHQPvRtTiyRIzhY5Eahy35+ggDUQ0deZsGbaSMk3SgyvENAcXv1MooYp3cU/1JZI/yasRaSBdjz573INP8wsjB7zHw8d5fY3AjzUj9VXnjqnrtwp/3oIYvihsobTdlJPL2d5oXW6BEcfjt23D0TEeLdNuia7EAh2Qy1eduI8rx8aANH4cH54bjRxwXa6gocOn8Jh8oL8d7n21F47314x+bTMehYssFDnUBPPy0aitA2CskW8mzZg0PXjAKV0lJQD9BBcPrQ3Me7vLDp7y7YTkE3by2uMw3/lQpBNpRWqsfKx1vnVdorn8/3ngB5BBtMokch7BxjLMiFIrCFb95q1AoeR30DsgspTdBwRI6WY4SUhGQOBa2Qp8G4hqSEAm1aFzWX0jxA4ZucxECjxZY6Vhbq9ObIfhmUIvdNQMJCrJxu+vavSt+PTYdV0JOndOqCyYjt7nxKayg07K4xRvu6QOnW20KsCzW/pwhtD68OHlhhMXKaIjA8KgrTJkUgQKSNdkrq/mkKWkr68QxEC52mozmsGw/hPE0T8LhhIpJoXVBnOXRNBvIU0tGkRebZLlZcdqG0QhKb7pGAVgoSPVxdzUpF3yK+nrOcdgUSzTkMQkCO0TSy0ebQX8DGV36PTR2n45gTKZbTShIkJK27tSaLlvo5p8YNU1bjjSj7Uzts6hoCJ8pomaMV3xzDCR1FbI97AJsXxiOip98nTszBoU0JGh2HB92aIQ+KxhOzwi2ith+cNxnbtmzHS983YOc3J7Akdh7m2vxccmJybBoT6IqAgkSi8RNGIrF1uNsmT+s1QVBaey1pSJyEYuyHFHSz1w3bC+uwKlyYT0lD3TSsqkhooHmU1nlsKuATvSVgoMCTa6bMAcGtXkVyIpOHUUpCspoCbvSl11BAfRswMhQ+JDYjQ0DCshgFOk9UCV+ywtI/resySoSoajpH6etUwri4qCsIdTSR0ni7tKa3sl9KwYs+Pqa8PrfMxoysXThSmoc93+RhxPIIO8KgCwi0rqLRe072tgnfLrJ0+zKtl/nUQ1brSHY7c28TklglRqa1Xj2RtCAPudvyUErrcx6IoYXIQ3rnte2tNfbyucslRi+hzj8E77weidheeqjEtJ5QZ5sIlA4Tn0ZmMAtZGwNbQL9njIcr2WhzSMdh5ev/D5NEPJKKMeNsRCRtOYRXaamfPArsudOQiT8dzLQsso76RtCr+iJsOfhvpNCC8rdMofmD4h8RG3Oc94QeZ09+gvsPXqS2e+LOeauwISHMlo/zNqBbljlQSLogfuYcm4Vl26ySemH54inYeekwjtfmYF8uCckbumUzJ2ICg4NAOM2hFD5hGglyc8mDGCEi+qppMXNhmJKGv2lJN9vDGHTjgedpruSmba5Y9dNh2ERBNhryXCY92YBY2xx8po8I6PNykG0UgzRsHNH+jSY1R25X1DWgIK+YIoBpqaAok5crciQJzuIS5BaHgi6TC8wcnGO0yQcjgkg2XKNdZYqv0bDrCJDutDqaUVJgHrcOCsKIrn5c03qUcxaPR+b6M6jIOIY9F4Jx77iee3tKv89DhfBFLuy0MwTjHxRxM3Hb2GJaVUGF41+fQdyqyQhx4Lefda/aey8LlEP4nVGqNg1b98qjTHNOK4W5prY3E503KT0ZzcERHUmuo8XPhSnWNh5NHUpNU3zh5y12E5LH96dPIslew6zPU3AazQahKRvX8PWp/fja+nrre/01bD25nz5zRCVmsAtJEpHfvY+lh/NRJgvDz5eswhvRg14Zi/bcwH6UPAMRR/MwjqtoK0X6IInczaJG80kmMCgI0HqQ86eCokRdcOAgPYwpsMb6qD4oxzHB/RTShJkdlgZqT9cedHNsrxK58yTYfkZIT0E2d4m4A6wr4Pe9I0DDoYeTc4yLjkvDYzCp45d0gA98yUlTQev/ZQvh2gpaJog8xcIREhUEj2NZKLikEqamGZcLCmhz6LggMjYUigt5tMNRDtLyaJg1wsoz1pCH9CxThE3IDRHdimSWUuDIndPysD6lmiK3j+F8xK0YLz5eKc6i4jy+PSV4SMmzelOcceH1oXcoMX7hdFoP9AiyS8/j6yMRtGSW+BaU/dr2Ed6I9ShFKa1D+t0FPeZNE4FfR4vi10gRG2Y9T7HV0iZkZNMMyDhrqUj58kyBeCNGiATaCNmb6mhLTQPmxVl5HcmeHKM3Xo4x4fbq7QEp2Vi88egv8KLIKLmxFNUxPLbrJC5Suj+vuP3/s/cmcE3f9//4E5KQcOXgRgEFREFRPKoWr3pMLXb20HaztrW/qd3Wa7+t7Y523TofW9d+22+7/rbpjmr317X2sNrDVmtt1XpRLxQVoYBEDiFAgIQjJCEJ/9fnkwRC+ITLBEHf78dYzfvzPp/vz/F8v643bqU4i3Sap5eTCWfffAXvXDDBKJYibcWv8Picbgzaa31eOb3VTiJlY/DSD9bh/44UWFuv9XZ9GxKQWQ/mgCww8e9MEZ3KdOOCPJiIsr6GEgIWrPyRiVevnX1TgS3FzrBAjjGSV/f/viIjJSmFB/pRSxevbNdZ8E43RGSM2TJs3EbxLImgJN7fjGWd2tahNOlhPhY6NvDKJXy6dR+pi8nGMYAkfkvHdyV0YlL/cirqRjohhYJ/i+PikegU2tC/48k4TFNwxR6wPCykixpLnDoZ0zmJH0loTpHNVL6dv9kxs+hwdvcJ5HMbi5DR5BDS1wUWIW5Bpt1hhVSEX+61E+BeF8LSiorzJ7Fl60mouT4jxmPZXK9/vXsdxqAVkI/FskVE5MkLX3P8CA7T2l33JFVieSZHZiw49okap/RuIyLbyX3b8vDUH07jxx86RIQCg758pAIH6YQU19SSW4F95ZRDntkLpnqSUrfhwF4isl0Ing2Xv65BLsdBw1WYPUqgw35nBWJ09Ehk0FGIgn/hgeA16KTS5o5LzIiOQrS3KQFn1/nKv/Ha37Zi43/LoRrjOxIJCnH0I1JnV5Nk9SffX3NDk0juVvD2UnXeXvpLeGrLCRzSB2P9Yz/AY0KROStKkc25khHYU9kxif1+NFmFoY9AzEMNdGxZJNb9NwDr6eDkA4+0YiF5cBs1dLLNtkDsKSCF55xmbHnOEaNSaEodTjcB2PgPIpSyNqxbywXRYskbCGiy9+D/naVXIZ1TbDRQ7EenoFcWjsyVSzHX/d1Eqm4+viTFluR4YFxybOdakPd2CpXPL7EfoZgY6RZtmFNF3zMN6q1nUKEtxAf/KEdMQjRUYjMaKqpJMkXkhhxnpiyf1T/HGep3YdZYFL1bCN2lE6TiHiGg4m7C2R0foIimarGQVMZA4YicntoRY3Hn/XQMpJAW0xsgD5E2lLdkYt6Fj/FlGam4dw8FFTfFbLwrGauKuJNttPj9H1ux4NZwpEX4waxtwanT9citoxNvoiLw8GIPalEiirNHN+GNFy8id3YY1fVHc4UOnx2jcEeEe8y8eCwXUHvzSxKuwHhdOZ74UxNun6lAvNQGDYUE2H2SCxckxnQKrp/mBYHkkFj+guM4UGEfSdpDP+E3575JrXj/GIU44t4j4jZ8m70Fy7I99STBuKmr8Zd0D2vrqdoQy/cdkVTEYoLUhE/NBmz++ATmPzwT412/fPpS/GHXBZBUHfKUNNzJzk8cYrcGG453ELBg9Vu1iJmoxPN/pTA+f5Rgu6NhWQQdmfjLZvzv75tJvdVTby5ONyQ5ki0mb25BNXhPbbBrHhEwUigfTiLHJfKsDqGPduJY8iieORZxgusSQESSc50lCRFnP5nk+hEgh5tkkiTSMXPc2dnKiO6SIHHMZDy8LhQH9p3BKSKcmmJyNOA7JweRuGTMWjwLmQn9Z3SyMTOxJL0cH5wnlaYHFTd3lKNTCCqWBSIiKhopE9LIe5qchXz3NeBnNzSSEpl3TMalN4nIDxUVt1SBh59JR8KuUjrmUI+D++h4QidYUikyZsfg4XuJ0Lnfi06Pb1EAZv+fFMz+hE6/+aIU+5zSRe6s7cVJdNa2qnvYH2f7okDc//MYnNxWgl0f0tnbzvyQQCxYnoyfz/ah1G6QbwhN9mmHtH82Hv/ZNB9uxCn0VLNjN0oHBeRe9SxJ5iBoTeaMR4c3kfRrb7cJeAB4Z4VNFafxIEklz3Iv6WAV5o+NQzKZcZj0tTj0nYaO46J8RRJe/0kW7hz2xwRRwC2WGAI9IkCn3hSLUaXzg0xJzjWjLQ6v7h4rsYs3MgLGJmjrSQpqIxLJOfEEDQ1v4hsZcp/OjdSnL07PwvPn5Fj9aR7eWd7P3kgq3lBjQr2B2CBFAYiPknaE4elTS6Y2lNO5ms0kTYyJDYTKEw/MLcK9f9eixcVb3KxvRXkdESApxZCMlSL4Ohu+9Tpfyxk8P/FuvFhMGp89Odi8uKcaJuxaPRUr321E4iNbcenfC31IJHsax415zad7UGncLXj7MTk27j2Nt79rwKGz9OfEMUCOzOmT8dTiiZgyvMn4jXlnsFn5AAEbYsaYhZwrfdAXa3JYICAje8sR7AU4LNZqMAbpL4aK3MkHLFeRShA/emC66AA6tjOZC0J+IybLaRzIpkCismlY9zNGIr29xD4lktxgpZFj8dQa+iObnIq6RtSaKK5koBzJ4UF241pvz4i1xxBgCDAEGAIMAYYAQ8CJwMVjOE72kTH3/R88ns5g8TYCPieSHQMmd/u46Eg4omR4ex6sPYYAQ4AhwBBgCAwRBLhQM8/jif2dw5FNXIU/PSIQrHuIjHjID6N4L57fdAw6pzMc9DjuCLna29jVR3KQjxQ8/bO7+xRSq7f22PWuCAwekWTIMwQYAgwBhgBD4KZAgI483L2VyEtnkt1zC55nRHLgq68+hi0UukfTQSQdTfWBxQRm/hjvfBqFhbcOvHtW0zMCPnW28dztjXiFOdvciKvK5sQQYAgwBPqDgFHX2BlCyrWiTA6lu+d1fxr2Zlk6GrGFc+jx90dw0FD3qnFMnMzjdM10qIMAkZSFyJnjojfvj362xYhkPwHzXJwRSc/YsCsMAYYAQ4AhwBBgCNyICAyTrciNCD2bE0OAIcAQYAgwBBgCDIHhjQAjksN7/djoGQIMAYYAQ4AhwBBgCFw3BBiRvG7Qs44ZAgwBhgBDgCHAEGAIDG8EGJEc3uvHRs8QYAgwBBgCDAGGAEPguiHQB8f56za2YdVxtUY+rMbLBssQYAgwBBgCDAGGAEPgWhFgEslrRZDVZwgwBBgCDAGGAEOAIXCTIsCI5E268GzaDAGGAEOAIcAQYAgwBK4VAUYkrxVBVp8hwBBgCDAEGAIMAYbATYoAs5G8SReeTZshwBBgCDAEvI1AKbY/8wR2VXRvVzr1l3jrV/Mg7X5pYDnmWrz3dgmKEYKsH0zAtKFyas7AZtN7rdy/Yd1LX9IJ2+5JiUXP/hePZrjns9+DhQAjkoOFNOuHIcAQGFIImFr0MLset+YvRkBQMKQiT8O0wKBvgZUuB4QoeijXWd9q1MNAp7pBEozQIPfXrQVNteXQ1rfABDGkoVEYER3msd1u43V2I5YhSCaFqA/j7hgZVyeQ6vhQJ9Uxd3c4e+nb1ETrQqf39T2JEaQIBj/9thY0GdzP0LO3JJIGE07ua9D3XvpU0qJHzbnDOJoHSMOioXBhjbLY7hSoT216KmQzobJUR0TShlrhKXuqef3zbQaU15Ygr1FP974E8uBYpEfGI1LSw9BMOpQVfofqjiJG6Gu5+tFI0PVQ73pfamtEXu1llLcYYPIPQmRIDM01FnIfPnuDPWUfP1WDPR3WH0OAIcAQ6AsC9cjdsxU59d3LioKjMDIhFWmTMpCodHlF2qqQs/tDXGwRI2HBo1g2trfXpwUlh7fha7UFQePuxZr58R2dGUqP49CxMyhrcmMAsiikTF+M+eOj7MSoo4bn8fJFiAQHqeKRNH4mpo+P7Sr1MuTh6w8O4Ko7OePqKGMxcnQ6MjJSERHQHYtrydGceh+7L7UIN8H1HR6PlLRZmJoW1TleWw1y9ryD3P4QA/9EzH/4bqTS+K3lB/De/mKe7AumAAWiEyZg8i3TkKjobf0EW+hjpgJ3/KUQm5b0sfhNU8yAvLx38fvzJ5FjdJu0KAILUu/FhmlTEC+0KZrxO+zP+V1nJctJvLxgMd64MkTBs2lxMOdd/LngIorbuo5RGhCPuyetxnMTk3AjxHvx5ZPUbXUbayuQo2lEo1kMeXgkpiaobihW3m3CLIMhwBAY8giISBIYEUxfrnYrzM31aGipQVk+/RXmIuHW72NpuoPU+YdBGUrTaSHJZHMj/SOsl7mRdKzZThRDwzo/Fwb1Xnz0VQGaiNiJSBKTMGoE5GITGiqKUFZfg6Ij76PR+EPcOdWdTNq7E3HkL1TW0beVpHCNuho01alx8YgaJRWLcc+SdHBD7Zo48haJUE7qYzWRdLUeTfXlKOL+6GM3Y9FyTB3hNcVrZ9eyMIyMVDiIsQXWNhMaaZ5NtWrk0l9RqWO8nITGXwpVVDyiZV0JtrWpFlrCHRwRDAtym1YYgtyJh38wIkZGoaNkuwUmQz20Oj2qi49jJMxqWwAAIABJREFUX2kxpi77IWbEDOon0H1BbrLfbcg7+zpWnytHoyQWd01ajLuiY6HwJ+mkNgcf5B3Dwbx/orjlp9i5YAoihzU6jfjim//Bz680wsQR5JQZmB8eAalFi0uVJ/FxZTneP/06iiy/xs4pnRvM4TrlQXmKTHWFeP3DY3j7Col2XZCSKuKw7p7FeGqc24thuKLJxn3jI2DyR1kloIi3oUOgweWV+0EWa0VUcM8QmOr9UV3vB5O0HQnUhg8+2z0PgF3thoAqNQv3TO0khSadGnnfHsSZUj3Kjn2Mr4IewNIkbmGDoVLRfzVEEPWcmrIXImmjTTMvkJNCrlDY+zWrkX3UTiKlMbOwfNlMRHSo82ah7PCH2JNfj+qc/cgd/QBchtUxblXKEizrdsGE6rO7sedkOQzqwzhZkoJFSe53VzCS5qzCnBhnU6Rar8jFyezjPJk8uW83Albci3THULsBNdCMiMlYsiyj671Oatnqi3ux74QahtKDOHQpHsv5jhVIXXAvUt36qj72Fj66SJhHTMPS5RmdBNHTmESxmLZ0ORLdCKZVX4AjX+xHARHvnKNnkHLvTKg8tXFd8m0wNJqga7WRNUQgqUH7qf+0WaCvM6DFJoEyPBDdrCl6mpOxFZUNJDqTShEZJiWFs5eT8ST+nkckkmRwP5zzK7w8uvO7P3VEOu6KU2Dl7j3IKfsQ22qn4OlhzCRNFR/jzzyJjMfTWb/GE646+4nL8IPT/4OVF8qRc+lLfJG+Drd7HWwvr10vzfmeSDZcwlP/Ooh9TUBk3FjcNzEG8bT7zivIx46iCmx6+zPIfrISj8W5byl7GTm7zBAYDARaJHhsViCOzjRi5wP++MXPAnC6ht61iRZs+tiAOUUyPPBjyuNUpAobfvRXA15a0k2HiNPvSPGXf0pwtBidm6mwdsxZbsZvfmXCLa6chPp89vZA7Kqn679rwZZV7u05J+6PXT8OxrPH/KDIasX+/22jzzBL14qAVJmIqbeTNOuLrThU2gL1tydwddRCjKRXlFzJSRbJppEkkgb6V49bYLKX4+0j/RVQKe2jMhSfQQlX0T8KGbe5kkjuejASMuchtexjFJBU9OLFcmTMi3dTcXuanRTRUxYjQ/0WTtaacLWCbtKk3iQdYoTGTcOi5WEQ7aI+m8px6mQxUhaP8f0GhySP0ZOyMLd6C/aV0HiLi2FIn9Yznp6m3o98kSIVc29VQ/1FAUwNalxtISLZy+avH80PvKi5Ed9+XYxPz9Wikrs/HEmiVCJz9jisulXZAzZENomY5x/Kw3+PUX2nylgsRdot47B2aSwi3b70bZfO45md1WgbmYINq8Nwfvd57LzYAoPjVSMJkmPaojSsmdFTv/2cbn0Z8jgVryQVS+MFnhzlVMwKISLZqEUekWFECpTpZ5fXq/iZ0gsop84j4+/AI90MPyWYkDoT04hUH7eUo5i4UW970us1j77228/tTl+bdZZrxI6PDvMkMi5jMT59lKSP8ybivlm34A9rf4CNU+hGsdRi84HvaJfCEkNgCCLAvYBJqqSvFOPl5yVQLG/D6hntMKnp90YZNvxSAllWG350Wzuken/855UAXOiilfPH578IwspnJPi61oY568x44U8mvPALC+Yo/HB0qxQrVwbia1dbvWAL7qD29CS5/OpDCco8wVIuwfYDftA3thMZsDAS6QmnAeUHI/XWaYjg3pBNBSiqdKioVeRkw7VHjjqcatqZrAb6TVJKg6stFJHNpnYqIQ6DiveoJcJUVmW334tMRYqDXHa2Qv+SJCJllJ3ZGCrV0HraQ3Sp5PxBDj0hdsZgMpk82wm615UlYsZkO2E1lV+E2t12zb28135LERHl2EFx+PVrrgMfhIgcpYL4Lx+ZMrjZrg281WuoaazHzrdO4J/Ha1Hrr8Sts1KwKisFy2l3qTTocPjzU/jTJ7X8xkU42VB5JAevf9MIxdgELJ+fhNsnyWlfS+Ty2/N4ZXd1t7oSmn8beTQZmltw+KNTeK9EhEkzRmPl/NGYlxwIEovi291n8M/TrcJdDiQ3IMhuymZrg0lwrWkx+HxyvgkY3iK6WZl/Ru6qV/F55hThTZmfc36BZNYyEDCHVh3fTqHiAjZfJrPn4CQ8u3wsIrvQVinmZ2Vh4wQLxsSRB9PQwoWNhiHQBQFTrhiFD7fiqz+1QVouRdlcKY6+Rdb9D1Dey5RXH4CaGTJ8XizCBSKFE6Ps1Ws+kuHZD/1hCrPihZ0teNRFZ/foT8XY8IMg/COXJJCvW3CEa5uvRpLI+9qQsjUARSck2FVgws/ddX1UqohI5lFOdTqByO1sjrGw5FUESDKZID9OdnWkhq2iRY2nRZWHIZTeY6ZmPYi/k78oJXLCOfnpe8glzWtQGjnVkBSRT+R9zEt4QokQcAoXG2ej5yCkkSMEbBjt1SKiyDbykhrWphrUmqmPTnNIewFP/8+132BvX66Q91GSaW8saFQKIo6Vo7qtBppaILU3YaanMfQznyO8fJLIEOBjsYZzaCZtDRq5dZHIEXrdpZE2FO+/iN3kCSWJTcBTa9OQ1rHeSbhzRgn+Z3MRik/n4b20eVg7VgAkMqE4fF6O5WvnYWW883oKssadw+93VKP2XBG+nhWN5fzN6pbqKvAF4vDUkxOQ1iEATMG8vcfxp+MtOH+wBPmT6Zo3mELYVNyu2IO8hu/wQbEWt6dFdBmMqfoEvuDYsiwdt48Y3kQS/kSGAz3NoQ05+Udxhu5BacRULLgByI/AXel+pw389+W8UlwmsCLHjsd8oQc2NAZLJ8QhWcHU2gNHmdX0KQIdtyaRO5I88kQv1oYEXofskie3IYX7+Fr9UNMhXSRp5Dti1NC3PeVBUxcSyY9ZbsHPH7dLEss+kuArVwfXDCKHU6mMxR87dwi8xS1ibN9lf3zn/KANEwWK8H2wdA0IkCTRYQjbqG+0S/hCwqHisG4naSOnkuJSYxmuOv7tKkU0tHBhfcihRh5u3yi3k1OMQ6wUFOJZbScNphBEfMOkavTg9Gzv2OX/rXqos/fjIuftTPaBqWMdO5luBT1kBNJceQJD9p9NrpbsHsp7I7utHAUl9oclKCZ+UIQJptpcfH2KSDqNPygpHUmevvXemF9f2jBXY+95Tuonxbyl41xIpL2yJDYJq24hCSHdSdlnuksWnV0o0sfgzg4Sac9VTErCPI482lpwOt/DjWTzR9o86rfL7eiPMXMT7OSxsRanOR2tN5J/PB6Zcy8WBBpw8OSLWPnNJ3i/6Cy+uHwM207+Eyu/PoRiuncfmbUat/d18+SNcfm8jTY0NlahmOyQc64cwmtfvYgfkX0kgqdgw7zFGKQ9m09n6cPPjwk5Vxv4wU9IjKHHxIrasss4VNKAcnpuFAoVhX1IxhQVI5E+XWHWuHcQENkwNsnZVDsobB3pu9sRPdKRJ26HzLFZMjq/wxQm5ug5uk7X5szr6oXqbEkx24JbpGJ83SjC6QLgjmnOK1as/IEVL58UoWg3SR5/RapwF98J0+EAfH6FyoZZsPpe7rPIkvcRoNiOfFBJztPYoe8VEeHi3KHriBRy5JHU04YKTgUdjOhoMaopLmQZ2elEcPmNdoMdzq6Sf8vZjLA6lkpMEjiPSeKI72gTVr02FH2JPZrO+rzXNucFTdJLzh4zcW4WMoTU5h475C7QXB2kysTP1d1Rp8fK/btIKtcmTQHOfHsMBZzPEoVCmTqpr7agfezKWoUz+z5GvrM457VNHvlanT0OqDRyJhbNSuyX1LaPPfev2NV6FHNwy5QYP0pYrjMmWQnF8VboK+pRaotFWrdiRAZTwgWcY+QYHy/G7moLKqsb0UY2uN14s78cGWMEaECIEmPCgfxqilVJf0j0zv0gjViMf2QF4c8H38W2ErKHLOmESxqciqdnrcMTcTeAiM71LrBdxmt7/oJtTisBzot7wjo8N3kGxng55Fb/bj7vlRa4g7zUOInby/lYYOQBFlCLTW/ux+u8lblL+vwYMomRv740bpi7+nsJM9bM0EWAyCBPHrskyuvp/VpFHtocf+RIaIJ7XcdvOXlvc9LNGj9Uk3+Ea4oiR5w7XiGnmyoxdn3jhzlLnOprznZSjDJqO4qkpHf04jzsoWeW3SsCRCCJzPGJ4h7ak9wupSQi6ZTcXa0gXbAkHmnpwdB9fZEcXVowVSml65wUiBxalM4Fcn3dcjeGh5uHSA9vK0aEQeTn6NblP1ZdFcr4d6tLCqAQO2NTkJoxAylhA3utW3n7NOE+u3bWz1+VB7Bt8+GOSlary6ZKFoupFHbI657iJIXTlqvdBkrhjyLHIGnsZEwdH++wk+znXLxc3NBAYZi4Ni2N2Pt+Do4LtN9maraXaTbwpg6dqm9HYX/y7g7vxi75iwr+BWVBG0mZuX66OePJqK6gcJy+25xdL0X/1vMSavd7tRRf//tTFArtjxOX4NGscY7Bdf1Peck2PHr8GPJsEbg9dTbmR1H4Hz8DahoKsK/oJF7b/wKyiWT9Y0b6oEioBQfp9cxgJEenYkGrGfpWDQVhp/iSedtQrq/Chll3YVa374rXB+DzBgf2xunTsChWGL+JtyB73xf41BaJdXctxF2JckhNjcjJPY3Xv9Ug+9BneEy6EjvmD2Nf/z7hwQoNewT6Kzyn96+J4yFUjyJqeEidkkxTC8caXGwdSfW9Oqsdu7b64XOyh3xhidn+IajhnGyoqNiGlfc77So9NM+yrwEBK0xG+5dSyp0cw7ckhpL33K4niSOJ06wtKON2C2HxGBlHnsgijkiWw5QeS6F/KJ9iT6p4XTglkRQkfAaIDJhMQl9gezG0kSSS/yeVF7hvVJPuxbJ0u9SmseAz7MmpgZUcetIzZyGxB0Gno3Xh/5Da3cS/r0ky6RStC5fsf66fFEEhLgPzE9HvMIrikYYJaWOg8oVUhpyW5qxYgFHcorWRDeuevSgiXh80eibmUFzQoZLaLFaSFFKytKK4oBfHFn8bOchQ2W5rLEKwwH3CNSsRO15aFpvjnnKbOTm1CPJIutsDHFXbqG63ZCEv71eexy4Bjbl0eQzWEpHsNqSGPfj5USKRpMx9Yumv8XS0q3x0NtakTsVvPv8n3s/bgt+rNuCNlBtEMkkq/TULfoE1DhBNzQV4/9v/4s/le7B2jx5vLV+DWd3WtBviQzrDh0SSXsL8/WdFhWUUXn88C3d2bIdUSE4YhamKnbhzrwZnvzmNfbdmYekwB3NIrzQb3OAjQG9S53F7Tp+C7oPwg9GhNZUGuzvMkEqciGLKO+R0c0CCz6vMWB0LlH1Mqm7iMNJpZEfZoQrv3jLLuUYE6JQVjcPeVRnWKfaVqyhcDhHJxhaym9RWQkMfdxXZ+IUS2RxJ/gNl1ZzTioKO6qP+/Sj0j/O9R0GyQzkpD7XJBQMXkA/xAzaQkw5vHeFH5QWkFdxRf6Gh9kZDp1HIn9L3kVNXjCNHihFNoXuEiQHftOdEcRW13KaHVJ0dxNdz6f5diZ2Ne+9wiyPZvxYGUJrIFWEUypMhBebMKsJVOvFGS/E5T46iQOThPvz09WO0QcTWODrVpkzA879IwxhhwWKvLdLeQzBxRJVPYn8I8nUbkVPBmp1mFRIhLyjxJKx89k+YKNCvbPSk7iSS+sgrOoYcKi+PX4JHupBIxwDIZvChpFi8f6GK7CYvoDFl9g0klewEWRqSijULf4rGT/+E1xqOYWPhMsya1NXxSHBJhnCmD58mUYdbe/K0W1xIZCcaybdOxPyvNdhnJMlkObA0ZQgjxYbGEOgvAuSUQ2ZzJH6igOVl9N94gQYa/eg0E8on6WLCCIHrvNNNADaQreSu3SKsXgvs2iXiicaiB4lkClRhWd5BwFpZgDKODJJUceTITqWgSEHOM/7FaCBPGA2dUNFE9pGpcXYp18gYIpxkJ3m1Nh4t3AYhiCSSHW/ZMMRQoGfUk5qxtgpaJKL758MCrdPGISwWMd2M2tzmRvEop902DeqPT6Ch5ACOFMdi6RgB9tkLJNrLRWjgNv7BI5BwA5pKSJMWIjOxnI6rrEHuwZNIumcWIvqrYegFw4FclqgCOTNb1Da3QksbkjEDEaaQzamOM8cVUOrp9XbJtySUgpMLDZACnfJFurFME2odlmiK0G6yRaowCovWPYlFQm16yKuhkFlcUgTKPRLEqMBAOwk1asFZ+gxPmSSdrX05B2fobO2oUcvIU10AEJJSTuVOaGowoKhBQwW6vwkEag3ZrAHuf/owH9rZRjnO6IryJHcXk2SSB5lsP5oFtjZ96IYVYQgMWQQoHuScyTQ6C8WLPCa8Z9NT/mmOFYbZMD1VaCZ2pxvuVX7qANlFfkeSyTz6EUVq72UCKiehJlhe/xEgdeiZbwt4uzJRVDrSyPGgI5HNYyhnhWCso1OOaBcQEItRjtAqEXEjEGTTQ1NaAwP3SlNQ6J+Ot6wYIxPj7R9KXQEKHLEpuwzOWIz8K3ZvrYjRKR5DBLnWEUXS8WvpHPuj4OnZB1DkIABd2u3ph+4MsvPsolfV2Aw+8PqNl4KRMnseEogwWevO4BBnDjAUJhkbhmSO4VkacErQ4JCu0YalmHN48ZhMKKZTVLonqnfVXm9EbEh3RxuuAtlmFpULvEcofmVpHVcgkO5tISLZvbfechQyO6OqadKArIoFUznZD/IjpqMwhfiXYKU+Zxpx4Z3nseH5Z/DsC8/jPycdqqA+1+9rQTOOX3oXL5z5BK99V+KhUiOKyeaVSwqpIMX3UG9oZvuOSJKH2PhoO0DlxLqFE9lR8sZAIki77YiEa7BchsDwQcCGO1ZReB/ikBfoZJvt7rb/5NX9j41icPv0lFXmLl7ZrnPknW5I4GU6LcZ/PqB4liRBSLjbjO8Nz+36EF8+OjawMheHdn9E6mICWkISv1kZXQmdiNTVnIq6+QpKKLaTKDoRHWHv6N/R9C7Tqov5ANtBckcAc8esRWSjN4HjfEQ2Lx45CLUzhBB33VqPgsOHoebeiUFjMG18X0WDYkTfstDusGIoRvYxOwHuFWiy76wuPIyPdh/GVa5PZQbmTLFLVnutOxwLBKdj7kyOyJPUN3c/ztT2YKc6WPMLiMT3JnPhfSw4c+ASzje7dUy2k4c/oYDkfz+E5/a5e1h1li09XYJv3bikoeAyDldRGRLqZKZ5klJTWKFvykBnJbgkG0qzryKfg0cZiVuckSmuEZMJo9J5pYypej/+XiHACRqP4U2eEEswjcoKCFivbQRk17lr49/wjy1v4j8flkIxeiDi374MgRyJklJ5aWpxwXa8VuFO8ttQXrgdm8mRiZO5zooTUlX1pZ+hU0ZYTOKV8YkovE8c5GcKUZGfj+ylMch0J4u1V5HDvUhJdTQh5obcBnsFSdbI8EUg6l4jXvomGL/4UISn7g7B0QfaMCeBTsapEeGrHXTaTTHtSGeY8ZefWQTtiviZdzjdiPDWVnoRS21YfX8P5YcvXNdl5NrcD/FOAb0K6Zxis5GcTpyiqgA6xvB7d2Oq+/lynAMNdxwFnWTDvb6i6UPQIbMh7+1RUWKoKygYOV0bSfaUXRKnil44C1c/PY5q3UXs26FGREwsQunY2KZqUncb6OtNIYZS5y3sn+MM9Tt9djpKv7iIppLDpOKOF1Bx65G//y2U0qvWajWScw2dfuMgECJlOubfTsdA9qZKvy4r5L1OQ8cvxNSid5CtIRX3N0NBxU0xGxelY3npGQpKXoXXN7bg1snRSFH5o62hEbkXq5Gvo2Dl4bFYOdtDTCciitPidNjyjxO4NDUaY6iuoVqLr3PopByCLvKWMVjkiZWRdH1McxFe+KcO8yaFYUSADbWlVfj6PBcuSIxJC0ZDKDrQQFZEOuIObEi5iEeLtNj29QsoTphJXtsRZCbShlrdZXxRchZ5tKGJjL4LG1J9oOotPoyjlfaRp9z7JL8591WKT1uF5ypewW/I9OXv+5/DF5HpmMWditVuQHldAQ7W0znc1PmYpNUU7mj4P3Q+JJLkDJA2GQ9GF2JT9SX84bNRePvupM7Tbcy12PLpBVyiF5k0KQ1LXVVHvlpd1i5DYNARsGHFX1oQRTE7Xt5MYXz+IsUuxxikpM5e9JgZf3jKjBRPAgO+rIvTDb19pLeR3aSgGnzQJ3djdGimUD68ZoQSeVYHhUVh5KhUpKenw6FUcZunlBxoaMHKSZbM2U/GuSrhyOEmjsgjd9Y1aWVCld0XVhQ+E3feo8DJ48dx8aqewtSQEwjfA4WnoTAhGbcuREZM/9WJ0vh5mDVGjX2FDhX3iOVIcdOa8Uc5OmYjCgiGiuwwE5InIz2NnIVuir18GDLmzkDJLiLyvIp7DO6ZTicJua3woP6k0E0r187EyP3fYee5enx7lI4ndA4gIBBpUxOwcikROncNKHlT844ydG759HsmYTqFnnr36Hc47JQucmdtz0qjs7YjhdXaXF1RCO5ck4Dcj/PxxT46e9vZb1Awbl2QjnVTOWmpt5IcC+b8FjsjSOWbdxLHr+ynv862pYHxuGvyHXh60hTE+2BBas6cQCHH3oLphKD1Mzxv3L0xXf9Y/PB7GxB/YQc2FpzF8dqzKHbR58vJ4eaH6Xfh6bSkYWoH2hUkv/Z2m7urqDdg7GjDVHUa6/99AtlkjiCPHkUONSrIufA/haU4q6etf3Ac/vDIXUQ4vdrtoDdWrXHVUQ1696zDYYEAnXqjptiS5GAjo5NwEuJt9nAww2LsbJA+QcCsR4PeALONQuKQPWWozKd7e59MgTXqggCpT9+4fS5ezlNgxdYybFrST3RIKq6vM0BnJDZIUQBGhAeCOxe7z8lMAcRrW0kaLkFkZDAU7lpAZ0MF5/HYO1UwuHiLt9G525UNRCUDKIZkJDnn9KffPg+ws6CpVYtyinxgapdAGhiOMT2c9iTYvOUkXl6wGG9cicbqtwvx+m2CpRyZRnz+2Fis+0iPhAd24Mj/LvEtkXQbiqmZTrZppfBOfnS2dnAE4j0en9jTHIbuNZ+/taSxt2DzT+V4/fMT2HG5FDuqS+1o0C4qedxEPLX8ViaNHLr3BxuZVxFoR1SiFT7UqHh1tKyxQUCAnApUkd53KxiEkbMufIEABb5XRMoH7mhCJHDEyP5Ls7mpSEKCMYqz/R2kJA2MwBj6G5REpPPoaS5m2gysXj+4JJKbnzQkFhMGEdtBwdSlE58TSR7E6LF4di39GRtxWWuAidRHkeEqOvFmsKfL+mMIMAQYAgwBhgBD4KZC4LtvcJocj6KW/xg/YmZBXl/6QSGSHaOWyZF8o52j6fUlYQ0yBBgCDAGGwPBGwESRGijMzOHOWcjS1uA3DwgH6x7ecx2k0at34+X/7xtwFnH2pMNpe9SqXgdQ9u1JFGIcHl1338Clvb32cvMWGFwiefPizGbOEGAIMAQYAjcNAkYUffkmilzmK82aiZ8zIjnwO6DsG2x/601QxK2uqQ8sRnbLk9i0NQZzpg28e1bTMwI+d7bx3PWNdYU529xY68lmwxBgCDAEBoKAic5gdxzR3rW6lIJsd3fiH0gX116HjkY0cA49/v4IkvnYq+baR2tvwWKEnk7ioZCbXRMRSVkQhdbpA6H01lBYO10RYETSS3cEI5JeApI1wxBgCDAEGAIMAYbAsEFgmGxFhg2ebKAMAYYAQ4AhwBBgCDAEbhoEGJG8aZaaTZQhwBBgCDAEGAIMAYaAdxFgRNK7eLLWGAIMAYYAQ4AhwBBgCNw0CDAiedMsNZsoQ4AhwBBgCDAEGAIMAe8iwIikd/FkrTEEGAIMAYYAQ4AhwBC4aRBgDvNeWuoo7WUvtcSaYQgwBBgCDAGGAEOAITA8EGASyeGxTmyUDAGGAEOAIcAQYAgwBIYcAoxIDrklYQNiCDAEGAIMAYYAQ4AhMDwQYERyeKwTGyVDgCHAEGAIMAQYAgyBIYcAs5EcckvCBsQQYAgMdwRyj1dgWzmQMDEa/3e8ZLhPh42fIeBdBE5uwfc3n4SxW6sjcf+zv8e6xG4XBpxRfl6DTfkWBCRFYMN02YDbGR4Vm7Dr1d9iUxEdJemWZIk/xOZnFyLG/YIXfjMi6QUQWRMMAYYAQ6ATgXY01BuRrwHMCe3DGxiLCTqjtcscxBIZQqQ9KLPaqI6J6ogkUAb2hUTb0Nxs5I9QlgUHQebnBpmpCeo6PbVJZ0NLpIgMi0RckIf+BcbrbK23cVtMBjS3ufTtL4JYIkGIxENfXlnZzrl3aa63vnuYp8dh0bopHevWba7OStSvLEAKmY+ZgVFXggPZp2CUhiJGGdA5ZBGg6c6BPE6pLxfMOhNyNW0IVtL9M6yTBfqWFjTQHAIDFIgWfLTMaNCocanEhaKbm6BpMENmnYNWH83fh7eLFY0NLWjs09qJERkeBKmPJsmaZQgwBBgCDIH+I2DRnMemE1U8yeuSiCRGqCKQkjAGmaNVCHEhf83lZ/DXs1ogNBk/XjwBMe7E0L0tXSG2HSiEFioszpqLzEBHAYsep86ew8FyPYxd+Lg/lFFjkDUtFSlBXRvzOF5nMUkQ4mISkDl+DNJCuhLE8ktH8N+S7ixGTHUiIqMxJTkZU6KC4NWPprEUH315AWoP+w0xEa346JG4NW0MUlzGa6k8h7+eqnZHssffypS5+NkkFV/G01ydDYgDFUiJT8bctDjEeHXCXYcoG7cGX7+zDmk9jpxd5BC4UvoxFp4vAbfqM1N/ggMpCgFgwrHutd1Y53JFt/sZjHjugEBZ72X57hax1WLzlp3YVNeHwfqPwuu/+z7uvNGlzn2AghVhCDAEGAJDDgE/Io7hIeBe0RYzSRxbDNBqq/i/s+pE3DNrIlIc7++QkCCEULnmVgMaSJAQQ1KmHhOVa+aIFJGmCOc3wKrHkSNHcLCeGuD6jolFopxEMK31KKpqgK6mEO9+Y8B9C6YiTei74SdFTLQSoc6ObVa0Gkky02RARXkBdlRVYe7suVgQISBt5Mg0Q8DRAAAgAElEQVSmgsQaNhvN1QgtzVVTqcbeylKcSpiM1bfEQdkbOe5xwkIXiRyTpDXSKZyj8Ta1NkHbRNLYsgKoK6uQmTkLi6McYiiZAokRZrgKUGEzQVtvIHWxP0LkCrgK+kg8DGWIwOeeME9UdZJji9WM1pZmaAx65BfmENZa3HfbZKQwKY/Qog1eXnMOnrpkJ5GD12nfexK4s/peuceS/kGYMHE87mvqoZShCvvyG9AYKIXcdyPpYQDsEkOgnwiYAqCu9odqpBFK5weSy6sUITC6FTFuEpKurfvD2BCAKp2IVDptSBxB6oZ+ds+K+w4Bc2sb6g02tEnEiJaL4KJw67nTNisaSGcUECwC/e/GTKIILJgzHWnO+VlNqCgrxJ4LalKbqbHjuBRrbxtrJ42hoTzRarYaSB1NcPT4TFA5g9FuKxcUikgHQdMWn8MRnkQGIX3GXKyI62Qyixsv493DeVAbKrD3PBHMGbHdnyNRGObe6jJex6pYmqnO8XM420RENbcYExeNRYT7iqmSsXpuYmebJj0uFubhyyIttGU52EYq4scmR3hXMkm9pUyciSy3wViaq7D/5BmcatAj+0wBxiyZiERaA3FUKh6ivy7JVIb/fn6OpJsSpE2ei6xI94kJ/FaMxn2zXebqKNKsycP2E5eJeJdhb34cUmi+QyrRM6dpthKR9kMYbTD6+9xxz3p1sw0SMr2IcZNM9zzPdrTozNC0cf0GQDUYBNtWTRL+Q9iHaNwWUo1vmnse4fW46kP6JsfSpQuw1OOsDPh023bsIIX2/KUzMd+HI/E4BHaBIdAbAoZwPHhHHA5MrcLX9wZg/XORyCatnSyhEW9vvYyFJXG44xnK4wxXQs14/M9F+Nt8s1urAcj+cARe3KbAATWRSedVVRsWLtHij49rkGnXONmvGFR4clUC3tG1Y+FTBfjwbvf2nA0EYPvTqXjilB9Uiypw5oU6KHubD7vuhoAN+ee12Ha2Gbk6FzscqQTTU1VYP1uOeEFbJKClWo/Nh+pxUGMFv0L+foiJk2PN/HAPKLcj/2gFfn/ejIDoMLx8jwrx3QRibTi0pxIbr1gRmhSJ124PJYXvEEwiKeISJ2Ktwh//PnwZ2oZC7C8dhYeS6MsqC+ElaxUmkuZxH71eiCQn3eSSLCSEl2SivQGnSvS8Oj0kfiLudCGR3GWxPBnLx1Vi0/kGNFcW40JrLKY71eF8S56TOCQOWRNrkE/OUEZ9NdStRCR7qytVIH3iLMRIj+DfF0gaWpKH7KTbMFfuuR9vXRGHxCLrljEo/6qQpISVuFhHRDLKW617bickZgKWJVbhrSLaDNRooSG67QsnDc8jEL7SUNaAN7N1OF5Dz5zzcfX3R3wiPXdzwjG7J1ExPWstdY3Y+lUdvnQ+s9RNMEna718YhRUj3B9GM957vwLvNYiwZFkC7rfU4ZWDeuTy4nNK/POuwKOLIjDdZ/eCBbkFX2ADCR/umvR93K3ZSkSym6GJMFiDmOuO3KB1XXvmAP6Qb4I8ZSb+4LtVGLT5sI5uUAQ4CYzBHzqNHL97SQnVkjqsm2qFsYx+/2ckfrkhDIGL6vB4ZhtkTQHYuDEKZ7v4Jsiw63cpWLRBhT1aCxaursWrz1bh1Z/osDBUhAPvx2LR2tHYwxFRZwpqxD2ZVujoBbZndzjUnqCtDMdbR0XQNVqxbImOkUhPOHnMt+LU/nI8e7ARuU0iZIxXYv28CKyZFooMiQWncmvw5M465HfRHzoaa9DhTx/VYh99kCRk3/396SqsmRKKZFJHvrGrBicFrdr9kJYZiZVhQENFPV45YbQTUJfxac7XYGNRG1oCg/HobUOURLqMVxyWhgUjOKZtg7q0Ajrumh+pqIO5f5hI2ugCnrUNumYiJpTX+Sm0oanFvrVShjpUrLpKInhcfSnZ6UUKSv6U8XGI56SXpAIvJkeK/iRxIKneecmnDcZ+fJMjUtIxhSPF7XqcLdX3p8trKxuqQiwvHudMCvo312vpWBnsELfRulk82HBeS/v9rau5VIknPqnDIY0N0QlyrJoTgfWZCswnyWv5ZR1e/KASn/VgShdgbOafzYNtUiyZRs/rNDmmE/FsqWvG5o8rsUugbkC7DWaTBdVXtPj9Hj3qI0KwYoYKqzJCkCxth6aM+v24Vvgd0d8JCpQ31h7CoyXViBmRhX+MErKJFKh0HbKujxywqRAv7S1FozgSz94xEXHXYeKsS4ZAfxAw5oUi/4dqnHlWB1llG9R3xuDAOyQauPcKzjzfAFlDJKpuj8MudRByiBROcWiCNHvi8MTuABhVLXj1rWI8PaZT6vX0w3L88pFkvJZHEsh/ErHk2uYHZcXCO3VIez8S+WeU2F5chd+O6T7a/N1KHOCEOak6rJ3R1bO2e2mW445AS1Et3rjUBrNUhvUrR2KFU69KBVfR5nbzDvq4VDfgjVPB+NcsVyMEG45l1yOX1LYBcRF4/R6li2QxHMf2VeDFAvfeHL9FMqy6PQK5H9Qi93QNto2Kx/oRDn0ukdNXj7aiRRSAVVlRfZayeehpkLL9kRJLat5ycsjRa1FhSYZSLENECJHL+jY0EHEE7B9AY3kONp2phsVPhSxyqrFLEY3QtXLPBJmLhPLskySFzdByxIUIaZzKg6xDqkQMFVeTerJKx5G6vqtejVSehP0k2gyCqjdpJD8iR6Jxp0ZLcUpNhE6rJdJMdoiu1331byJydsd5f8gkg2U7weFqlxQjKMQHNqH9BKtRj/93iLO59cf0RXHYkO5ieDIjDLP5Z64Vmw/ocMt9dG8INN9wpRGXkqPxb07K77ytiIi+t4NCdVUb8e6JJixdFgr7Xcg14DSEbadNZRMy5sXjpYzOftdM1eOF92rJ7KAR2y4p6ZoH1YXAWPqUZS7Bc+dz8F3gJOyaNJbutn7sevrUgfcKeXhKvddB95asyN5/DJ+2AMkzZuHB6O4lWA5DYMgg0LHVIjX0okY70Ys2IpG34ifCt0hvz5MbkTaCsiwSaHTOx0qGnTtDQUIrpK2s6kIi+fmFNuK3axv5j5F6bzj2ON7b/LUJdVibQf+1yrD9UwG9iVWOtz63k5uFy+swZbC+L/zgboRkxcHz9lAa8ZMiu5BIfnbSQKzJDOE/KuV5JLF05eltLThUxpEfERZMU7ipp0WYPVuBjJ7WQ6nArxaEkMrajF376EPE2RGSzeF7+zjppz8yZsdgTa+uzkNnDcQOm0jYjLytKEcKI+V2fXazweD4/JHEsqbe/m+S6BVXOyRr7SSh5ASSfsGIkNufm+ZWh/FHAEkOPRmqku2k0sHtjUZ76KC+IGIke86PLhGZpcIhcQlI7acoJZKkpnziHIkGSUqnKytDETdgsvscHT4Yn2wb2YKew95S7saUIGXUCLvJQV8A9lGZ8jxSKdMtEzAiDD93JZF8f/TMzVViOvE4s6YRX9Z6GoQMK+e4kEi+qhTLpwXzz3lLWQvOue/HnVxSIcf6iW43Izk0rRrLkUcyWSmm+8FTtwPKb8EnF/biX63h+FnG93CblznqgIbUQ6V+PkY9tNTXS9Vn8dJZ+mLKRuHx+XEs5E9fcWPlri8CYgtSRzmliVYoue9JUxtiYhx5Ihtkjm+M0RlBxBCKgxepnIgIZybtnASScnoTZknl2NMYiOxif6yY5OyjFQ8sb8HvcoKRvy8MBx5vxEIXw25jdjh2lVGDqiasXS6oRxXojWV1IECOILnVHBMglfZoYYv5gIRAjBc14RQRlXzS2WY4TR/rTSjjeBB9hDJiBdx3QwKRRruDXAFVmbN/VUoUfnXVjBdyG/HGQXLeCNHhPRqPKjkSv5riiT0N0fUTSxzqZ5KcOfhhCK+mprA9ZP/ImUkq2+txRUsXlSrENDWgnOzuLKNjIeYccjgDUxHZVTqeH4vF0QgXS9HjlP0hdly0WMi7msp1KWutx5FvT+Ccsz7ntU1mB5omE19WphqLeyZF99C+cMcyiWNtbK7qeeGy15prMepRpC7A/u8IK2pMOWospvRHgtqXAeivYMexmk4cbGY0kSOSxiEljkiciuUeno++NO+dMlbkVtrtxONHkRRZqNGgIP75PKUxI7+S2GCkwE4uPFDQljE4VoYE/2baxJlRztlmCJg4q+KDkSzA4ZNHShFADNfMvRPo1e1JgC405J7yqkv34heVJswcey9+HeH5KeipjcG8NsgjNGHfwXO4RE9F8q234M6O2AyDOWXWF0NgAAiILKAoGW6pnQL8OrM6VdYdharJQ5vb4YrNSI0TuM4VlJvt0k2tCFVuO+mYpXVYsTEY26vleDdbhIXzndtlCdlOyqGmnzFkn7lC8M3qPlb2uwsCTRbU83C2Ize7Ei8KcjcbyrkiNgvKOO2p8wPTYgXnUIwgMVSCkgIJojkRRw9EkpPaZcyNxqpqUqt9V4MXuX6UcmxYLBf+UHLXh2pqd96X9PF28GpxCOe5TeGBHKF9lDot1CRojIin+I3+p3CQVMPl7eRxTRJLLkQQqHxEx7dfgAQIzd35SAl84NFugkZTTU4ironC4qhikTYqEXPplBPX2JdCzQvlWTrmKtSpUI2+5hlw6uhnOOsszoUe6pB4Umig+ElYPcnbnuLUGRfsXeMWWoULnRQTjYlJYzE91stxM/sKh2s5Iu0ah6eyprgWL1YLbN6oPAkj+VSt53d53XoKIC9rQQVooBhhXHHyBK/m9vsCRDJGKUyVuEgNZPJMQdQtghJqXc7H2EJq8e4pFLPuvrurk6WzEIX6eTS/BMawBXhrbHT3iATdG7vuOcLo+GpYdfnYnEfiGnEMHpolZMXgq45ZuwwBLyDQ/d3Uc6MmP7sxv5iklYJEhavulGSSN7fB7QUZSraPi2Kx/X0Jdu4Ow6vza+02WVoV3jpCHzKRGQ/c41Ct9zwSdtUdASsZ0fN5RBYrDHbC6F7G+du/HW1tvNEen2OmDw4vMxP7eQgR5AdpX96snFptYiDe0xj4sSSPJZW4sHDUOZKh+V+TyR4w3E9MJ944hhhMEkZ6XrRmkjgSzwyprSa7RwmmUGDvxPYgHCzW4gqR80SjPYakmDy2Ixy3vyzAQdJIMunZKoykn46L4g6JqAs84mhkLaTYltwza6nHgaM5uEiC+5DYschKHrjTQrNT5Bog6YxR6aVVkVFYoc4TZbhTdWijoohEakIiJkZK+y097dOwwlLx4+lxkBHkFv1lfJCtpsDwIsSPnYTMSG+T5T6NSKBQO8yOtW6pbcUxj6pre1VTm/CmXSLx8Lz60QaDn2o7iA8KpgBPtqnkuU17QqrqqOv2jag69QF++XcBg2lRKn6bKUAk2+vw13MU6scvCf+ZMh2jhTmz4BivZ2ZfXndeG9+l05dwlhZKnpaGO5kUxWu4soaGKALk1Wf/MBBJ9BTBh95CdlU4Ryjdja5IJX4POd18SE43R1XYWV2LdbSlVu8hVTdtcmWT6rG2QxU+RDEYqsOiDwPP7f2lWPNgPFb1430UIHYSHfrACc7P5vGD1KV4M6m1jxKJpI9RsKgdl8+Q801SHNZED5Ovh2MyzXqd3Vs7gKSKTtWryPFvOvqwodWEtmq6Ycm5MpFs/GLawyArqiCbSQMyJfYYksqQ4A6iFEJqSk4tbrG0QEtSzBQhdS5nW+mw6FDSsYrdP2REDqgde6zXICybVIUrdEKP5js6KSeWApErB0KSbGT/bJcuiUPI0caryxSEiTO/1y2OpODt5c1MIuFKCiDPm5sGTUBWYjWd7kPS0Zw8pC6iUEPdgfVm731siwigYxwZi5LwUvpA1o4Eju6vV2fv5JnNnb7JbRSFYrbzxaweKtson6srEq4bm/kQXg2keHHdEkkkBcSjV9RfYUODBdGqEORfOYINXepZ8F2LnelW12RjQ1swAkPH4mfx119qOXi3iU2DT3I5c1QRMjOSIeA+0A1qlsEQGNYIRJsRy+1QTWJcqaCX3wiBnXIjBTPn7HJIdZ4oJKTnnW4i8UuylXx3XyDWPeCP7XsCKRalDcvuq2NHiw30BgmmoOOkls43UWBiTm3dDyKJQBd1FqfVdf+ukSqO4009JrJF27W3FsdauZBAFEZKXo+n9xnw3he1yFgVNYwkkwbkV3AAEk8Mj7CH5OF/UXBxTszTZKRztOtRy+mvlVEYTZiLI6IQLyYiSertKqXdoFgVykeQ5JNYpSDpJJE+csqp0FK97sE2yTOiHuW8Tw4FlA7r3UZKFjcJS8q12FXJBfYuRNr81N5P3HEOyPlfUyXya7lnmMhwdOSwUDm6T6Hn3/5ITJ+IKZoTONusxu4LsXiMwk8MHknwMDp/CeI5wkDvyXreoHZgxziYyZyFYyDdHvVWyuefY3quO122uwymnidw3VVSZs7MhSvJqccFNhbKSVl4elKXpnr8oacQRdxtbWw4j1d68N65Uk/XqWNZlAI/GQJE0v0V2OMkr+li5WUc4t434jgsHTcc9TfXNHtW+WZEIKgJC9Jp4lYJDpwUfkPpToXiOPctVZF0xiU0UCdcdqcb7tV5/KgC6iIVdnGakohmUnsLy8NuRqj7PWdRIDJ4yZ8NuRS0UBhJKy6T8X6LO/+ns+eiuW8KhWW5JKRma25Frp1beRgWeXl+q8G2ynYEx4Xjl7fIEJMajcdSqVFdI175uqkXD1Azzn74F/zypZfx5Kt/wcYc4dF76Nyr2c1leTjCkT1ym5yYPMLlE++PiFDurqXYkbVcWCCy540iu0Sud0kkxpAzkqVBi+IWbux0lnWoi7EpBeFO47XPNhRdKeWdddyTpuwqEU3KlUYjLaovnzEp0idPQAp1Y9EV49Pv7AHP3dv1/LsNRXkF9niBkmjMcAuS7rneMLtCc1ucEcevk059Dvtr3G/+6zEfEcY78C6/0oJywSFRTEcK4dNjSNE6IyjaV7dkpnrF/C0sRTIXQkMgVVe1Cj6Tl6tM/LsjIExKDjsCFfuZNS75buTMfRjHBf8exEucQSaljMR77WXSxzmCa/WzIy8X98LU+zaiipKruMwt1og4TB3YhqJvHbFSDIEhg4ARK+9u4tVrZ3fGYkuZ2+NmkOO1t+S8WjDt7rouXtmuU+CdbihMnjFXjk27KZ4l7Z4Tl9WCQp6xNGAERJgziQvBQ4byebVE6ty/TpyquQq/eb8MD+xo6Oq0QSrT6fzxc204ds6d9Flx7LgO+e7NuYyz5QoFpT9jhpkCYz++lGLe8bcFhTCZH43v04esgeJbvnK2B3JoLcD2//wXr23/ABt3X4UqwaMB7oDR6bUiHRuYf+kE3sqp4oleCDmDLHAjdEoKCyQmMlhbVU33eBASo503rJROZyGmaKpHvpZ2URTKh+I8u6RQTEmxH3toqSnAR26kz1ibh0+LOJEvSQaTkpHWV5FZYAKy0iOI7JKKupCOYOS9fHpPxqZqZJ88ih1qLj6XhKR2E5B+A8tCZCMmIosjbmQ+cOosHUXpwW6wd+S8VyI+jYKHc5jX6SgWqZ28ubbeUlmHFyke5NotlaBwk8LJ1IL3TrsdAkCagc9yWsD52ASPCvYYtstMkux3+ZBfLsnQhF3fccyUtArJ9lBhwh33PVcmDcc4ZTQyBP+iEOMIVcCV48qMcwaN73sXPinZ10fwGju3Io9OcuBSZHQEC0B+jWiy6sMHgZjlFfh79his3x2MRx4eh4MrdVgQRyfjaIOw91MF9qhJ4ze1FpsfccSoFJpah9NNMDa+T4RSasTae5oHqOAR6uDmzAtOjqCYdCa8eJHUzLtKcXkcfayi6JVoMqNY3Yzj3DFqFO5lBcWF7Gp1IMHS6aHY+TmRyKIaPP2REUuS6Nxd8u4uKG7EQV0glo42YN8VzqHHzbaKs4vc30jEVIT5i6Ix35VASYOwnohl/oc65B6rxrZYspcUiiepPoUD1fY1S1u+ht9k+DxZqrF731fY72eFhSSxzXajMuqWPIpHTMAPpsV2izUok9ORh35EIrmg5LIEjHbxcYmIDIPykppOuaEmKG5WhBsxC0mYhOVkc7CjzAD1xW/wemkEEhUSWAx6qBsoNiXBKotMw4px/XOcUSZNxNzyb7BfSyruHA8q7roCbNp7GWLy0DaSw4/R6bxB3syJaTNwX1K38A0+h39wO6CzujMmIK02B/lDRcVNNqmPzm9F+X46ypSOt/xpZSiWJEgRwkVUqGrBQTWnOaBICJnhmOW2PM4tmYrCeQXkXsWTWjkW0OaLf14L9XQ6Fd1MFDf24ZkhHpznyBEuQYxjn5WjfFwIZkfTO4Lsfo9dbEIu3b8B4QqsmdBd7T24a3Z9exskItmCCt4IAYgLY9aR13fJWe+Di4ARq/9YjJiUkfjdO3Js/1cMtjsGIFOZsexHNXj1p7VI6/Hb5OJ0QwIcWWYD1gmqwQd3ZsO/NxF/SsZLEVpsPk0fhUsN9OeYFXd+b4ICK+j83qUC3qvBSVF4+TbgT8ebUE6xgbaV2esFUIDR9XeSDeClUuzjslyN9Dnpxz4tjtHHJ4ZiGD6e3P3jExATjl/NNOLJ40YKUE73BdlL8pIYl6Q5l0u2nZQRNB2PPTBpkDYUdJwghfLhzRLJy1VM5C9GRWrlxNEUIoaTPAqkYPsRj5zEXRxGRNB1uqooxEmJSHLzIJLgcqiQoyEp0qbfhoeUF7C/sJLiP2qR77Q7lYQiJTEVWeNjHc40An17zApF5pSxyD9QgApexR2LteMVXcfPEWXn0Y40V1kQBZ2PiiXVfSLSlYLxnjz2NmwvyOKweMJVqHNoI0Aq7r0jb8PyqOs795jUGLwWRGdtk8T/OJ1Ss+1KJ7rBdEzpqpkRWJUS0I0MmilCA5dCaPPy/MxWbPqqHttKOjd43FnbD38vitcGeEphyVH4eWI93vi2AZu42MB8orO2E5R4dHEE0ro/yp6auiHz/drbObcjHydytHn99Z3YRHHV5q9Yj83ub0Yfdz8YzbdfPDcY3bA+hjUCIjqbVYaqJvo4hbYhcaQRspv8BTSUlrOl0QyNgT46In+EkR2kcIxItxFbrSivppiFxLACyM4vLVLS7UPm3TmS9PTXi3HvniYk3vtX5L0wZ5CIpHdn0b/WbOSw00Qn4NggDpCCO5NbJuDY0L82WenriYDxy98i7Om9wKTHceaddf12GjS3kkNbo5XMKvygoviQMYH9uyFaGimAuKGdPPsDyJHHk4VfG3a9X4rNFIx0OnmLb+C8xSm+Z0MDvSfaHP0G9a/f64G5bvczGPHcAWDGL5C35SEk+mAQghtJr/fjH4OnnnkcT3m9YdYgQ2A4IWClHWyL4Dmww2kWN+pYg+mDlNxfhYmIYu6NCEL8YIFizcVBssuEdBLWPnAzkEgOWArlQ1JLCjXJEkOARyAgkDy56W+gKVhOEu/+PutcZ6SpUIXLunt+D3QgN0g9T1T8BpkemwZDgCHAELiBECg6ieNkHxmz6Id4fMwNNC82FYYAQ2DYIjA4EslhCw8bOEOAIcAQGDoIqHPOI5+UU08/kGU/5WjoDI2NhCHQbwSMlUfw4ku1nRI+ClqftWYdlgkE6+534zdlhSZkb9+M7aX2+Kw8BGXf8bbNvgyWw4jkTXmzsUkzBBgCwxGBwIyH8PbfI7CwH0GOh+M82ZhvEgS057F9+/nOyYoSoVzGiOTAV9+MnEPvY2N2D+HDBt64x5qD42zjsfsb5wJztrlx1pLNhCHAEGAIMAR8iIDVTLH3XaRmzq5ItCULCh0yTohmCnPFRX+S0PnvAcPEMdJI8S3tx+66rR8FXFeSc5EvEiOSXkKVEUkvAcmaYQgwBBgCDAGGAENg2CDAnG2GzVKxgTIEGAIMAYYAQ4AhwBAYWggwIjm01oONhiHAEGAIMAQYAgwBhsCwQYARyWGzVGygDAGGAEOAIcAQYAgwBIYWAoxIDq31YKNhCDAEGAIMAYYAQ4AhMGwQYERy2CwVGyhDgCHAEGAIMAQYAgyBoYUAI5JDaz3YaBgCDAGGAEOAIcAQYAgMGwQYkRw2S8UGyhBgCDAEGAIMAYYAQ2BoIcCI5NBaDzYahgBDgCHAEGAIMAQYAsMGAXZE4rBZKjZQhgBDgCHAEGAI3AAInNyC728+yZ8B3TWNxP3P/h7rEt3zB/67/LwGm/ItCEiKwIbpvjxxeuBj9F7NJux69bfYVNT91CBZ4g+x+dmFiPFeZx0tMSLpA1BZkwwBhgBD4IZAwGKCzmjtMhWxRIYQaQ/KrDaqY6I6IgmUgZI+wGBDc7MRFiopCw6CzM+tiqkJ6jo9tcmdVSdFZFgk4oI89C8wXmdrvY3bYjKguc2lb38RxBIJQiQe+urDzHov0jn3LmV767uHeXrsk9ZN6Vi3bnN1VqJ+ZQFSyHzMDIy6EhzIPgWjNBQxSpdj++gYQk13DuRxSn25YNaZkKtpQ7CS7p9hlozGapyor0N1Gz0d4hCMUozEzBBpD7Mwo0GjxqUSF4puboKmwQyZdQ5ae6h5LZd8fLtcy9BYXYYAQ4AhwBC4nghYNOex6UQVT/K6JCKJEaoIpCSMQeZoFUJcyF9z+Rn89awWCE3GjxdPQIw7MXRvS1eIbQcKoYUKi7PmIjPQUcCix6mz53CwXA9ju2slfyijxiBrWipSgro25nG8zmKSIMTFJCBz/BikhXQliOWXjuC/Jd1ZjJjqRERGY0pyMqZEBcGrH01jKT768gLUXebXOScxEa346JG4NW0MUlzGa6k8h7+eqnZHssffypS5+NkkFV/G01ydDYgDFUiJT8bctDjEeHXCXYcoG7cGX7+zDmk9jvwmvNhSiA0XDuJftXro3aYfLR+PX09ajJ+ohAhlONa9thvrXOrodj+DEc8d8CmIPrxFuo7bpK9FTkUDag30SpIFIz4mBlMihYDw6XxZ4wwBhgBDgCHQXwT8iDiGh4BTDFrMJHFsMUCrreL/zqoTcc+siUhxaA1DQoIQQuWaWw1oICFQDEmZekxUrpkjUkSaIpyaR6seR+OxYPQAACAASURBVI4cwcF6aoDrOyYWiXKSbrbWo6iqAbqaQrz7jQH3LZiKNCFtpZ8UMdFKhDo7tlnRaiTJTJMBFeUF2FFVhbmz52JBhIC0kSObCvo22Ww0VyO0NFdNpRp7K0txKmEyVt8SB2Vv5LjHCQtdJHJMktZIp3COxtvU2gRtE0ljywqgrqxCZuYsLI5ySHhlCiRGmOEqQIXNBG29gdTF/giRK+Aq6CPxMJQhAp97wjxR1UmOLVYzWluaoTHokV+YQ1hrcd9tk5HCPtVCi+abPFMhHjv2MbbSnma0aipeGJ2EyTIZjGYNDlWcxb+qL+Gpb+ugz3wAv1IKrKlvRtVjq74fRV0JXv/kGLYUNcJ9ryePHYun7p6HBxPYXdrjKrGLQwcBUwDU1f5QjTRC6fxAcnmVIgRGtyLGTULSdeD+MDYEoEonIpVOGxJHkLph6Mzsph+JubUN9QYb2iRiRMtFcFG49YyN1QZNowVtxHlCQiRQSb3OMnrufzCuiiKwYM50pDnveasJFWWF2HNBTWozNXYcl2LtbWPtpDE0lCdazVYDqaNpcD0+E1TOYLTbygWFItIBnbb4HI7wJDII6TPmYkVc5zdiceNlvHs4D2pDBfaeJ4I5I7b7cyQKw9xbXcbrwMjSTHWOn8PZJiKqucWYuGgsItzxUyVj9dzEzjZNelwszMOXRVpoy3KwjVTEj02O8K5kknpLmTgTWW6DsTRXYf/JMzjVoEf2mQKMWTIRibQG4qhUPER/XZKpDP/9/BxJNyVImzwXWZHuExP4rRiN+2a7zNVRpFmTh+0nLhPxLsPe/Dik0HyHVGqzQtNsJSLthzDaYAT3tllxGzz3rFc32yAh04sYN8l0z/NsR4vODE0b128APes9lx7I1dzigzyJlCnnYtfsTIzreJ2MwG0jJmDyqX9itaYab3xXiJ/MHA/FQDrxch3fEsmmQjz15n58SrLZyNHjsX5GEsaraMWbGpBNKost+YX4w5YGND6yEo/F9fNO8DIQrDmGgCAChnA8eEccDkytwtf3BmD9c5HIJq2dLKERb2+9jIUlcbjjGcproNqhZjz+5yL8bb7ZrakAZH84Ai9uU+CAmsik86qqDQuXaPHHxzXItGuc7FcMKjy5KgHv6Nqx8KkCfHi3e3vOBgKw/elUPHHKD6pFFTjzQh2UgpNgmZ4RsCH/vBbbzjYjV+diQyWVYHqqCutnyxHvwcyvpVqPrUd1+LKyDWaXqqrIECyfE4lVCe7vtHbkH63A78+bERAdhpfvUSG+m0CsDYf2VGLjFStCkyLx2u2hpPAdgkkkRVziRKxV+OPfhy9D21CI/aWj8FASfVllIbxkrcJE0rxmGnsvRJKTbnJJFhLCSzLR3oBTJXpenR4SPxF3upBI7rJYnozl4yqx6XwDmiuLcaE1FtOd6nC+Jc9JHBKHrIk1yD9eAaO+GupWIpK91ZUqkD5xFmKkR/DvCyQNLclDdtJtmCv33I+3rohDYpF1yxiUf1VIUsJKXKwjIhnlrdY9txMSMwHLEqvwVhFtBmq00BDd9oWThucRCF9pKGvAm9k6HK+xdj5z/v6IT5RjzZxwzO5JVEzPWktdI7Z+VYcvNVTf0UUwSdrvXxiFFSPcH0Yz3nu/Au81iLBkWQLut9ThlYN65PLic0r+foiJU+DRRRGY7rV7oQXndHZldkb0WBcS6cRDiqWxIyHTlEDfWImC9vGYOQT2re7ICa/eAHMvHT7Bk0hp3Ey8/cgCrJsyiuxp4pA5cSKeWrMSL02gl465FhsPfIfGAfbBqjEEfIoAxwUM/tBp5PjdS0qoltRh3VQrjGX0+z8j8csNYQhcVIfHM9sgawrAxo1RONvFN0GGXb9LwaINKuzRWrBwdS1efbYKr/5Eh4WhIhx4PxaL1o7GHo6IOlNQI+7JtEJHL7A9u8Oh9jTBynC8dVQEXaMVy5boGIn0hJPHfCtO7S/HswcbkdskQsZ4JdbPi8CaaaHIkFhwKrcGT+6sQ34X/aG9MXN1HX6zsxafVVgQHBOKFdNVWDNDiaVxErTUNmPbJ1exudLd8M0PaZmRWBkGNFTU45UTxo6PmXOImvM12FjUhpbAYDx62xAlkS54isPSsGAEx7RtUJdWQMdd8yMVdTD3DxNJG13As7ZB10zEhPI6bS5taGqxb62UoQ4Vq66SCB5XX0p2epGCkj9lfBziuQ8oqcCLyZGiP0kcSKp3/uNrg7Gb8afnliJS0jGFI8Xtepwtdbdc81zvmq+EqhDLi8c5k4L+zfVa+lYGO8RttG4W91v5WhoeYF3NpUo88UkdDmlsiE6QY9WcCKzPVGA+SV7LL+vw4geV+KzOc+MBxma8sasGB9ukWDKNntdpckwn4tlS14zNH1dil0DdgHYbzCYLqq9o8fs9etRHhGDFDBVWZYQgWdoOTRn1+3Gt4DvC80h6uiKFkjQiXDJahG9Ozo+NT2Iq6/jn9f6PD4mkATmVdnqYnJaM5G49BWHphBh6VdDjUanF5eHnUHW91471P4gIGPNCkZ9ZgQ+fLcObL9ViId24+e9E4XhmOT57oQx/+59qLOM+Muog5LiQQs2eODyxOwBGVQte3ZaPz56twNOrNXj6CTW+ek+NpyfQC6OYJJD/VLqEwrBi4Z06Xo1oPKPE9mLhiebvVuIAJ8xJ0WHtjK6etcI1WK4rAi1FtXjjEkkTpTKs/2ECXlocgRVTlPSBisZLD47AinA/mKsb8MYp9yAl/3975wLfVH3+/0+TNLe2adM2tKUtUMqlBaGiXAYIgg4RBl5gKhOETdmcMHfR6eac87Ix99Ohm4r+52Ru6JCLoFxEkSkoNxGkFGjLrbT0fqNpm6ZN0qT9PydJ2zQ56c2mbdrnvF5oc/I938v7nJPzOc/3eZ5vA44cr0QWPdODyGr42l1RWDktAkumRuIXi+Px2Gg6cQ0W7D5ugNEduVSJJbdGIkXViKwTpdjgKjb1lXjxUB2MUjmWzBvUYSubexM9+1mCkTHOad6qcpCupk2JSJriFzY9CcemzZR3Eq/v/R9e+eQrpDaHj5pQWSf8+JO7SIhdfZKlsAblgnAhQRqn9XhwOKpThCHaXryBXEU6J+pMVJ6M/eQ2qIa2PWukozXHfwO0SIpyiKvK8nKHaHb93ld/k5BzBM5LoAx0t3L7qlGBq/PcqYN94BPayX5XV+HvBwSfWwkm3RyPf9w+iIRgGIk6HR5fMhRPJgn+s3V46/NKsp6Kb/qcamTERuHNewdjFVkvl9wwCM8ui8PyKHqrqDfhvWPu92uTqa+RXioNCJ4htEv3+tQILJ8VjVeX6Oz3qEVfjQ30O9I9mwyzBg9HFFWWVnwGX3hUW4UPC3Ptz4oUcg1smfbunta7WouXu7Sr1bkep4BG4bjozULoushmttocfpOUbsAHrgYiLfIuJtBJAs3OHzQNfXO1w28qyoQEuxc/Cb6bqxz7NCYkD6Zd1kAUVzbdVkps2xYCmkVB8uIiPDrC7W0ppBpP3l9tf6vM/jgCe1qeucDYq7g/RWhCiY07ReZNbBr86yOHh+VNC69iQk89XzqJr+8Wt2H/aSMEzR8/XodFTc55TR1WqLB8ajAErZKXThZLN52emKyzP4xWT3a3GtKDbqTKfpyl1IRLYi/IYaF4fHYwTVlbsH1vGY4LfoTkc7hpr2D9lCBlejSWtxvq3HfIypw+kWgwQW8XiBLoNI757JraWqf1kSyWpRWOv8mid6nE+YRsJAul8FQMCEKkxnHf1NQ5hbucLIfeHFXJdzLM6WBsMjlSB3WEiIn8OT/IKHFMm8cNQVInnbt0ZDW1b0IgUQ9Z6Spzc3FReISS3+ewCB8+spsBNpAv6Cl8fEW4MAMxcuhgh8tBRwD7qExeOk0p0yUjHxyOX17jflFIMX1GGCaRlrQUV+PTMm+dUGLxDXS/uiIkF42F1wfZ71djLk0ru7+PN2nJUA1WjnNrlwKalowSXpjIZeUSXQ/emu3k/tC4OXhjaARCjSfxg4Pv44mLp7Gj4AK2ZB/FI4fexSM0szVMNxtvjxLkZt/YOnkbdabTUsxKGQpN5mVknTmLozfOxtRWkQXV2HumyF7hmLHkO9kT90dnus9lmYArAZkVSUObVIENYcLzxFCP6GjnPmkDlM5njKkpqqw2BPvPUjkpCc6pHrYpe+1hkwyYptBgT7UKRy9JsGh8Uxt1WLrQiKdOBiFzbzg+X11tt4I2baajEdieS5+0Bty/0FfZwVra63d/USBIWondLIWUYeKvsfIhKoyRGnCchEomzdmmRDRRIJ+sRPKd9AJFrpLao4WNFH3T5E7lXlQ7chAeL7Dg6bRq/G0/BW8EV2IT9UebSBaWCe4PSvej+9hnWaBz+pksZ059GGyfpqa0PeT/KLhJhjVWIKecvgzTIpp85PPI7846LAYyISBHcFaTkl+l8/6xWp2VCLkUvQ5VApnzS6uVoqupXKuytgoc/OoYTjUdL0RtUxR0scHsyFepHYU7x0e1Ub94w8pA57lpcJ2eFy/7bfdaTVW4mH0O+84TK4Hh0FGY0BkLakc6UJWDrYdLWziQJd1AgUjFTitxZMJ1WOjl/uhI9d1Txoa0QodHY/xQsiKLVapW2+/P48UWZBaSGtSJvFlHqER9GYNilBgiqaGXOAvyBN+M5vu8pSFtfJDIrCqQGKuAnBSupcKMXPrp9mZAF+uy931BmDt+Gd5TfIhVFy/jlXP0r7mwAimxt+Lt8eMxug9pJu/3qfdRdvgbTcqNeClLj9XHM7DyNSOWUbDNWC01aaRgm7QMbCWHct3I6fjLzR0JL+tws1yQCXQ/AakVlCXDbWukBL9Nu0RMTyUUoS284cosSIoT+V44VGNxWDfLpShye5OOnnsVi9YFYWOJBu8dleKmWU2vy4HkO6lBNn2MJv/MRaK/rO595c+tCBisqLDjbETa0UKsEdVuDcgTijRYkSvMnro9YCw09ffpWQMJUoriNDbAKOhSShljJgHZvnWCLI8zorCkJB8bzpdijdBOmAbPztGIPyiF7/vq1th0XdLD22nBkQULkduUHsiZ2iesshzZZGiMjKf8jZLj2E9Tw3mNFHFNFkshRRCofGTzs19EBIiNvemWEnugNppRTJGtrac5KS2ONgbJQxMwg1Y5cc19KVa92D5r81jFGhU7oqP7anH80G6kNhUXUg81WzwpNVD8eNw7vrsjxakxIdl7saF1J4XUSdFRGDd8FCbFdHPezI7icC1Hor1YeBuhrfhSGdaUiEeXkDHSvpVUCS8inteQnKKsRW14KhnCheIUCV4ivO+LCMloL2l25BQuTi7PlETdKmqhrjz5IdbTtLjnFoJpd9zROsiyqVB9IV458QGeLTcilHJGPh0/BKMp/Q8sV/FVyWn8p+ATTNNTNpzJC7AixKcSzrPbXvb4uBdqzFq0GG+FfIJHDlzB+o+vuHRDisQJM/H6HeOQ6ONeeBk772YCnSPg+dvU9vHmAIczv4yslaJCRTi8yZJJ0dy1bj+QIeT7eHMMNm4OxLZd4XhxVpnDubpci38dpAeZ1IKldzqn1tvuCX/rToBS9jhsHCQW82sdgtG9TNNnSSPq6+1Oe80l8s4W4un9lF9QEDOUQiQxQkbO91LY/eTrLDiSa/EIpPGoXphWG6fCpuJae9nEUaFIETeOehzap3aYzY6E4QEyWvHG2bMgsjDS/VJuIYsj6czgshLyewyk3MFRSGhUY/+lcuSQOE8wOXJIyihiO9KJVyl3ijSyTIo7RQltkPXT+aWs2SLqQkUWhXk3UW5L4Z61VuDzQydxlgz3weRXNi8xtMv4appMrvLAlhyVXa6t9YFKSivUsqKMsKqODNpQHZKGJGAc5Vz2yWMyPAk/mRQHJSG3VmVhy9FsSgwvRfyo8Ziq626x3FVQjbA4z7WxrA6HvU5dO+oXXuTEtsDAAPGUXgH0gmEfaiNID4pucm++qRS5TZ4cdKjzWLdnRNHxLXjstXOedUqT8ORUMSFpppnaD/AEichhUQvw+aQxEFw4m7bbh03CkvObMO8CZcQ5cRTXzpqBFHFd7dmmD/f45Nps7q+J1rh852O8dLkWmrhRWJUSi7GhSpiNFTh5LhNbU7/EbTn5eGbFLbgrqrNPaR9S4aqZQHcQoKg+x4OBRKK3DD70K+SYChcEpbvTFU2J30lBN+/rKG2MFttKyvAAvVJn76GpbnrJVY6vwP3NU+Hd0eEBVAc9GOzaXqLA8mXxWNIZq251JV4nx//ihgAk0vToczPJ39H156uwDPeTkPTm9N9MuYamtQ+RiKSHUZCUgm++oeCb4U7nfz86FTVVlY7AEzlZFZumXqXOv2npQ32dGfUldMHKdEggH7/oxnAoL+aTz2QtpgY6ckiGBQc1C6VgmqYUpsWtViPKyYpJLqeem+Bb6fToCKNlFT0fZCQOqB5Hrlc15o8vQg6t0FN8nlbKiaFE5GFdEUmUL7TSYV2SBVPC7259gKsxbsp3PfJIeg68m/eQCA+jBPJ2rzP1WMxLKKHVfcg6ejIdSTdTqiFPsN3cgY5URwLQ2Y+Um4fj+Wu6cu7o1cP957WpaYrMFlbfFF4UxXK224vZvBzcQPuFY6Xix8ZMvQ8vqihfnMdGFkkx82h9Fv5TRGbRgAjcPaq1iHRUIUPK8Osw93IhttRkYNNVEpJ9IMWnDy8TMw7sdIhI3djZ2HrvGMQ1n//huO07E3D3vm246/PLeOK/X2HsL6ezn6THxcY7/JpAlAUxgsAwy5CTTxf/YJE35WpKZi745dDUeUK0yGjtQTc6PEa+ku/tVeGBpRJs3KOiqL0GzL/rKi8tJoKsQ7uCKOk4+clnmikxsTBt3QkhKTjlZwqzuRTNutxdRNJui9GGivY6Qb5o2z8uw+E6ISUQpZHSVODRvbXY9EkZUpYM8iPLZC0y8x1R07KISEdKHvvYKbm4YOYxmGgd7QqUCfPXYYMwjJjLIgchXkZCkqa3i8IcDsXaEHsGSfsm04aSdZJEHwXl5JfTcZ7JNsk9qgJ59pgcSigd3rx+TVMVHv9Xxo3HLXnl2F4oJPa+gORZSe2vuONei7kQmWXCPUxiOErnmQTdvbzffZYg4ZpxmFB8DKk12dh1JgarJvhgOr2zXCSBiBfiDel3ssLuUNsq2KLDtVnInUVwOfG41etov3A/k09uuCNxgEedFUZ7tJPH/uZ7XZgeF3mxCBs/D4+O9zjM+w5Kfl9s16zBiPY2TFmQ0xfTaJ9Sd/MO9l63D7/pmrTvSIdMWdh6hsJQJVrcNctVRDYdLMWYGddilmAWKLuAHbkdqZTLMAE/IqA2YPY11F9bID7/WvwXqvJ4CI4Iz1ItWWfco7rtQ3UE3Qi/KUcOhSL7ohbbhZmSyBqa9vZq5vQjSL3UVakKKfY5owakUdJCcZI2ZJHzPrk/ttoMFIhgL09i1HP5PxuOnHNMVXsfGUV5flVsT/0TFBeBxyYqEZ0UhVVJ9KCqrMYLnxna8bG0IPX9l/HY83/Bwy++jHUnxXvvvf3u+6YmNx0HBbFHeTfGJQ52ecRLEBkiXLWUO7LMkRYoehD5JQpNB+owglIVWPXluGQU+k5rWYc40gXZe0ZJuJPts88NuJhzxR6s474V5xY4HriKKCQP6shjTIFrrh2LkdSMtfISdp53JDx3r9f753pcTD/nyBcYGIXJbknSvR/nZ9/Q2OakxNnPU2X2KewrFXn57fEhkVZw8s7LMSJPtEuU07HERCvOtNG5qyaIZemx0HH27AoKBRK9JGYsKaoTvSezisz23wJ5uIICdtpou6NfBQY53JcaK5EjduEL9ZCvZI59nOTL2mSq7Wj9PirXHUMX7xqtaeo44QoM8vbCSGl/hOVThUSr+YYmh23x6ngvE/A/AiYsvsNgn15L3RaD9blut1utBmv/pbFPCybfcbVVVLbrWO1BNzR9YUrT4PVdlM+SbpWE+WWY7+2+8j9QvdBjKW4YL6TgIUf59DISde5PJ2GquQi/3ZyLpVv1raapw5uWT6S8NRmuKZvIxyorlQRiKU1VCyOy2VAj4nNlzKGk9N+QDyUlxl49l/Ih2i8LSmEyKwoL6EGmp/yWL6S2IQ5t57Dx7XewduMWrNtVAO0Qrw64vuNKlpPMjGP418kiu9ALpmCQ2W6CLozSAslIDJYVldA1rkZCVNMFq6DVWUgpmiuQWU5vUZTKh/I8u2whmDDSseyhtfQcPnATfaaydOy8KEwxk2VweCKSOzqvphqCeddEktilKeoLtASjPcqn/c1kKMHRrw9ha7ZwsgPJajcW1/ijL2v7Q7WXUA4eh3mCcCP3geOptBSlyDXcwaq6rVh8MiUPF5hfJbeSbxzizbVyY+FVrNmaj/vXF4K8TsQ3sxGbTrgtAiDkez1ptOd7DRoahBRPo6O9LgtZst8TwrJdt1oDtp8XFB3NKiQ6UoW1LtCFT4qhmCsEJJNrx+aLx3He4xI149jFVHwhWC0VibjVw7zahTa74ZCO3oKdb0pJApKOymioxiUhY7yYf7OxGvl2PxcFdJ1dLLPzPeIjmECPE4hemI/Xjo7Ayl1B+PGK0di/uBKz42hlnHI1Pt4Zij3ZNON3XRne+rEzR6VYD5uDboKwbjMJSoUJ999Z08UJHrEGBua+oMRIyklnxpqzNM28/QqyRtPDahD9JJotuJRdgyPCMmqU7mXR9NBWy8PJh5B/k6oWBygB8hvvFyIvWY1wCgy5lEvHXA3E8kURyKQVNA5TkuPdX1ZCMVyJSYlKh7gU/CL3VZMwpfRoN0dhlquAUqixkoRl5vuVSDtcgg0x5C8plk8y+zg+L3Gcs+SFy+0vGT7frCXYRcnE9wXYYKUE2TUOpzJqliKKaf3fu6+P8cg1qNTQkocBJCKFpOTKIRjm8gyI1IUjLCObVrmhKihvVqSbMAseMh4Lyedga24tss9+gZeuRCIhNBDW2ipk6yk3JT1IlbpkLBot9mDxTiNs+DjMyPsC+8ppivuklynuq+fw+sdZkFGEtonOq6kpeIOimROSJ+Ou4R7pG7w36Jff0FrdKWORXHYSmX1lipt8Uh+aVYe8fbSUKS1v+dPCENwyRIFgIaMC+RTuzxZmDigTAiULn+Z2eppeybSUzkueVoCHyzWYTS9fWjr23IUq7BXmkilv7IopweLBOHQOE4fIcHh3HvJGB2N6FP1GkN/vYSFjA12/8ohQLB/rRYF2+vyHYsW4GdhxZD++KN+P2RSkvGTwUKSQnkJ9FY6VnsbmCiNMAaF48JoZuNF3Cq5TPfddN0KGYhatNXsgpxY7PzuF+4Zc6xadbUbqgTM4KihuWjh+blyn+s2FmYCfEDDh3j9eQvTIWDz1Xw02/iMaG509V2otmP+jUrz40zKQFmljcwm6IQOOcqoeD4hOg7dRBX8lQkBKq2TE4fnIcrx1gh4KGXr65ywmrN87JBSLKOn4XPfoVVUIVs+nB9e+ShwnUbP9iMMEIqzZu3LxICygKfOsSdU49ZUJWRnleKEoDK8mKJFIk2C795bjMBWPpiCd1YmeDx95dAQen2LCw0dMlKCcrgvyl7RbYly24lNp5NtJO9STsGrp+B56oaDlBCmVj90tkaJcZST+orU0rZwwjFLECJZHkS3IkaxdsLjLwkkIug5XOwhxChKSwjhIJLjngxeMC8mTbsR9YWew70Ih5X8sR2ZTFpXAEIxMSMK8MTHOYBqRtr3uCsHUCaOQ+fk55NunuGNw/5jQ1v0XhHLT0o40VqU6FPGDYmjqPgHXhLlMwXttox98oYzDnLEFyD5JLwI0xf1x7I1YOKh3xx6dFI21alpr+wittU2r1GzIaeEcFKHGkimRWDJS7iEGLZShQdiC6eXl91Pq8Pr/KrDhckvwjHDfrvgu3bdeprWFY8MTB+GXCRX421d6vH62qV1aa3tIGB6iFbGEVci6a1NqJmH7zAi8knkQ/6E1tf9BuSSbN8qMMDryOvwiaQZWaPuOWTygsVEIO/LNZi46gZVvHsNR+vVRRMThrnFDMSKUiJuqkX7+AnaSyDRLNLjrXmHd7TafpL7pYDfW2nj2VDfWxlX1TwJSWptViSIDPZxC6pEQa4KyG3+A+ieznhuVsZoirWvpoSOVIDyMLBbtPjcboddTvkISQ8FqOQUEuLkuUF46vZWW/lOJeOF3eVhkPf3NHHx/jwEJ338F6U/f0ENCsssd7oYDKbF7jYFWwGmAjNyhhDW5ld2JtBt6yFV0joDp0ycR/ujHwPjV+Oa/D3Q6aNBSR0Fy1eQ6QtPKWsoPGd3Je8xYTQnEaxvF79vmodRj++YreIvSL0yiaPFnhWhxyu+p19PvRL2zXbWPL0TKh1pipGUf6bcE0iBE00uNYBDtzFa569cY/LvPgcm/Qvr6+5DQmYM7WLaTXepgrc5iipiJeOvnOsofeQzvZObj3QP5LRVQhFTc8DHkIzQNd5GJmjcm0P8J2OgN1thqmrT/j9l/RhhEDyRasKYTGz1MtErPKNCmGijFUPtitBPNCUVtadh/ikxzivG4f+lAEJHCoCmVD1ktKdUkb0zATkBOuVvj6V9XtyANWbw7da87W6KZCm1EG/d8Vzvk7Thyp4gKjhJPpO7tmF7Y71MhKYxHoR2KVffSvwYzyq5Wo6yOlHWgGroIDXS94CPeC4y5SSbABJhA9xC4+DWOkH9k9Nx7sHpE91TJtTABJsAEvg0BnwvJ5s5R4l+dTgdeDPHbnC4+lgkwgYFMIPvkaWTS5NSjS+c50oQMZBg8dr8nYCo8iDXPl7VY9Slp/bzlD2C+WLJuvx9tTwzAgKMb38LGK478rPYWc8/bfZu9paXsjl71nJDsjt5yHUyACTCBAUxAlXIf3n0tEjd1JsnxAObFQ+/jBMpPY+PG0y2dlCYgbD4Lya6fNQtOHtiMdUfbSB/W9cq9HunTYBuvrfbDLzjYph+eVB4SE2ACTIAJdD8Bm4VyAgNpxgAAIABJREFU77tYzZpaINOWUh3SZ4IQLZTmSsj+FEjrv8v9JDDSRPktHcvuup02SrgeRkGBvthYSHYTVRaS3QSSq2ECTIAJMAEmwAT8hoDvVrbxGwTcUSbABJgAE2ACTIAJMIGuEGAh2RVqfAwTYAJMgAkwASbABJgAJejijQkwASbABJgAE2ACTIAJdIEAC8kuQONDmAATYAJMgAkwASbABIQlA3hjAkyACTABJsAEmAATYAJdIMBCsgvQ+BAmwASYABNgAkyACTABtkjyNcAEmAATYAJMgAkwASbQRQJskewiOD6MCTABJsAEmAATYAIDnQALyYF+BfD4e5VA5YEhWPCTJCx4SYvKTvVEgs//MQrf/ckoPLzHl6uodqpTXJgJdJxAZRVe2JqPRz+4ikxaPYQ3JsAE/JMAr7Xtn+eNe91PCJhKlPj8qAqQBnZ6RJWXg+hYoG6yn6zd1ekR8gH9mkB9PbKKTcgLkKGisV+PlAfHBPo1AbZI9uvTy4NjAkyACTABJsAEmIDvCPSYRdJsKENGrh55tVZalV2DEcNiMCaELSm+O7VcMxNgAkyACTABJsAEfEvA90LSmI/1H3yJdel6VLuORaLAmJQpePmOcUiU+3aQXDsT6FYCBiWyy6UwSW2IiTIhTNHB2m1SVJYHwqS2IDqkk05htXIUG+gdLMzS8fY62C0u5iBgqatHRW0D6gNliNJI0eGfJVsDiqutqKdTGhwcCK0ioP8ipbHqjVbU1AtjldNYOzrURhjJiGCBFFo1T4R1lBqXYwL+QMC3QtJ0Bc/8YzfeLSMUQTrcNmkUpoZLUV18BVtOXEFG6pe4qwbYef84xPkDLe7jACYgReanMXjqn+HYc45EZBMJhQ0TbqzAHx8txPzBXsShXoO1L8Zi7WdKFNc6Dowea8DqX+Tj3naIVp4bhKdeHIT135AAtVFhaQOSZ+jxx8eK2jmSv+4YgQZkni7HhtQapFW6nD9FICYlabFyugbxXtxXjSVV+M+hSnxaWA+Ly6FaXTAW3qDDkiHuMy6NyDyUjz+ctkAeFY6/3KlFvIemqseBPYVYl2NDyHAd1t4aAm3HBuLTUpbKGmw6pMfeHDP0wnVo3wKgjQrC4mk6LPIYq7NIQz2Of1WGt07XIs/s2CdXKTDt+kj82NuPfnU11mwrw3GzDLNviccvhntAgqW4HI/urEIeFFhyeyyWRPVj8d6Em//PBPooAZ8KyYzPvnSIyNDhWPfQPMwNbaIwDssmnMCyfx5D6sVjeD5tFNaldPjVto+i5G71ZwLZ7yfi5j8FoVhmw9SFVzF/OJlkTAqkfhGK7Z/qsOBcIHa/m4357k99cwjW/CwBT52WQDm4Dg/cY8AwTQCKz4Zi7S8TkXmzF/EpwMyOxrKHYrCnHIgeW42ls8n6WR+IzKNhtD8QS2P7M/GeGJsNx/flY00GCUEKdkoZo8GkSBksRjPSztfgeFop0orr8fziCCS7iUlLyVX8dpseWfUkpgaHYEGsDMEBjSgpNGJ/fg027LCgZnE8Vg52FTgBSJ6qw+L8AmzIr8ALx1RYO1XZyvJZfLoU6y7Ww6gJweM39hERWabH0xRZnVYn2AOCsWiEAuH0QlNcRGPNrsFbO+qQOScOTya5K+4GHN9fiKfP0r0ilSIlKRjJWgks+jocOVaIP5SoQN94bhoNVk2rxc8+qcHez0qREh2NWWqXYvV1eGtvJbLqiOcNg1hEehLkPUygRwn4Tkg2FGNHujCZLcXUmTe6iEjH+BRxE/Hsdy7gti/1OPDNBZSljIOuR4fOjTGBDhKwheGlf5KIpGm9mx6/iP/dS0/Upu1+DR5bmoi1l8KwZpcK85e7fEdlinfFYC2JSAyuxlsbsnBvVNOBhXjkw+GY/kyI3brpmcAnENv/OcguIsNuKMLh14qR0GTg+pkce54dhQXvd7D/XEyUgPFiGf4miEiFEisXx2KRrkX0LZmkwVtbC7G9RI+/HQ/CP6a5nqEGHDlOQoZUUBBZDV9bqHGxGoZj4idXsOa8BbuPG/CD2zUIcm1dqsSSWyORtqUMaSdKsWGoi9jUV+LFQ3UwSuVYMm8QJlEwf69vDWZs3+cQkdFJ0Vg7N9hlrBFYdLYQj35Wi8MHynBgyODWgu+qHhuILySBmLuALIvDWiyLy0mcPrH1KrKE9yh3wy3t0o4ehMeLzHgirQbr9lUh6fZQRNthkDg9UIrdlCtLS+x/f32HHRB6HSV3gAn0VwKecwbdNVJrBbKqqDKJBhMSXF8nWxoYkxxnn9I25+XjJMXg8MYE+iQBqxl3/qwAr9J08h/ntRaKUNdg0QyHXSU1Xd0y5W0fiBwffaay54ecsLDURUQK3zUgYWERVid5GXGtBtsP0ROW/DCXLi9tEZH24hbM/2k55ovfVl4q5N2tCdiw/7QRetoZP56mZl1EpL2cQoXlU4PtIjCPXojTmqdzHbUkJuuw6oYIrJ7sbjWUYNJIlf04S6kJl8QMzmGheHy2IMgs2L5XmMKlwjYzNu2lfIr1EqRMj8by6D4yVVtYhV2Ca5JCjeWzXEWkg0P0NZFYKLwcmWuxlyyprlveBaNDKA4KxT0uIlIoI9eFYfloEQXZXAFxmEEcaMramFOOv6da7N/oL5baxT/CNPjlLa4CvlXT/IEJMIEeJOA7IenyA6r01kqoBjrhO4sB+YLo5I0J9EUCijrcREJwNQm6qe5T1yQIw7Q2h0Wx1sV3UhiHTY1TF+kCJzF43fVGz5FJqd7rRSf3gFwVMgWDvqIWU1NE1EiUAVMTPKvkPR0kYKtFWomQvJCmXIeJu9XIh6gwRtA6JhMyW2WLlyA+UYMF12sxS8Q3T66SIkToBkXf1HjJj6gdSRa3cXLIyR/wb/urcfhoCTZRf7SJkXh8Qt+xsuXlmexiG+QLOUkUkxyT4hxT2pkFJpLGTVsDssod13Z0jNJpTWz+kv6gaWni2+ZIpeT/SNbbSapGpAl8Llfh9f010Av75+q89Me1Df6bCTCBniDgu6lteRB0wtSMsRrpxfQ6HyXy9llVjTL7M9KMUuE5G9ETQ+Y2mEBXCEhQfDIS6/eG4Gi2HEV6CUxmshrRpa03UCAMVekxPV0biCK7AKnHMFG/jQZER1npOHffMjqEoruzBStYmBXRog9wCxKEub70royFj4HBigq7lVEQKYVYI6poGiiYg7YGK3KFF1233ydLZS0+PWsgQWpBsbEBRkE0NjTATALSLr7a3ASLWxSWlORjw/lSrBHKkpXt2Tl9y8omRKPbt4pqvLDLKCr8LFUOc62FylZQUccUNP1tB0I//aEi1zftl1P6t3D6f7G9lJdNsN7ebKLVmwzYYDeNErdZUX3HYuul27ybCQwkAr4TkpI4zCKn7K1pZhw4koqscROR2MoyWY2tX15Avp22FWae2h5I152fjVWJPX9KxLLNcvs0dViCCdcNNyNa3QgVBR3oL4dgu17kRcnstFDSXaaUi1gVqS6VlzvQZCahKlBSNEDcVa4BSpEm/Qxs73WX/F0d1jMSi/kUUdxWTySNqK8XRFHLdHMe+QY+vb8WxcJpVQUiMUKGRIUUlDmIlhqy4EiuxcU656VysqwtHKfCJgrlF/qSOCoUfSvmsBEWm9OkWmPGccqw0eZmJTEt8LD/zjeipuk3Xeplmj4gAIHeZqtcGgoaFoppoQa6x2inSo0FSaKqv82u8ZdMgAn4joCXx1h3NCjF3NnXYkImRWbnHsOyf5Pj9E1jcF0opf8pzceOw8fwbqECcUoz8umJqejAD0p39IrrYAKdJVD5aSxWvk8iUmHBA89dxqvz61pZH7PfTsae0yKqjkRm02ZqmfNr1bxesGqKbEo6VrBwCoLSzSvTWVoCvZc6RarjXe4EAp15Iimf7fJl8Vji4bLgfoDL5+pKvH5AEJEBSBwfhedmku+g6+kvLMP9JCTbtLQJ1dXQtPYhEpGSAARJG5H1DQXfDI+z+wX2jS0A8kChL42Qj47Gh7cGd6JbdGzTb3qTGHU/mvYLuTfFgm1ailLKpKMUXEMiUk75OS11NXj9MwPGzHf3TXWvnD8zASbQUwR8K9+iJuL1JeMwgZ6IZRdP4ZF/bMSsF97Bbf/ej/Wl4Xjk3im4Thgp/ZiHiptdeooDt8MEvBCQ4MjBYIrYJkvkjaV40U1ECuaXYiE5udjR6nqECQEx1kAUV4jdahIUFTimxT0O19gc4qSSkpg78++1KmNTIqddpeJRK+9oIhBESceFGVfKc0jpIDu1GXONyBRmc9XBWO4uImm3xWizT/G2uTVQoM3HZTgspLCZEotXb1JDKwTcfELR3GLnu83KfPdltHNa2lJl7cB0vWs/KPG40yWjghKYi22WakoAL/aFyz7j5TK8SIE2luBgPLaE8kVGBFDATRleSOO3qHbQ8ddMoMcIiD3durVxXfJMbP3N3Xhr4UQ88J0xWHbDRDyzZDGO/vp2PKClKSXh94Aiu+M6YxHo1h5yZUygLQIk5AyO20QbbUaYe1GKrt54QNwHDAoTJsTTAbSizcl0EUdHWxD2p4lYMoU2aPo8WTjErMLRSyK3aUkw+Wq6d4Y/d5iAVIUUu+WvAWnZdV6moW3IKrY4pmtdKjbUOafFSYxGe5w+G46cc0xVe+8LWdm+KsaGwkYExUXgsYkUjJIUhVVJVFkl+SKSxa1tH0sLUt9/GY89/xc8/OLLWHfSd6IqPs4ZKFNWg8NeprYtlSZkeUQVSTEkwgGnpMQEz1Az8k2lQJ42ey5YbD+rJstuIBbcPAjTw5RYPjeccnrSOTtYgg32YCnemAAT6G0CIk8oH3RJqcOsaVPwxO2z8cz3pmBZSjR0NKlenZOPDGFqY3AcrmO3Fx+A5yq/PQEbBcQ4ggmKzgWhlXazqbDx+Vh8LkTcCFu11E0AmHHTVMej8ujOKHzuXNXGUViC7F1RWH/RSw+11ZiXQt/ZKJ/kJq3bNCnlkfxnBD4XN/R4qZB3tyYgxQ3jHelsitPLSNS5+7AKU81F+O3mXCzdqm/FP7xp+UQSUBmtzikdk0oCsZSmqoXGbLYWP0GXxo05ZGX7hqxs5O+3em4You2/wlJMpyCSBfSmYre4OdPdiJ412zlsfPsdrN24Bet2FUA7xIc/noNDcYsguG0mvEfR5XafUNettgZv7MjHw+tz8PfLrYVd4jCyslJZC6Xk2OYm+ixlldh00b0yl4oFiy2lRjpcG4D4CVFY2ZQ+SKfFY9MpvZLTemtPncQbE2ACvUpA+swzTz/jqx6U5VzAB6cu4XS9DuPJGb31Vo13PzyMA1WNmDBtFlYOFbHY+Kpjvqi3lOcZfYG19+tsREyQAtt3qVGcr8a+CwqYKtQ4+oUOf/7zYPzdoMe7j5px8BM1yq/KUS44NgbQMoYUjS34lsUMB858pEFmvgo7DwWRsKBo7CwNPvhvHH72n0AsvtOEM+kkBIbQkokLjGjxQrNilFaJLZ+okH0uBHsyqd1aBTLPhOHtV+LwxNk6PDhJhuPZEui+cxUPXucljVDvA+yzPZCHqzDEWIsjFHV99nw1zlY1oJoWkc7MNWDXoVKsp3yFpkA5bp8zCDNpNaKmTUoqMTfDiByKEEzNNqHGYkOOcMwROuaCBHfdroWMcijmkZAsr5VA8G7QhcscEc9kZXtxRwUyrVLMmhuLpQ4V6ahaRqvrRFPC7XO0UgxZ62xDNEgJFvGXvLwbT/znuN3dIvnup/G3OVFw/3XtPuhSjIqRIPNiLXLKjPhflgnVZhsKy+vwVbqe0vHocZLMjUJy8Ee+o3S5fkkaa+QIyK3GSYMNZ7NqUWCmAJwqM06fq8CrX9LC8SNCEH7VAn2AHDMnBWNIs1mDBPnRIrx4zgppdAT+MpfKuZg8gqNVGFRuwOEiE9L0gbhplMJLQFr3UeCamAAT8E7Ap0JSf/YAHvz4Aj7LNWF8SgKGNb84m5G67xP8/pQB5pBR+NP3x2CY734JvY++O79hIdmdNPtUXbKYGkzTqnD8jBJnMkhMHgrGvlNyyCaWYtsLhZg5woLgrFASmXKkHtHgy8AaPDrT6TWprsUt1wXg4mk1Ui8ocfCQBrv2B+NgiRUrfp+NPw4LxrpPFLDGGvGLhTWtHsRKEpe3UO6fo6dUOHOO2v2Cjv0yCBeVRjz/11zcUhSBf9HUeMy1ejw4uc1Jwj7Fs+90RoLY4SFIUdmQV2bG2YI6nMypxcl8M3LIEjY4XoMfzYvG3SSkWm2BClwb1YicAjPyqkh45tEx9HeZIgj3L4jG7XTOYilE6ssCK0pKadWXMglmjlMjvJFWu9ldjO1XGxE9LgZPX6fwSKcjDVZhXEAdPs2lZRoLbBiVHARafbHVVvz5v/HUZ7mwqifh6TUrMc2etNJ3m1StxMxE+vGuseACibfTubU4nlOHs6UktBUKzJgUhaduDIZ7TncESJE8XAkbMbhQUY+swlocyyZWpTbEjo3Cb6dIkXqqFiUkg6deH4JhTjcBwWL7BAUzVclVePAOWuHHI/G+FMNoAfQCWsbyXEkdsoj7d2M8fAx8B4RrZgJMoBWBgMbGBt85mljy8fxrO7BeSP8VosPcpFhKkWFBVk4ODlDKDbNMiwd+tBhPDPdzayQNr/HsKb60+jsBM1kTs5WopNQxYUPqkBDSemrOZJDDJLVSgI3YlJ0UxTQ1nkGBOdBYMGa00Ut+SBGIZjkyz6uRTQnKtZHkd5lk8sxZKXIY7+ocAWM1RVrX0rmTShAeJofWi+trS62N0OvNKKbp1WC1HPEaN8FZb4PeKoFWJWJV7FzXXErTlO9v5uD7lFcx4fuvIP3pG3r2WqAxFVOQjJ4M4KJj9jIuI7kBXKq0UoQ6+ZXqlIjn4EovpHg3E/A/Ar4VkgKPqit4fcdhvHVej+rm56sUccNGY/X3puGuOP8XkcIwWUj638XPPWYCfkfAdhwPz38Q666Oxx83/RtPjvC7EXCHmQAT6GcEfD+hHDoUq5bTP0stskqraQ0bBTRaitIO4qmIfnYt8XCYABPwNYGLX5NPJ60eM/cerGYR6WvaXD8TYAIdIOB7IdnUCbkaiXEezi4d6CIXYQJMgAkwAYFA9snTyEQCHl06zzMVFSNiAkyACfQCgZ4Tkr0wOG6SCTABJtCfCKhS7sO7r0XipvH9aVQ8FibABPyZgO99JP2ZTif6zj6SnYDFRZkAE2ACTIAJMIF+QaBnEpL3C1Q8CCbABJgAE2ACTIAJMAFXAiwk+XpgAkyACTABJsAEmAAT6BIBFpJdwsYHMQEmwASYABNgAkyACbCQ5GuACTABJsAEmAATYAJMoEsEWEh2CRsfxASYABNgAkyACTABJsBR2910DZwtqOqmmrgaJsAEmAATYAJMgAn4BwG2SPrHeeJeMgEmwASYABNgAkygzxFgIdnnTgl3iAkwASbABJgAE2AC/kGAhaR/nCfuJRNgAkyACTABJsAE+hwBXiKxz50S7lCfJFAtx19XK3DO5tq7RkTcasL/Lbf2yS5zp5gAE2ACTIAJ+JoAC0lfE+b6+wcBawAK0iQ4ZXYOhz6b6e/Y0QH9Y3w8CibABJgAE2ACXSDAQrIL0PiQAUgg3IyXTzepyAAce0qDlW+ziByAVwIPmQkwASbABFwIdE1IWs3Ir6KHqkyBuFBFx4Aa9UjNLUNeDU0DKoMwIi4OY7TSjh3LpZgAE2ACTIAJMAEmwAT6HIEuCMla7H1/M1an1QJxU3Bg9UTEtTUsqx47d+7D89+UoazBtaAUcaMn4PnFUzA1pK0K+Dsm0H8ImCukKK8gS6aiAZHxDejgaxhglqC8SIJqayM0g+hYTWPPQDFSu2XULhqhi7MhpAu/GD3TUW6FCTABJsAEeoNApx4L5rLLWLfrC7x+kURkh7Zq7Nz0IR5Jp/JKLeZeNwpTdfToNJRjb+p5HD1/AivXW/HuqumYIO9QhVyICfghAQkyNyrx6vpAfH2efCudI1CEN2DGPWY8/EszhgeJD8uQrsCrf1Fg90EJDE0xPXTXRo6vxw9/W4cV01q9nQEnVbj7h3LkSxvw4FYDVowQrxdGOf78PRV2VwBTnqzBy/e4RhEFoPwItfs3OfZ97dJuUCOS51jw8G9MmBHfQ0LWS/d5NxNgAkyACfQNAu0ISRuyzqRiR64BWTk5OJBfS4YRDeYm67A3s6zdEVSnH8PzdhEZh2dWLcAyXctU9rIZI/HMazvwbskp/PnIGGydpW23Pi7ABPyPgAQHnwrGr96WwKwh4bjcgikjSYRdleLYhzL87w0Vjn0jwRvv1CHFTUya01V46C4F0qobETuzHosm26CTUdDPsUBs3x+Iv/5Iiup3DHh4souoI4E5I0aBN9Ol2P6+DCt+Kx5Rbtgnx+5LATCEWzFnTmsRWbBNjQceD0SBjYTjrRZ89/oGhFBw0Tk65qMPFVh1WIrfbTXiByNYTPrf9cg9ZgJMgAl0L4F2hKQZJ786htcvU6MyNcYkX4uVN03ErKJPSEi21xEzDnyTBUFuJk6e1kpE2o8kcfnIzUOxc8sVpJ7IQMbM6RjDWS3bg8rf+xkBwycq/OEdEpEk2H79nhErxraIrxU/CcSry9R482sF1vyzHlt+6Sr6SIC+IScRSdbHO0x49zUzIpvG/jMzZjwaglWbJXjvTTl+ONmMZu8QmRWLvm/Df0hIXt4tx7FfWTHFY/5cit1bpDBQfbELzLg53AVqkRxrnnWIyO+uJUvlYheR+ZAZ3/0dieINMrz6BwVmbjQh1s/OB3eXCTABJsAEupdAO9JNgak3z8NbP74bR5/6EXYun47b4jyeSuI9shbjaK7wEFJjFlkwxTbNiKEYK/RAX4CjerESvI8J+DMBCfb9V4Zy0ofJ95taiUj7qDT1+AkJvUh6ncvcTKLPzXg4fLEJz/7RhMcesrSISPuBDZh8q9UuHg0kGDPcjou9w4LJGvoyPxB7vhSJLL8UiI+O0X5ZA763xNrKT/PyNjm+puluxTQznnQVkc52Z/yaRCzVbThCddA0PW9MgAkwASYwsAm0IyQpIGb4cMwaroOusz6MVWW4VEdwJeEYIa4jgSAtEoWnYUM1LpUO7BPBo++HBMwyHEtzCLbJM1tlMm8erGKyFdcK72alUqRluTJowPDZZiz6kQnzXayYTSUUERT8IswnGANgcUens2DRHLJ80nT0vh1yu+WxZQtA5odk6SRHTcV1VG686/Q05ck8JrX7cCbNqHcTr84ayLI6+Vr62yrFqW9YSLqj589MgAkwgYFGoJ2p7W+Bw1DriNJWqqFTCfXU4sDew9gpWB4lOqz8/rU0lR2EQWr6TKmEymqEx1cHrZ3folt8KBPoMQKlElw1Cq0F4OuXg/CbUBGfQqsEgucIbBIUFJIwG926jDmHLH/vB5IglaKAor0NJqEsBXGTgCwQd3+kAo0UxFOPWBKRBfsCsa+MBGnTyxyJ2w8+FN4fqcxSS+upaepLQaGDTsHHKvwmXaS/NJaCbGeZXKEet2Afx1f8XybABJgAExggBHwnJOttjujUQJlTHpqRcf4CdhYRWYkZcxcJQlIKTaCDtFlYJoSF5AC57AbIMM0BEHSfYBnMPChDe27FpqZwbjseEmyb1Vj1h0BcJjGq0DUg6Rr6J4hRet9SVklJIJKw9IJSMdmC742WU9CNDHt2S8my6bCImr+kSOx8OiiGfClvdReBjtV6hCrLT9Nxp71ULuymXw4zjY83JsAEmAATGNgEfCckm7i6P6vceLc8O33flYF9qnn0PU5A0Qil0KjChl9/Rql4hnWiB3kUgENBL5eNjUj5cR3+9iT5SbreIifVOPU/92lrl/pdgm5OvS/H5R/VYTgk+Gyzw2dzOPlRzvBIOdQIhXPfjP+rxuv3tHPzdmI4XJQJMAEmwAT6JwHfqTeFHAph5qvehGrheSSkDZozG3FCCkr6+zp7y2S1dCpJhYpXuemfl9gAHhUlDo8VhFk1TRnnkvVumNhUsTgfwxEZvqaIbcTX4+HfuolI2m0uDUCZ16ltR532oJuXVTiYTtPjp014mBydtx+kfpCw/R5NfXtsFHwTO5j2ppNFMo+nrT348A4mwASYABPwINBOsI1H+Y7vCA1CvFDaSr6Sdj8xKRKTx+C26+nfhDjYXbYoyCavRvhDjTgN+0cKJHjrRwQUVqRc7wh6+XK/rDkReesRko/kaUrF4yYKq6sd08YKHQXVeNwaZFncLfM6rd1cv45yT9qDbiiV0KfkY0n+kqeEafJpFGQzQoxzA6ZQrkqhucuUp/KyqFClZOU0XV5gv6d5YwJMgAkwgYFOwHdCMiTSGZGtR3qxeMQqrpYhXYjsloVjbPRAPxU8fn8ioJQ5rItmCoBp5drYahANmLPciliyvhfQyjZv0ioxrbcAXH6bkn/fFoLZ9ypR4PJlZEwDhEQJ5hwpzrXK/U/HbFDjH6caHVPdFHRDcW1eNmHlHAq6ofYvk2/ke/sonyX1++alXiKyqZbY79OUN+WVNKfTyjdve4pfw0klfrkoGLdODcYeShPEGxNgAkyACQxsAr6b2pbEYNYINd79hqK10/JhHj3UI5Qm68xlZNC0t2LIUF5ve2Bfh342elppJkFYJ5vWod6hwu2XFIijIBi54J1B08Y/eKHOLsaELWR2HZ6kFWh+9U8p3rwvGJmLaeUZCppBlQTnyOr30RFhxRsbfkL5GV2TeytoJZsZMZQHskiGPy0LQhYlGY+k9bZPfSnDZ+ca8fC/KXjthyoSc1JsfJE8MWdaMWOOI7ekK8zmoJvTcmwS+hdH1sjZbfg+6sz49XMUGPQoRYqvCcLdx+rxPUpdFElR5Ze/keGjj2mtcFrxZsqvTa0TmfvZGeTuMgEmwASYQPcQ8J2QpKnsWdPHYEzqCWSkHcbz43R4JlnI9ePYzPkn8MxBwdSixtxpyYjrnvFwLUygRwhE3luHl0tVeHUbrSBzicQVTQObBcO7NAASyEM6AAAKzUlEQVQzWpkoySr4dA3eGanE2tcDcXCDAgebekjBOMIShD98rA7z3dL+QGPB79dJYXlcjv+Rj+Ob9E/YIlPq8bv3arFoLCUxf4jW7v6rDGlvK3HuazPemW1Fsvsd3RR08yzlh6Q+JpPF0XOlm9bIYu+oxbuDaK3tvyrwEQX0vPpJy/eR15HP5ipKrn6rYwq8R2BzI0yACTABJtBnCQQ0Nja0GQGQemA3XjrfevLOZNQjlXLTQa7BhMFqR2SqMMTAOKxaPgVTmx9mNqTu3YZlB8pojW4FEkeS5VFw+NIXY+/5MnuwQNyEedh693CHz2SfxdR+x84WVLVfiEsMcAI0DV0kQT6l7QGJSF0cWfo8IqfdEZFPIk1vl1HgjUJnw/AYt9vVSFZRM01zh7d5G7tX2uHPZrJ4FhTR9D2JZA31N9ZH7XS4Q1yQCTABJsAE+hSBdoSkDQc2vY2VwjIYHdkkQ/HS0wtwW6tVcGgK7qsjePrz80g1uPhK0qo2c6dNxzOzhkLn7jrWkbb6WBkWkn3shHB3mAATYAJMgAkwAZ8TaEdIdmf7NlRfrUC+ICZVGiRGqT18JruztZ6ui4VkTxPn9pgAE2ACTIAJMIHeJtCDQrK3h+rb9llI+pYv184EmAATYAJMgAn0PQL9YFK570HlHjEBJsAEmAATYAJMYCAQYCE5EM4yj5EJMAEmwASYABNgAj4gwELSB1C5SibABJgAE2ACTIAJDAQCLCQHwlnmMTIBJsAEmAATYAJMwAcEWEj6ACpXyQSYABNgAkyACTCBgUCAheRAOMs8RibABJgAE2ACTIAJ+IAAC0kfQOUqmQATYAJMgAkwASYwEAiwkBwIZ5nHyASYABNgAkyACTABHxBoXhXbB3UPqCqNxtoBNd6BMNj8nCy/GmbcsES/6i93lgkwASbABPyfAFsk/f8c8giYABNgAkyACTABJtArBFhI9gp2bpQJMAEmwASYABNgAv5PgKe2fXAOg4LUPqiVq+xpAkqloqeb/Fbt8XX3rfDxwUyACTABJtAFAmyR7AI0PoQJMAEmwASYABNgAkwAYCHJVwET6OsEbCpkHYnAuWJpX+8p948JMAEmwAQGGIGuCUlzHUquXEVOcV3ncVUbkEPHluitnT+Wj2ACA5FArg6v/D4R7xyRD8TR85iZABNgAkygDxPogpA0YOfjzyNx9p8w8cFDyOnM4PQX8bu7/4Br6Nj56/I7cySXZQIDloDxohp5tgE7fB44E2ACTIAJ9GECnQq2MWWdxitr3scLBwydHJIVJYcO4YlnP8IW/0rN18lxcvEBR6BOgZIKmnKW2xAcWo8geUObCCxVKuirhPJmaKPr0b6NUYK8iypY2qyVv2QCTIAJMAEm0DsE2hGSVpzfsx87Tlfg3PF07Ew1wCSNwN1zY7Fzb0E7Pb6Kvf86hmPZJTh2KANfXKGpbN1I3D0xG1tO8LR2O/D4675G4EwCHnoyAjUji/HXtfmIqgrDB6/FY/sBEoZNKk9ajwVr0/DTCe5iMhBZu4fgnfe1OJ0taRaF8lAzJs4vxn0rShCvch9wIA48PR5vpAagvs4xcZD25ljc8+/W5cLnZuGN1Xr3g/kzE2ACTIAJMIEeIdCOkKzDV5v24LlD1BdFCKbMnYUHH74FczPebV9I2gqw+aV92EILvii1UZi74gY8vuo7qPzLH1hI9sip5Ua6lcCQOkSRoMtLD0ZmRTCOPDcC61NJ4KlsiB9hIcuiBDUVQKBHowqceCUJf96mgCWYhOPtlUgZVg9UBiHtf6E48t5QpJ1V4NkXc5HkJiaDY+owokaCCmFqm8RqkM6EEYNcG2igfTzn7YGcdzABJsAEmECPEWhHSKpw489/hI9+HoGkMbGIcqZHrMroQP+kCXhw7U+wYvAgTBkXAaX9ECv2duBQLsIE+hyBYBPidcCJYhVOrB+C4+k2TPtpFh5YrEdUG/PTxoND8PcPSUSG1uCBl87jzhEtwu/Ou8PwzmMjsPlMNN7YUom/r6h2GXY9Jv40AxNJmn76xAS8cgQYcWcW1izqQoBbn4PJHWICTIAJMIH+QqCdYBsZhk0cjxsntojIjg9csGAm48ZmEdnxI7kkE+hzBKQWhIdTr2w05fyxGiN+TIFjP2hbRJIZH4d3hUJP2jFxcW4rEWkfX3Al7vlhFbTkMpm1R4c0Ni72udPOHWICTIAJMIG2CbQjJNs+mL9lAgOHgA3NCxbFXsV9i2vaH7pFg9Pn6BYj38nxk8jHQ2STj69GsmDRrFDjXK5IAd7FBJgAE2ACTKAPE2hnarsP95y7xgR6iUDUpEokdSQ3eIUCevtMtBSn/z0Kfw12D8Khr2xy5AlF6P8lpSQ6E0TK9NI4uVkmwASYABNgAu0RYCHZHiH+ngm4EYiONneMiUUCe0mbBFknNGg781UALJzjp2NcuRQTYAJMgAn0GQIsJPvMqeCO+A0BRWPHuiq3kpckbfI6PPDvM7gztmOHcSkmwASYABNgAv5CgH0k/eVMcT/9j0C4GVFCSh9h2rqIbzX/O4HcYybABJgAE2iPAD/d2iPE3zOBrhKQ1yBpLPk82qQ4fizUy+o0CuSdV8PIEdtdpczHMQEmwASYQC8SYCHZi/C56f5OwIzpd1QhigJzSnbFUb5I93TlUuRtT8TvHroG9z0ahxJRHLT0ojNIJzczGEbRMryTCTABJsAEmEDvEGAfyd7hzq0OEAJBU3Lx0GI1/rxFhc2PXYOsW65i4iiKqjEocPlYOA6kBtKKN3W454EiRIkyaUDypBoEfaaB/tOh+HlZBFKG0BrdFikqqmjKPB+Y9lwG7uFob1F6vJMJMAEmwAR8S6BdIZn25j/x3Betc+CZSktgEvqVdQyrl2Y4V62hz4qR+Pkb83GjPcKgBP95dBt2FtNycC5b8SXHyhxX9ryP72UGthybPBv/+v14hLYqzR+YgL8ToGURV2fgxaFD8K+NWpzYEY0TTUOS25A4owx3PpCLWQne57a1t2Tjd/mJ+H/bgpGXqsGnqc4KhOUZkyoRJZZWyN+xcf+ZABNgAkzALwi0IyStKD6fjb1HvSzLVnsVXxy92jJQhRormj7Z6nDl5EXsvSLOwVRcgC+KW75T1lfYxSkLSXFevLe3CZhxywtf45YudaMeiQtoecMFEhjLlCiuoNuOIrrDo2uhdVtfW7x6M1Luz8AbK6TQ0xKNNbYGmu6uR1A4WSbFD+C9TIAJMAEmwAR6hEBAY2NDB3OZ9Eh//LaRYxeKmvse1LwEit8OhztOBK5kXfArDkMTR/lVf7mzTIAJMAEm4P8EONjG/88hj4AJMAEmwASYABNgAr1CgIVkr2DnRpkAE2ACTIAJMAEm4P8EWEj6/znkETABJsAEmAATYAJMoFcIsJDsFezcKBNgAkyACTABJsAE/J8AC0n/P4c8AibABJgAE2ACTIAJ9AoBFpK9gp0bZQJMgAkwASbABJiA/xNoJ4+k/w+wN0ZgNLZO4N4bfeA2vz0Bk8n87SvpwRr4uutB2NwUE2ACTIAJ2AmwRZIvBCbABJgAE2ACTIAJMIEuEWAh2SVsfBATYAJMgAkwASbABJgAr2zD1wATYAJMgAkwASbABJhAlwiwRbJL2PggJsAEmAATYAJMgAkwARaSfA0wASbABJgAE2ACTIAJdIkAC8kuYeODmAATYAJMgAkwASbABP4/JRTTE2Tz01UAAAAASUVORK5CYII=;" vertex="1" parent="1">
          <mxGeometry x="550" y="175" width="658" height="369" as="geometry" />
        </mxCell>
        <mxCell id="S2vyZTGgJgDLt4Bkh_SA-3" value="" style="shape=curlyBracket;whiteSpace=wrap;html=1;rounded=1;labelPosition=left;verticalLabelPosition=middle;align=right;verticalAlign=middle;strokeWidth=3;" vertex="1" parent="1">
          <mxGeometry x="530" y="210" width="20" height="90" as="geometry" />
        </mxCell>
        <mxCell id="S2vyZTGgJgDLt4Bkh_SA-4" value="" style="shape=curlyBracket;whiteSpace=wrap;html=1;rounded=1;labelPosition=left;verticalLabelPosition=middle;align=right;verticalAlign=middle;strokeWidth=3;" vertex="1" parent="1">
          <mxGeometry x="530" y="300" width="20" height="40" as="geometry" />
        </mxCell>
        <mxCell id="S2vyZTGgJgDLt4Bkh_SA-5" value="" style="shape=curlyBracket;whiteSpace=wrap;html=1;rounded=1;labelPosition=left;verticalLabelPosition=middle;align=right;verticalAlign=middle;strokeWidth=3;" vertex="1" parent="1">
          <mxGeometry x="530" y="339.5" width="20" height="30.5" as="geometry" />
        </mxCell>
        <mxCell id="S2vyZTGgJgDLt4Bkh_SA-6" value="" style="shape=curlyBracket;whiteSpace=wrap;html=1;rounded=1;labelPosition=left;verticalLabelPosition=middle;align=right;verticalAlign=middle;strokeWidth=3;" vertex="1" parent="1">
          <mxGeometry x="530" y="370" width="20" height="100" as="geometry" />
        </mxCell>
        <mxCell id="S2vyZTGgJgDLt4Bkh_SA-7" value="" style="shape=curlyBracket;whiteSpace=wrap;html=1;rounded=1;labelPosition=left;verticalLabelPosition=middle;align=right;verticalAlign=middle;strokeWidth=3;" vertex="1" parent="1">
          <mxGeometry x="530" y="470" width="20" height="60" as="geometry" />
        </mxCell>
        <mxCell id="S2vyZTGgJgDLt4Bkh_SA-9" value="" style="endArrow=classic;html=1;rounded=0;exitX=0.997;exitY=0.168;exitDx=0;exitDy=0;exitPerimeter=0;entryX=0.1;entryY=0.5;entryDx=0;entryDy=0;entryPerimeter=0;strokeWidth=2;strokeColor=#82b366;fillColor=#d5e8d4;" edge="1" parent="1" source="S2vyZTGgJgDLt4Bkh_SA-1" target="S2vyZTGgJgDLt4Bkh_SA-3">
          <mxGeometry width="50" height="50" relative="1" as="geometry">
            <mxPoint x="530" y="510" as="sourcePoint" />
            <mxPoint x="580" y="460" as="targetPoint" />
          </mxGeometry>
        </mxCell>
        <mxCell id="S2vyZTGgJgDLt4Bkh_SA-10" value="" style="endArrow=classic;html=1;rounded=0;exitX=0.997;exitY=0.168;exitDx=0;exitDy=0;exitPerimeter=0;entryX=0.1;entryY=0.5;entryDx=0;entryDy=0;entryPerimeter=0;strokeWidth=2;fillColor=#fff2cc;strokeColor=#d6b656;" edge="1" parent="1" target="S2vyZTGgJgDLt4Bkh_SA-4">
          <mxGeometry width="50" height="50" relative="1" as="geometry">
            <mxPoint x="376" y="290" as="sourcePoint" />
            <mxPoint x="533" y="290" as="targetPoint" />
            <Array as="points">
              <mxPoint x="450" y="290" />
              <mxPoint x="450" y="320" />
            </Array>
          </mxGeometry>
        </mxCell>
        <mxCell id="S2vyZTGgJgDLt4Bkh_SA-11" value="" style="endArrow=classic;html=1;rounded=0;exitX=0.997;exitY=0.168;exitDx=0;exitDy=0;exitPerimeter=0;entryX=0.1;entryY=0.5;entryDx=0;entryDy=0;entryPerimeter=0;strokeWidth=2;fillColor=#e1d5e7;strokeColor=#9673a6;" edge="1" parent="1" target="S2vyZTGgJgDLt4Bkh_SA-5">
          <mxGeometry width="50" height="50" relative="1" as="geometry">
            <mxPoint x="374" y="320" as="sourcePoint" />
            <mxPoint x="530" y="350" as="targetPoint" />
            <Array as="points">
              <mxPoint x="440" y="320" />
              <mxPoint x="440" y="355" />
            </Array>
          </mxGeometry>
        </mxCell>
        <mxCell id="S2vyZTGgJgDLt4Bkh_SA-12" value="" style="endArrow=classic;html=1;rounded=0;exitX=0.997;exitY=0.168;exitDx=0;exitDy=0;exitPerimeter=0;entryX=0.1;entryY=0.5;entryDx=0;entryDy=0;entryPerimeter=0;strokeWidth=2;fillColor=#f8cecc;strokeColor=#b85450;" edge="1" parent="1" target="S2vyZTGgJgDLt4Bkh_SA-6">
          <mxGeometry width="50" height="50" relative="1" as="geometry">
            <mxPoint x="376" y="390" as="sourcePoint" />
            <mxPoint x="534" y="425" as="targetPoint" />
            <Array as="points">
              <mxPoint x="442" y="390" />
              <mxPoint x="442" y="420" />
            </Array>
          </mxGeometry>
        </mxCell>
        <mxCell id="S2vyZTGgJgDLt4Bkh_SA-13" value="" style="endArrow=classic;html=1;rounded=0;exitX=0.997;exitY=0.168;exitDx=0;exitDy=0;exitPerimeter=0;entryX=0.1;entryY=0.5;entryDx=0;entryDy=0;entryPerimeter=0;strokeWidth=2;fillColor=#dae8fc;strokeColor=#6c8ebf;" edge="1" parent="1" target="S2vyZTGgJgDLt4Bkh_SA-7">
          <mxGeometry width="50" height="50" relative="1" as="geometry">
            <mxPoint x="376" y="450" as="sourcePoint" />
            <mxPoint x="532" y="480" as="targetPoint" />
            <Array as="points">
              <mxPoint x="442" y="450" />
              <mxPoint x="442" y="500" />
            </Array>
          </mxGeometry>
        </mxCell>
        <mxCell id="S2vyZTGgJgDLt4Bkh_SA-14" value="&lt;b&gt;&lt;font style=&quot;font-size: 15px;&quot;&gt;1&lt;/font&gt;&lt;/b&gt;" style="ellipse;whiteSpace=wrap;html=1;aspect=fixed;fillColor=#fff2cc;strokeColor=#FF3333;" vertex="1" parent="1">
          <mxGeometry x="1211" y="240" width="30" height="30" as="geometry" />
        </mxCell>
        <mxCell id="S2vyZTGgJgDLt4Bkh_SA-15" value="&lt;b&gt;&lt;font style=&quot;font-size: 15px;&quot;&gt;2&lt;/font&gt;&lt;/b&gt;" style="ellipse;whiteSpace=wrap;html=1;aspect=fixed;fillColor=#fff2cc;strokeColor=#FF3333;" vertex="1" parent="1">
          <mxGeometry x="1211" y="307" width="30" height="30" as="geometry" />
        </mxCell>
        <mxCell id="S2vyZTGgJgDLt4Bkh_SA-16" value="&lt;b&gt;&lt;font style=&quot;font-size: 15px;&quot;&gt;3&lt;/font&gt;&lt;/b&gt;" style="ellipse;whiteSpace=wrap;html=1;aspect=fixed;fillColor=#fff2cc;strokeColor=#FF3333;" vertex="1" parent="1">
          <mxGeometry x="1211" y="340" width="30" height="30" as="geometry" />
        </mxCell>
        <mxCell id="S2vyZTGgJgDLt4Bkh_SA-17" value="&lt;b&gt;&lt;font style=&quot;font-size: 15px;&quot;&gt;4&lt;/font&gt;&lt;/b&gt;" style="ellipse;whiteSpace=wrap;html=1;aspect=fixed;fillColor=#fff2cc;strokeColor=#FF3333;" vertex="1" parent="1">
          <mxGeometry x="1211" y="410" width="30" height="30" as="geometry" />
        </mxCell>
        <mxCell id="S2vyZTGgJgDLt4Bkh_SA-18" value="&lt;b&gt;&lt;font style=&quot;font-size: 15px;&quot;&gt;5&lt;/font&gt;&lt;/b&gt;" style="ellipse;whiteSpace=wrap;html=1;aspect=fixed;fillColor=#fff2cc;strokeColor=#FF3333;" vertex="1" parent="1">
          <mxGeometry x="1211" y="490" width="30" height="30" as="geometry" />
        </mxCell>
      </root>
    </mxGraphModel>
  </diagram>
</mxfile>
